ISO-10303-21;
HEADER;
/* Generated by software containing ST-Developer
 * from STEP Tools, Inc. (www.steptools.com) 
 */

FILE_DESCRIPTION(
/* description */ (''),
/* implementation_level */ '2;1');

FILE_NAME(
/* name */ 'hp48_mount.step',
/* time_stamp */ '2026-08-19T20:16:48+10:00',
/* author */ (''),
/* organization */ (''),
/* preprocessor_version */ 'ST-DEVELOPER v20.1',
/* originating_system */ 'Autodesk Translation Framework v14.24.0.0',
/* authorisation */ '');

FILE_SCHEMA (('AUTOMOTIVE_DESIGN { 1 0 10303 214 3 1 1 }'));
ENDSEC;

DATA;
#10=MECHANICAL_DESIGN_GEOMETRIC_PRESENTATION_REPRESENTATION('',(#13),#895);
#11=SHAPE_REPRESENTATION_RELATIONSHIP('SRR','None',#902,#12);
#12=ADVANCED_BREP_SHAPE_REPRESENTATION('',(#14),#894);
#13=STYLED_ITEM('',(#911),#14);
#14=MANIFOLD_SOLID_BREP('Body1',#523);
#15=FACE_BOUND('',#84,.T.);
#16=FACE_BOUND('',#85,.T.);
#17=FACE_BOUND('',#88,.T.);
#18=FACE_BOUND('',#91,.T.);
#19=FACE_BOUND('',#97,.T.);
#20=FACE_BOUND('',#98,.T.);
#21=PLANE('',#540);
#22=PLANE('',#548);
#23=PLANE('',#553);
#24=PLANE('',#558);
#25=PLANE('',#561);
#26=PLANE('',#564);
#27=PLANE('',#565);
#28=PLANE('',#568);
#29=PLANE('',#569);
#30=PLANE('',#570);
#31=PLANE('',#571);
#32=PLANE('',#576);
#33=PLANE('',#580);
#34=PLANE('',#586);
#35=PLANE('',#587);
#36=PLANE('',#588);
#37=FACE_OUTER_BOUND('',#65,.T.);
#38=FACE_OUTER_BOUND('',#66,.T.);
#39=FACE_OUTER_BOUND('',#67,.T.);
#40=FACE_OUTER_BOUND('',#68,.T.);
#41=FACE_OUTER_BOUND('',#69,.T.);
#42=FACE_OUTER_BOUND('',#70,.T.);
#43=FACE_OUTER_BOUND('',#71,.T.);
#44=FACE_OUTER_BOUND('',#72,.T.);
#45=FACE_OUTER_BOUND('',#73,.T.);
#46=FACE_OUTER_BOUND('',#74,.T.);
#47=FACE_OUTER_BOUND('',#75,.T.);
#48=FACE_OUTER_BOUND('',#76,.T.);
#49=FACE_OUTER_BOUND('',#77,.T.);
#50=FACE_OUTER_BOUND('',#78,.T.);
#51=FACE_OUTER_BOUND('',#79,.T.);
#52=FACE_OUTER_BOUND('',#80,.T.);
#53=FACE_OUTER_BOUND('',#81,.T.);
#54=FACE_OUTER_BOUND('',#82,.T.);
#55=FACE_OUTER_BOUND('',#83,.T.);
#56=FACE_OUTER_BOUND('',#86,.T.);
#57=FACE_OUTER_BOUND('',#87,.T.);
#58=FACE_OUTER_BOUND('',#89,.T.);
#59=FACE_OUTER_BOUND('',#90,.T.);
#60=FACE_OUTER_BOUND('',#92,.T.);
#61=FACE_OUTER_BOUND('',#93,.T.);
#62=FACE_OUTER_BOUND('',#94,.T.);
#63=FACE_OUTER_BOUND('',#95,.T.);
#64=FACE_OUTER_BOUND('',#96,.T.);
#65=EDGE_LOOP('',(#339,#340,#341,#342));
#66=EDGE_LOOP('',(#343,#344,#345,#346,#347,#348,#349,#350,#351,#352,#353,
#354,#355,#356,#357,#358));
#67=EDGE_LOOP('',(#359,#360,#361,#362));
#68=EDGE_LOOP('',(#363,#364,#365,#366));
#69=EDGE_LOOP('',(#367,#368,#369,#370));
#70=EDGE_LOOP('',(#371,#372,#373,#374));
#71=EDGE_LOOP('',(#375,#376,#377,#378));
#72=EDGE_LOOP('',(#379,#380,#381,#382));
#73=EDGE_LOOP('',(#383,#384,#385,#386));
#74=EDGE_LOOP('',(#387,#388,#389,#390));
#75=EDGE_LOOP('',(#391,#392,#393,#394));
#76=EDGE_LOOP('',(#395,#396,#397,#398));
#77=EDGE_LOOP('',(#399,#400,#401,#402));
#78=EDGE_LOOP('',(#403,#404,#405,#406,#407,#408,#409,#410,#411,#412,#413,
#414));
#79=EDGE_LOOP('',(#415,#416,#417,#418));
#80=EDGE_LOOP('',(#419,#420,#421,#422));
#81=EDGE_LOOP('',(#423,#424,#425,#426));
#82=EDGE_LOOP('',(#427,#428,#429,#430));
#83=EDGE_LOOP('',(#431,#432,#433,#434));
#84=EDGE_LOOP('',(#435));
#85=EDGE_LOOP('',(#436));
#86=EDGE_LOOP('',(#437,#438,#439,#440));
#87=EDGE_LOOP('',(#441));
#88=EDGE_LOOP('',(#442));
#89=EDGE_LOOP('',(#443,#444,#445,#446));
#90=EDGE_LOOP('',(#447));
#91=EDGE_LOOP('',(#448));
#92=EDGE_LOOP('',(#449,#450,#451,#452));
#93=EDGE_LOOP('',(#453,#454,#455,#456));
#94=EDGE_LOOP('',(#457,#458,#459,#460,#461,#462,#463,#464,#465,#466,#467,
#468));
#95=EDGE_LOOP('',(#469,#470,#471,#472));
#96=EDGE_LOOP('',(#473,#474,#475,#476,#477,#478,#479,#480));
#97=EDGE_LOOP('',(#481));
#98=EDGE_LOOP('',(#482));
#99=LINE('',#749,#147);
#100=LINE('',#752,#148);
#101=LINE('',#755,#149);
#102=LINE('',#759,#150);
#103=LINE('',#763,#151);
#104=LINE('',#767,#152);
#105=LINE('',#771,#153);
#106=LINE('',#775,#154);
#107=LINE('',#779,#155);
#108=LINE('',#782,#156);
#109=LINE('',#785,#157);
#110=LINE('',#786,#158);
#111=LINE('',#790,#159);
#112=LINE('',#793,#160);
#113=LINE('',#796,#161);
#114=LINE('',#799,#162);
#115=LINE('',#800,#163);
#116=LINE('',#804,#164);
#117=LINE('',#809,#165);
#118=LINE('',#810,#166);
#119=LINE('',#813,#167);
#120=LINE('',#814,#168);
#121=LINE('',#818,#169);
#122=LINE('',#821,#170);
#123=LINE('',#822,#171);
#124=LINE('',#825,#172);
#125=LINE('',#828,#173);
#126=LINE('',#830,#174);
#127=LINE('',#833,#175);
#128=LINE('',#835,#176);
#129=LINE('',#837,#177);
#130=LINE('',#839,#178);
#131=LINE('',#841,#179);
#132=LINE('',#844,#180);
#133=LINE('',#848,#181);
#134=LINE('',#849,#182);
#135=LINE('',#850,#183);
#136=LINE('',#853,#184);
#137=LINE('',#854,#185);
#138=LINE('',#857,#186);
#139=LINE('',#858,#187);
#140=LINE('',#860,#188);
#141=LINE('',#867,#189);
#142=LINE('',#874,#190);
#143=LINE('',#881,#191);
#144=LINE('',#885,#192);
#145=LINE('',#888,#193);
#146=LINE('',#890,#194);
#147=VECTOR('',#595,10.);
#148=VECTOR('',#598,10.);
#149=VECTOR('',#601,10.);
#150=VECTOR('',#604,10.);
#151=VECTOR('',#607,10.);
#152=VECTOR('',#610,10.);
#153=VECTOR('',#613,10.);
#154=VECTOR('',#616,10.);
#155=VECTOR('',#619,10.);
#156=VECTOR('',#622,10.);
#157=VECTOR('',#625,10.);
#158=VECTOR('',#626,10.);
#159=VECTOR('',#631,10.);
#160=VECTOR('',#634,10.);
#161=VECTOR('',#637,10.);
#162=VECTOR('',#640,10.);
#163=VECTOR('',#641,10.);
#164=VECTOR('',#646,10.);
#165=VECTOR('',#651,10.);
#166=VECTOR('',#652,10.);
#167=VECTOR('',#655,10.);
#168=VECTOR('',#656,10.);
#169=VECTOR('',#661,10.);
#170=VECTOR('',#664,10.);
#171=VECTOR('',#665,10.);
#172=VECTOR('',#668,10.);
#173=VECTOR('',#671,10.);
#174=VECTOR('',#674,10.);
#175=VECTOR('',#677,10.);
#176=VECTOR('',#678,10.);
#177=VECTOR('',#679,10.);
#178=VECTOR('',#680,10.);
#179=VECTOR('',#681,10.);
#180=VECTOR('',#686,10.);
#181=VECTOR('',#689,10.);
#182=VECTOR('',#690,10.);
#183=VECTOR('',#691,10.);
#184=VECTOR('',#694,10.);
#185=VECTOR('',#695,10.);
#186=VECTOR('',#698,10.);
#187=VECTOR('',#699,10.);
#188=VECTOR('',#702,10.);
#189=VECTOR('',#709,8.90000000000001);
#190=VECTOR('',#718,8.9);
#191=VECTOR('',#727,3.65);
#192=VECTOR('',#732,3.65);
#193=VECTOR('',#737,10.);
#194=VECTOR('',#740,10.);
#195=CIRCLE('',#538,2.);
#196=CIRCLE('',#539,2.);
#197=CIRCLE('',#541,2.);
#198=CIRCLE('',#542,8.);
#199=CIRCLE('',#543,8.);
#200=CIRCLE('',#544,8.);
#201=CIRCLE('',#545,8.);
#202=CIRCLE('',#546,2.);
#203=CIRCLE('',#547,2.);
#204=CIRCLE('',#550,2.);
#205=CIRCLE('',#552,2.);
#206=CIRCLE('',#555,2.);
#207=CIRCLE('',#557,8.);
#208=CIRCLE('',#560,8.);
#209=CIRCLE('',#563,8.);
#210=CIRCLE('',#566,8.);
#211=CIRCLE('',#572,8.9);
#212=CIRCLE('',#573,8.90000000000001);
#213=CIRCLE('',#575,8.90000000000001);
#214=CIRCLE('',#577,3.65);
#215=CIRCLE('',#579,8.9);
#216=CIRCLE('',#581,3.65);
#217=CIRCLE('',#583,3.65);
#218=CIRCLE('',#585,3.65);
#219=VERTEX_POINT('',#745);
#220=VERTEX_POINT('',#746);
#221=VERTEX_POINT('',#748);
#222=VERTEX_POINT('',#750);
#223=VERTEX_POINT('',#754);
#224=VERTEX_POINT('',#756);
#225=VERTEX_POINT('',#758);
#226=VERTEX_POINT('',#760);
#227=VERTEX_POINT('',#762);
#228=VERTEX_POINT('',#764);
#229=VERTEX_POINT('',#766);
#230=VERTEX_POINT('',#768);
#231=VERTEX_POINT('',#770);
#232=VERTEX_POINT('',#772);
#233=VERTEX_POINT('',#774);
#234=VERTEX_POINT('',#776);
#235=VERTEX_POINT('',#778);
#236=VERTEX_POINT('',#780);
#237=VERTEX_POINT('',#784);
#238=VERTEX_POINT('',#788);
#239=VERTEX_POINT('',#792);
#240=VERTEX_POINT('',#794);
#241=VERTEX_POINT('',#798);
#242=VERTEX_POINT('',#802);
#243=VERTEX_POINT('',#806);
#244=VERTEX_POINT('',#807);
#245=VERTEX_POINT('',#812);
#246=VERTEX_POINT('',#816);
#247=VERTEX_POINT('',#820);
#248=VERTEX_POINT('',#824);
#249=VERTEX_POINT('',#826);
#250=VERTEX_POINT('',#832);
#251=VERTEX_POINT('',#834);
#252=VERTEX_POINT('',#836);
#253=VERTEX_POINT('',#838);
#254=VERTEX_POINT('',#840);
#255=VERTEX_POINT('',#846);
#256=VERTEX_POINT('',#847);
#257=VERTEX_POINT('',#852);
#258=VERTEX_POINT('',#856);
#259=VERTEX_POINT('',#861);
#260=VERTEX_POINT('',#863);
#261=VERTEX_POINT('',#866);
#262=VERTEX_POINT('',#870);
#263=VERTEX_POINT('',#873);
#264=VERTEX_POINT('',#877);
#265=VERTEX_POINT('',#880);
#266=VERTEX_POINT('',#884);
#267=EDGE_CURVE('',#219,#220,#195,.T.);
#268=EDGE_CURVE('',#220,#221,#99,.T.);
#269=EDGE_CURVE('',#221,#222,#196,.T.);
#270=EDGE_CURVE('',#222,#219,#100,.T.);
#271=EDGE_CURVE('',#219,#223,#101,.T.);
#272=EDGE_CURVE('',#224,#223,#197,.T.);
#273=EDGE_CURVE('',#224,#225,#102,.T.);
#274=EDGE_CURVE('',#226,#225,#198,.T.);
#275=EDGE_CURVE('',#226,#227,#103,.T.);
#276=EDGE_CURVE('',#228,#227,#199,.T.);
#277=EDGE_CURVE('',#228,#229,#104,.T.);
#278=EDGE_CURVE('',#230,#229,#200,.T.);
#279=EDGE_CURVE('',#230,#231,#105,.T.);
#280=EDGE_CURVE('',#232,#231,#201,.T.);
#281=EDGE_CURVE('',#232,#233,#106,.T.);
#282=EDGE_CURVE('',#234,#233,#202,.T.);
#283=EDGE_CURVE('',#234,#235,#107,.T.);
#284=EDGE_CURVE('',#236,#235,#203,.T.);
#285=EDGE_CURVE('',#236,#220,#108,.T.);
#286=EDGE_CURVE('',#237,#222,#109,.T.);
#287=EDGE_CURVE('',#223,#237,#110,.T.);
#288=EDGE_CURVE('',#237,#238,#204,.T.);
#289=EDGE_CURVE('',#238,#224,#111,.T.);
#290=EDGE_CURVE('',#233,#239,#112,.T.);
#291=EDGE_CURVE('',#239,#240,#205,.T.);
#292=EDGE_CURVE('',#240,#234,#113,.T.);
#293=EDGE_CURVE('',#241,#240,#114,.T.);
#294=EDGE_CURVE('',#235,#241,#115,.T.);
#295=EDGE_CURVE('',#241,#242,#206,.T.);
#296=EDGE_CURVE('',#242,#236,#116,.T.);
#297=EDGE_CURVE('',#243,#244,#207,.T.);
#298=EDGE_CURVE('',#244,#228,#117,.T.);
#299=EDGE_CURVE('',#227,#243,#118,.T.);
#300=EDGE_CURVE('',#245,#244,#119,.T.);
#301=EDGE_CURVE('',#229,#245,#120,.T.);
#302=EDGE_CURVE('',#245,#246,#208,.T.);
#303=EDGE_CURVE('',#246,#230,#121,.T.);
#304=EDGE_CURVE('',#247,#246,#122,.T.);
#305=EDGE_CURVE('',#231,#247,#123,.T.);
#306=EDGE_CURVE('',#225,#248,#124,.T.);
#307=EDGE_CURVE('',#248,#249,#209,.T.);
#308=EDGE_CURVE('',#249,#226,#125,.T.);
#309=EDGE_CURVE('',#249,#243,#126,.T.);
#310=EDGE_CURVE('',#250,#248,#127,.T.);
#311=EDGE_CURVE('',#250,#251,#128,.T.);
#312=EDGE_CURVE('',#251,#252,#129,.T.);
#313=EDGE_CURVE('',#252,#253,#130,.T.);
#314=EDGE_CURVE('',#253,#254,#131,.T.);
#315=EDGE_CURVE('',#247,#254,#210,.T.);
#316=EDGE_CURVE('',#254,#232,#132,.T.);
#317=EDGE_CURVE('',#255,#256,#133,.T.);
#318=EDGE_CURVE('',#255,#253,#134,.T.);
#319=EDGE_CURVE('',#256,#252,#135,.T.);
#320=EDGE_CURVE('',#256,#257,#136,.T.);
#321=EDGE_CURVE('',#257,#251,#137,.T.);
#322=EDGE_CURVE('',#257,#258,#138,.T.);
#323=EDGE_CURVE('',#258,#250,#139,.T.);
#324=EDGE_CURVE('',#258,#255,#140,.T.);
#325=EDGE_CURVE('',#259,#259,#211,.T.);
#326=EDGE_CURVE('',#260,#260,#212,.T.);
#327=EDGE_CURVE('',#260,#261,#141,.T.);
#328=EDGE_CURVE('',#261,#261,#213,.T.);
#329=EDGE_CURVE('',#262,#262,#214,.T.);
#330=EDGE_CURVE('',#259,#263,#142,.T.);
#331=EDGE_CURVE('',#263,#263,#215,.T.);
#332=EDGE_CURVE('',#264,#264,#216,.T.);
#333=EDGE_CURVE('',#262,#265,#143,.T.);
#334=EDGE_CURVE('',#265,#265,#217,.T.);
#335=EDGE_CURVE('',#264,#266,#144,.T.);
#336=EDGE_CURVE('',#266,#266,#218,.T.);
#337=EDGE_CURVE('',#239,#238,#145,.T.);
#338=EDGE_CURVE('',#221,#242,#146,.T.);
#339=ORIENTED_EDGE('',*,*,#267,.T.);
#340=ORIENTED_EDGE('',*,*,#268,.T.);
#341=ORIENTED_EDGE('',*,*,#269,.T.);
#342=ORIENTED_EDGE('',*,*,#270,.T.);
#343=ORIENTED_EDGE('',*,*,#267,.F.);
#344=ORIENTED_EDGE('',*,*,#271,.T.);
#345=ORIENTED_EDGE('',*,*,#272,.F.);
#346=ORIENTED_EDGE('',*,*,#273,.T.);
#347=ORIENTED_EDGE('',*,*,#274,.F.);
#348=ORIENTED_EDGE('',*,*,#275,.T.);
#349=ORIENTED_EDGE('',*,*,#276,.F.);
#350=ORIENTED_EDGE('',*,*,#277,.T.);
#351=ORIENTED_EDGE('',*,*,#278,.F.);
#352=ORIENTED_EDGE('',*,*,#279,.T.);
#353=ORIENTED_EDGE('',*,*,#280,.F.);
#354=ORIENTED_EDGE('',*,*,#281,.T.);
#355=ORIENTED_EDGE('',*,*,#282,.F.);
#356=ORIENTED_EDGE('',*,*,#283,.T.);
#357=ORIENTED_EDGE('',*,*,#284,.F.);
#358=ORIENTED_EDGE('',*,*,#285,.T.);
#359=ORIENTED_EDGE('',*,*,#270,.F.);
#360=ORIENTED_EDGE('',*,*,#286,.F.);
#361=ORIENTED_EDGE('',*,*,#287,.F.);
#362=ORIENTED_EDGE('',*,*,#271,.F.);
#363=ORIENTED_EDGE('',*,*,#288,.T.);
#364=ORIENTED_EDGE('',*,*,#289,.T.);
#365=ORIENTED_EDGE('',*,*,#272,.T.);
#366=ORIENTED_EDGE('',*,*,#287,.T.);
#367=ORIENTED_EDGE('',*,*,#282,.T.);
#368=ORIENTED_EDGE('',*,*,#290,.T.);
#369=ORIENTED_EDGE('',*,*,#291,.T.);
#370=ORIENTED_EDGE('',*,*,#292,.T.);
#371=ORIENTED_EDGE('',*,*,#292,.F.);
#372=ORIENTED_EDGE('',*,*,#293,.F.);
#373=ORIENTED_EDGE('',*,*,#294,.F.);
#374=ORIENTED_EDGE('',*,*,#283,.F.);
#375=ORIENTED_EDGE('',*,*,#295,.T.);
#376=ORIENTED_EDGE('',*,*,#296,.T.);
#377=ORIENTED_EDGE('',*,*,#284,.T.);
#378=ORIENTED_EDGE('',*,*,#294,.T.);
#379=ORIENTED_EDGE('',*,*,#297,.T.);
#380=ORIENTED_EDGE('',*,*,#298,.T.);
#381=ORIENTED_EDGE('',*,*,#276,.T.);
#382=ORIENTED_EDGE('',*,*,#299,.T.);
#383=ORIENTED_EDGE('',*,*,#298,.F.);
#384=ORIENTED_EDGE('',*,*,#300,.F.);
#385=ORIENTED_EDGE('',*,*,#301,.F.);
#386=ORIENTED_EDGE('',*,*,#277,.F.);
#387=ORIENTED_EDGE('',*,*,#302,.T.);
#388=ORIENTED_EDGE('',*,*,#303,.T.);
#389=ORIENTED_EDGE('',*,*,#278,.T.);
#390=ORIENTED_EDGE('',*,*,#301,.T.);
#391=ORIENTED_EDGE('',*,*,#303,.F.);
#392=ORIENTED_EDGE('',*,*,#304,.F.);
#393=ORIENTED_EDGE('',*,*,#305,.F.);
#394=ORIENTED_EDGE('',*,*,#279,.F.);
#395=ORIENTED_EDGE('',*,*,#274,.T.);
#396=ORIENTED_EDGE('',*,*,#306,.T.);
#397=ORIENTED_EDGE('',*,*,#307,.T.);
#398=ORIENTED_EDGE('',*,*,#308,.T.);
#399=ORIENTED_EDGE('',*,*,#299,.F.);
#400=ORIENTED_EDGE('',*,*,#275,.F.);
#401=ORIENTED_EDGE('',*,*,#308,.F.);
#402=ORIENTED_EDGE('',*,*,#309,.T.);
#403=ORIENTED_EDGE('',*,*,#307,.F.);
#404=ORIENTED_EDGE('',*,*,#310,.F.);
#405=ORIENTED_EDGE('',*,*,#311,.T.);
#406=ORIENTED_EDGE('',*,*,#312,.T.);
#407=ORIENTED_EDGE('',*,*,#313,.T.);
#408=ORIENTED_EDGE('',*,*,#314,.T.);
#409=ORIENTED_EDGE('',*,*,#315,.F.);
#410=ORIENTED_EDGE('',*,*,#304,.T.);
#411=ORIENTED_EDGE('',*,*,#302,.F.);
#412=ORIENTED_EDGE('',*,*,#300,.T.);
#413=ORIENTED_EDGE('',*,*,#297,.F.);
#414=ORIENTED_EDGE('',*,*,#309,.F.);
#415=ORIENTED_EDGE('',*,*,#280,.T.);
#416=ORIENTED_EDGE('',*,*,#305,.T.);
#417=ORIENTED_EDGE('',*,*,#315,.T.);
#418=ORIENTED_EDGE('',*,*,#316,.T.);
#419=ORIENTED_EDGE('',*,*,#317,.F.);
#420=ORIENTED_EDGE('',*,*,#318,.T.);
#421=ORIENTED_EDGE('',*,*,#313,.F.);
#422=ORIENTED_EDGE('',*,*,#319,.F.);
#423=ORIENTED_EDGE('',*,*,#320,.F.);
#424=ORIENTED_EDGE('',*,*,#319,.T.);
#425=ORIENTED_EDGE('',*,*,#312,.F.);
#426=ORIENTED_EDGE('',*,*,#321,.F.);
#427=ORIENTED_EDGE('',*,*,#322,.F.);
#428=ORIENTED_EDGE('',*,*,#321,.T.);
#429=ORIENTED_EDGE('',*,*,#311,.F.);
#430=ORIENTED_EDGE('',*,*,#323,.F.);
#431=ORIENTED_EDGE('',*,*,#317,.T.);
#432=ORIENTED_EDGE('',*,*,#320,.T.);
#433=ORIENTED_EDGE('',*,*,#322,.T.);
#434=ORIENTED_EDGE('',*,*,#324,.T.);
#435=ORIENTED_EDGE('',*,*,#325,.T.);
#436=ORIENTED_EDGE('',*,*,#326,.T.);
#437=ORIENTED_EDGE('',*,*,#326,.F.);
#438=ORIENTED_EDGE('',*,*,#327,.T.);
#439=ORIENTED_EDGE('',*,*,#328,.T.);
#440=ORIENTED_EDGE('',*,*,#327,.F.);
#441=ORIENTED_EDGE('',*,*,#328,.F.);
#442=ORIENTED_EDGE('',*,*,#329,.F.);
#443=ORIENTED_EDGE('',*,*,#325,.F.);
#444=ORIENTED_EDGE('',*,*,#330,.T.);
#445=ORIENTED_EDGE('',*,*,#331,.T.);
#446=ORIENTED_EDGE('',*,*,#330,.F.);
#447=ORIENTED_EDGE('',*,*,#331,.F.);
#448=ORIENTED_EDGE('',*,*,#332,.F.);
#449=ORIENTED_EDGE('',*,*,#329,.T.);
#450=ORIENTED_EDGE('',*,*,#333,.T.);
#451=ORIENTED_EDGE('',*,*,#334,.F.);
#452=ORIENTED_EDGE('',*,*,#333,.F.);
#453=ORIENTED_EDGE('',*,*,#332,.T.);
#454=ORIENTED_EDGE('',*,*,#335,.T.);
#455=ORIENTED_EDGE('',*,*,#336,.F.);
#456=ORIENTED_EDGE('',*,*,#335,.F.);
#457=ORIENTED_EDGE('',*,*,#289,.F.);
#458=ORIENTED_EDGE('',*,*,#337,.F.);
#459=ORIENTED_EDGE('',*,*,#290,.F.);
#460=ORIENTED_EDGE('',*,*,#281,.F.);
#461=ORIENTED_EDGE('',*,*,#316,.F.);
#462=ORIENTED_EDGE('',*,*,#314,.F.);
#463=ORIENTED_EDGE('',*,*,#318,.F.);
#464=ORIENTED_EDGE('',*,*,#324,.F.);
#465=ORIENTED_EDGE('',*,*,#323,.T.);
#466=ORIENTED_EDGE('',*,*,#310,.T.);
#467=ORIENTED_EDGE('',*,*,#306,.F.);
#468=ORIENTED_EDGE('',*,*,#273,.F.);
#469=ORIENTED_EDGE('',*,*,#268,.F.);
#470=ORIENTED_EDGE('',*,*,#285,.F.);
#471=ORIENTED_EDGE('',*,*,#296,.F.);
#472=ORIENTED_EDGE('',*,*,#338,.F.);
#473=ORIENTED_EDGE('',*,*,#269,.F.);
#474=ORIENTED_EDGE('',*,*,#338,.T.);
#475=ORIENTED_EDGE('',*,*,#295,.F.);
#476=ORIENTED_EDGE('',*,*,#293,.T.);
#477=ORIENTED_EDGE('',*,*,#291,.F.);
#478=ORIENTED_EDGE('',*,*,#337,.T.);
#479=ORIENTED_EDGE('',*,*,#288,.F.);
#480=ORIENTED_EDGE('',*,*,#286,.T.);
#481=ORIENTED_EDGE('',*,*,#334,.T.);
#482=ORIENTED_EDGE('',*,*,#336,.T.);
#483=CYLINDRICAL_SURFACE('',#537,2.);
#484=CYLINDRICAL_SURFACE('',#549,2.);
#485=CYLINDRICAL_SURFACE('',#551,2.);
#486=CYLINDRICAL_SURFACE('',#554,2.);
#487=CYLINDRICAL_SURFACE('',#556,8.);
#488=CYLINDRICAL_SURFACE('',#559,8.);
#489=CYLINDRICAL_SURFACE('',#562,8.);
#490=CYLINDRICAL_SURFACE('',#567,8.);
#491=CYLINDRICAL_SURFACE('',#574,8.90000000000001);
#492=CYLINDRICAL_SURFACE('',#578,8.9);
#493=CYLINDRICAL_SURFACE('',#582,3.65);
#494=CYLINDRICAL_SURFACE('',#584,3.65);
#495=ADVANCED_FACE('',(#37),#483,.T.);
#496=ADVANCED_FACE('',(#38),#21,.T.);
#497=ADVANCED_FACE('',(#39),#22,.T.);
#498=ADVANCED_FACE('',(#40),#484,.T.);
#499=ADVANCED_FACE('',(#41),#485,.T.);
#500=ADVANCED_FACE('',(#42),#23,.T.);
#501=ADVANCED_FACE('',(#43),#486,.T.);
#502=ADVANCED_FACE('',(#44),#487,.F.);
#503=ADVANCED_FACE('',(#45),#24,.T.);
#504=ADVANCED_FACE('',(#46),#488,.F.);
#505=ADVANCED_FACE('',(#47),#25,.T.);
#506=ADVANCED_FACE('',(#48),#489,.T.);
#507=ADVANCED_FACE('',(#49),#26,.T.);
#508=ADVANCED_FACE('',(#50),#27,.F.);
#509=ADVANCED_FACE('',(#51),#490,.T.);
#510=ADVANCED_FACE('',(#52),#28,.T.);
#511=ADVANCED_FACE('',(#53),#29,.T.);
#512=ADVANCED_FACE('',(#54),#30,.T.);
#513=ADVANCED_FACE('',(#55,#15,#16),#31,.T.);
#514=ADVANCED_FACE('',(#56),#491,.F.);
#515=ADVANCED_FACE('',(#57,#17),#32,.T.);
#516=ADVANCED_FACE('',(#58),#492,.F.);
#517=ADVANCED_FACE('',(#59,#18),#33,.T.);
#518=ADVANCED_FACE('',(#60),#493,.F.);
#519=ADVANCED_FACE('',(#61),#494,.F.);
#520=ADVANCED_FACE('',(#62),#34,.T.);
#521=ADVANCED_FACE('',(#63),#35,.T.);
#522=ADVANCED_FACE('',(#64,#19,#20),#36,.F.);
#523=CLOSED_SHELL('',(#495,#496,#497,#498,#499,#500,#501,#502,#503,#504,
#505,#506,#507,#508,#509,#510,#511,#512,#513,#514,#515,#516,#517,#518,#519,
#520,#521,#522));
#524=DERIVED_UNIT_ELEMENT(#526,1.);
#525=DERIVED_UNIT_ELEMENT(#897,-3.);
#526=(
MASS_UNIT()
NAMED_UNIT(*)
SI_UNIT(.KILO.,.GRAM.)
);
#527=DERIVED_UNIT((#524,#525));
#528=MEASURE_REPRESENTATION_ITEM('density measure',
POSITIVE_RATIO_MEASURE(7850.),#527);
#529=PROPERTY_DEFINITION_REPRESENTATION(#534,#531);
#530=PROPERTY_DEFINITION_REPRESENTATION(#535,#532);
#531=REPRESENTATION('material name',(#533),#894);
#532=REPRESENTATION('density',(#528),#894);
#533=DESCRIPTIVE_REPRESENTATION_ITEM('Steel','Steel');
#534=PROPERTY_DEFINITION('material property','material name',#904);
#535=PROPERTY_DEFINITION('material property','density of part',#904);
#536=AXIS2_PLACEMENT_3D('',#743,#589,#590);
#537=AXIS2_PLACEMENT_3D('',#744,#591,#592);
#538=AXIS2_PLACEMENT_3D('',#747,#593,#594);
#539=AXIS2_PLACEMENT_3D('',#751,#596,#597);
#540=AXIS2_PLACEMENT_3D('',#753,#599,#600);
#541=AXIS2_PLACEMENT_3D('',#757,#602,#603);
#542=AXIS2_PLACEMENT_3D('',#761,#605,#606);
#543=AXIS2_PLACEMENT_3D('',#765,#608,#609);
#544=AXIS2_PLACEMENT_3D('',#769,#611,#612);
#545=AXIS2_PLACEMENT_3D('',#773,#614,#615);
#546=AXIS2_PLACEMENT_3D('',#777,#617,#618);
#547=AXIS2_PLACEMENT_3D('',#781,#620,#621);
#548=AXIS2_PLACEMENT_3D('',#783,#623,#624);
#549=AXIS2_PLACEMENT_3D('',#787,#627,#628);
#550=AXIS2_PLACEMENT_3D('',#789,#629,#630);
#551=AXIS2_PLACEMENT_3D('',#791,#632,#633);
#552=AXIS2_PLACEMENT_3D('',#795,#635,#636);
#553=AXIS2_PLACEMENT_3D('',#797,#638,#639);
#554=AXIS2_PLACEMENT_3D('',#801,#642,#643);
#555=AXIS2_PLACEMENT_3D('',#803,#644,#645);
#556=AXIS2_PLACEMENT_3D('',#805,#647,#648);
#557=AXIS2_PLACEMENT_3D('',#808,#649,#650);
#558=AXIS2_PLACEMENT_3D('',#811,#653,#654);
#559=AXIS2_PLACEMENT_3D('',#815,#657,#658);
#560=AXIS2_PLACEMENT_3D('',#817,#659,#660);
#561=AXIS2_PLACEMENT_3D('',#819,#662,#663);
#562=AXIS2_PLACEMENT_3D('',#823,#666,#667);
#563=AXIS2_PLACEMENT_3D('',#827,#669,#670);
#564=AXIS2_PLACEMENT_3D('',#829,#672,#673);
#565=AXIS2_PLACEMENT_3D('',#831,#675,#676);
#566=AXIS2_PLACEMENT_3D('',#842,#682,#683);
#567=AXIS2_PLACEMENT_3D('',#843,#684,#685);
#568=AXIS2_PLACEMENT_3D('',#845,#687,#688);
#569=AXIS2_PLACEMENT_3D('',#851,#692,#693);
#570=AXIS2_PLACEMENT_3D('',#855,#696,#697);
#571=AXIS2_PLACEMENT_3D('',#859,#700,#701);
#572=AXIS2_PLACEMENT_3D('',#862,#703,#704);
#573=AXIS2_PLACEMENT_3D('',#864,#705,#706);
#574=AXIS2_PLACEMENT_3D('',#865,#707,#708);
#575=AXIS2_PLACEMENT_3D('',#868,#710,#711);
#576=AXIS2_PLACEMENT_3D('',#869,#712,#713);
#577=AXIS2_PLACEMENT_3D('',#871,#714,#715);
#578=AXIS2_PLACEMENT_3D('',#872,#716,#717);
#579=AXIS2_PLACEMENT_3D('',#875,#719,#720);
#580=AXIS2_PLACEMENT_3D('',#876,#721,#722);
#581=AXIS2_PLACEMENT_3D('',#878,#723,#724);
#582=AXIS2_PLACEMENT_3D('',#879,#725,#726);
#583=AXIS2_PLACEMENT_3D('',#882,#728,#729);
#584=AXIS2_PLACEMENT_3D('',#883,#730,#731);
#585=AXIS2_PLACEMENT_3D('',#886,#733,#734);
#586=AXIS2_PLACEMENT_3D('',#887,#735,#736);
#587=AXIS2_PLACEMENT_3D('',#889,#738,#739);
#588=AXIS2_PLACEMENT_3D('',#891,#741,#742);
#589=DIRECTION('axis',(0.,0.,1.));
#590=DIRECTION('refdir',(1.,0.,0.));
#591=DIRECTION('center_axis',(0.,0.,1.));
#592=DIRECTION('ref_axis',(0.707106781186544,0.707106781186551,0.));
#593=DIRECTION('center_axis',(0.,0.,-1.));
#594=DIRECTION('ref_axis',(0.707106781186544,0.707106781186551,0.));
#595=DIRECTION('',(0.,0.,-1.));
#596=DIRECTION('center_axis',(0.,0.,1.));
#597=DIRECTION('ref_axis',(0.707106781186544,0.707106781186551,0.));
#598=DIRECTION('',(0.,0.,1.));
#599=DIRECTION('center_axis',(0.,0.,1.));
#600=DIRECTION('ref_axis',(1.,0.,0.));
#601=DIRECTION('',(-1.,0.,0.));
#602=DIRECTION('center_axis',(0.,0.,-1.));
#603=DIRECTION('ref_axis',(-0.707106781186546,0.707106781186549,0.));
#604=DIRECTION('',(0.,-1.,0.));
#605=DIRECTION('center_axis',(0.,0.,-1.));
#606=DIRECTION('ref_axis',(-0.707106781186548,-0.707106781186547,0.));
#607=DIRECTION('',(1.,0.,0.));
#608=DIRECTION('center_axis',(0.,0.,1.));
#609=DIRECTION('ref_axis',(0.707106781186547,0.707106781186548,0.));
#610=DIRECTION('',(0.,-1.,0.));
#611=DIRECTION('center_axis',(0.,0.,1.));
#612=DIRECTION('ref_axis',(0.707106781186547,-0.707106781186548,0.));
#613=DIRECTION('',(-1.,0.,0.));
#614=DIRECTION('center_axis',(0.,0.,-1.));
#615=DIRECTION('ref_axis',(-0.707106781186548,0.707106781186548,0.));
#616=DIRECTION('',(0.,-1.,0.));
#617=DIRECTION('center_axis',(0.,0.,-1.));
#618=DIRECTION('ref_axis',(-0.707106781186548,-0.707106781186547,0.));
#619=DIRECTION('',(1.,0.,0.));
#620=DIRECTION('center_axis',(0.,0.,-1.));
#621=DIRECTION('ref_axis',(0.707106781186546,-0.707106781186549,0.));
#622=DIRECTION('',(0.,1.,0.));
#623=DIRECTION('center_axis',(0.,1.,0.));
#624=DIRECTION('ref_axis',(1.,0.,0.));
#625=DIRECTION('',(1.,0.,0.));
#626=DIRECTION('',(0.,0.,-1.));
#627=DIRECTION('center_axis',(0.,0.,-1.));
#628=DIRECTION('ref_axis',(-0.707106781186546,0.707106781186549,0.));
#629=DIRECTION('center_axis',(0.,0.,1.));
#630=DIRECTION('ref_axis',(-0.707106781186546,0.707106781186549,0.));
#631=DIRECTION('',(0.,0.,1.));
#632=DIRECTION('center_axis',(0.,0.,1.));
#633=DIRECTION('ref_axis',(-0.707106781186548,-0.707106781186547,0.));
#634=DIRECTION('',(0.,0.,-1.));
#635=DIRECTION('center_axis',(0.,0.,1.));
#636=DIRECTION('ref_axis',(-0.707106781186548,-0.707106781186547,0.));
#637=DIRECTION('',(0.,0.,1.));
#638=DIRECTION('center_axis',(0.,-1.,0.));
#639=DIRECTION('ref_axis',(-1.,0.,0.));
#640=DIRECTION('',(-1.,0.,0.));
#641=DIRECTION('',(0.,0.,-1.));
#642=DIRECTION('center_axis',(0.,0.,-1.));
#643=DIRECTION('ref_axis',(0.707106781186546,-0.707106781186549,0.));
#644=DIRECTION('center_axis',(0.,0.,1.));
#645=DIRECTION('ref_axis',(0.707106781186546,-0.707106781186549,0.));
#646=DIRECTION('',(0.,0.,1.));
#647=DIRECTION('center_axis',(0.,0.,1.));
#648=DIRECTION('ref_axis',(0.707106781186547,0.707106781186548,0.));
#649=DIRECTION('center_axis',(0.,0.,-1.));
#650=DIRECTION('ref_axis',(0.707106781186547,0.707106781186548,0.));
#651=DIRECTION('',(0.,0.,1.));
#652=DIRECTION('',(0.,0.,-1.));
#653=DIRECTION('center_axis',(-1.,0.,0.));
#654=DIRECTION('ref_axis',(0.,-1.,0.));
#655=DIRECTION('',(0.,1.,0.));
#656=DIRECTION('',(0.,0.,-1.));
#657=DIRECTION('center_axis',(0.,0.,1.));
#658=DIRECTION('ref_axis',(0.707106781186547,-0.707106781186548,0.));
#659=DIRECTION('center_axis',(0.,0.,-1.));
#660=DIRECTION('ref_axis',(0.707106781186547,-0.707106781186548,0.));
#661=DIRECTION('',(0.,0.,1.));
#662=DIRECTION('center_axis',(0.,1.,0.));
#663=DIRECTION('ref_axis',(-1.,0.,0.));
#664=DIRECTION('',(1.,0.,0.));
#665=DIRECTION('',(0.,0.,-1.));
#666=DIRECTION('center_axis',(0.,0.,1.));
#667=DIRECTION('ref_axis',(-0.707106781186548,-0.707106781186547,0.));
#668=DIRECTION('',(0.,0.,-1.));
#669=DIRECTION('center_axis',(0.,0.,1.));
#670=DIRECTION('ref_axis',(-0.707106781186548,-0.707106781186547,0.));
#671=DIRECTION('',(0.,0.,1.));
#672=DIRECTION('center_axis',(0.,-1.,0.));
#673=DIRECTION('ref_axis',(1.,0.,0.));
#674=DIRECTION('',(1.,0.,0.));
#675=DIRECTION('center_axis',(0.,0.,1.));
#676=DIRECTION('ref_axis',(1.,0.,0.));
#677=DIRECTION('',(0.,-1.,0.));
#678=DIRECTION('',(1.,0.,0.));
#679=DIRECTION('',(0.,-1.,0.));
#680=DIRECTION('',(-1.,0.,0.));
#681=DIRECTION('',(0.,1.,0.));
#682=DIRECTION('center_axis',(0.,0.,1.));
#683=DIRECTION('ref_axis',(-0.707106781186548,0.707106781186548,0.));
#684=DIRECTION('center_axis',(0.,0.,1.));
#685=DIRECTION('ref_axis',(-0.707106781186548,0.707106781186548,0.));
#686=DIRECTION('',(0.,0.,1.));
#687=DIRECTION('center_axis',(0.,1.,0.));
#688=DIRECTION('ref_axis',(-1.,0.,0.));
#689=DIRECTION('',(1.,0.,0.));
#690=DIRECTION('',(0.,0.,1.));
#691=DIRECTION('',(0.,0.,1.));
#692=DIRECTION('center_axis',(-1.,0.,0.));
#693=DIRECTION('ref_axis',(0.,-1.,0.));
#694=DIRECTION('',(0.,1.,0.));
#695=DIRECTION('',(0.,0.,1.));
#696=DIRECTION('center_axis',(0.,-1.,0.));
#697=DIRECTION('ref_axis',(1.,0.,0.));
#698=DIRECTION('',(-1.,0.,0.));
#699=DIRECTION('',(0.,0.,1.));
#700=DIRECTION('center_axis',(0.,0.,1.));
#701=DIRECTION('ref_axis',(1.,0.,0.));
#702=DIRECTION('',(0.,-1.,0.));
#703=DIRECTION('center_axis',(0.,0.,-1.));
#704=DIRECTION('ref_axis',(1.,0.,0.));
#705=DIRECTION('center_axis',(0.,0.,-1.));
#706=DIRECTION('ref_axis',(1.,0.,0.));
#707=DIRECTION('center_axis',(0.,0.,-1.));
#708=DIRECTION('ref_axis',(1.,0.,0.));
#709=DIRECTION('',(0.,0.,-1.));
#710=DIRECTION('center_axis',(0.,0.,-1.));
#711=DIRECTION('ref_axis',(1.,0.,0.));
#712=DIRECTION('center_axis',(0.,0.,1.));
#713=DIRECTION('ref_axis',(1.,0.,0.));
#714=DIRECTION('center_axis',(0.,0.,1.));
#715=DIRECTION('ref_axis',(1.,0.,0.));
#716=DIRECTION('center_axis',(0.,0.,-1.));
#717=DIRECTION('ref_axis',(1.,0.,0.));
#718=DIRECTION('',(0.,0.,-1.));
#719=DIRECTION('center_axis',(0.,0.,-1.));
#720=DIRECTION('ref_axis',(1.,0.,0.));
#721=DIRECTION('center_axis',(0.,0.,1.));
#722=DIRECTION('ref_axis',(1.,0.,0.));
#723=DIRECTION('center_axis',(0.,0.,1.));
#724=DIRECTION('ref_axis',(1.,0.,0.));
#725=DIRECTION('center_axis',(0.,0.,-1.));
#726=DIRECTION('ref_axis',(1.,0.,0.));
#727=DIRECTION('',(0.,0.,-1.));
#728=DIRECTION('center_axis',(0.,0.,1.));
#729=DIRECTION('ref_axis',(1.,0.,0.));
#730=DIRECTION('center_axis',(0.,0.,-1.));
#731=DIRECTION('ref_axis',(1.,0.,0.));
#732=DIRECTION('',(0.,0.,-1.));
#733=DIRECTION('center_axis',(0.,0.,1.));
#734=DIRECTION('ref_axis',(1.,0.,0.));
#735=DIRECTION('center_axis',(-1.,0.,0.));
#736=DIRECTION('ref_axis',(0.,-1.,0.));
#737=DIRECTION('',(0.,1.,0.));
#738=DIRECTION('center_axis',(1.,0.,0.));
#739=DIRECTION('ref_axis',(0.,1.,0.));
#740=DIRECTION('',(0.,-1.,0.));
#741=DIRECTION('center_axis',(0.,0.,1.));
#742=DIRECTION('ref_axis',(1.,0.,0.));
#743=CARTESIAN_POINT('',(0.,0.,0.));
#744=CARTESIAN_POINT('Origin',(59.9999995827675,71.000000551343,3.));
#745=CARTESIAN_POINT('',(59.9999995827675,72.9999997317791,37.));
#746=CARTESIAN_POINT('',(62.000000923872,71.000000551343,37.));
#747=CARTESIAN_POINT('Origin',(59.9999995827675,71.000000551343,37.));
#748=CARTESIAN_POINT('',(61.9999995827675,71.000000551343,0.));
#749=CARTESIAN_POINT('',(61.9999995827675,71.000000551343,3.));
#750=CARTESIAN_POINT('',(59.9999995827675,73.000000551343,0.));
#751=CARTESIAN_POINT('Origin',(59.9999995827675,71.000000551343,0.));
#752=CARTESIAN_POINT('',(59.9999995827675,73.000000551343,3.));
#753=CARTESIAN_POINT('Origin',(17.000000923872,27.4999997317791,37.));
#754=CARTESIAN_POINT('',(-26.0000004172325,72.9999997317791,37.));
#755=CARTESIAN_POINT('',(62.000000923872,72.9999997317791,37.));
#756=CARTESIAN_POINT('',(-27.999999076128,71.000000551343,37.));
#757=CARTESIAN_POINT('Origin',(-26.0000004172325,71.000000551343,37.));
#758=CARTESIAN_POINT('',(-27.999999076128,60.9999997317791,37.));
#759=CARTESIAN_POINT('',(-27.999999076128,72.9999997317791,37.));
#760=CARTESIAN_POINT('',(-20.0000004172325,52.9999997317791,37.));
#761=CARTESIAN_POINT('Origin',(-20.0000004172325,60.9999997317791,37.));
#762=CARTESIAN_POINT('',(14.000000923872,52.9999997317791,37.));
#763=CARTESIAN_POINT('',(-27.999999076128,52.9999997317791,37.));
#764=CARTESIAN_POINT('',(22.000000923872,44.9999997317791,37.));
#765=CARTESIAN_POINT('Origin',(14.000000923872,44.9999997317791,37.));
#766=CARTESIAN_POINT('',(22.000000923872,9.9999997317791,37.));
#767=CARTESIAN_POINT('',(22.000000923872,-18.0000002682209,37.));
#768=CARTESIAN_POINT('',(14.000000923872,1.9999997317791,37.));
#769=CARTESIAN_POINT('Origin',(14.000000923872,9.9999997317791,37.));
#770=CARTESIAN_POINT('',(-20.0000004172325,1.9999997317791,37.));
#771=CARTESIAN_POINT('',(-27.999999076128,1.9999997317791,37.));
#772=CARTESIAN_POINT('',(-27.999999076128,-6.0000002682209,37.));
#773=CARTESIAN_POINT('Origin',(-20.0000004172325,-6.0000002682209,37.));
#774=CARTESIAN_POINT('',(-27.999999076128,-15.999999448657,37.));
#775=CARTESIAN_POINT('',(-27.999999076128,-18.0000002682209,37.));
#776=CARTESIAN_POINT('',(-26.0000004172325,-18.0000002682209,37.));
#777=CARTESIAN_POINT('Origin',(-26.0000004172325,-15.999999448657,37.));
#778=CARTESIAN_POINT('',(59.9999995827675,-18.0000002682209,37.));
#779=CARTESIAN_POINT('',(62.000000923872,-18.0000002682209,37.));
#780=CARTESIAN_POINT('',(62.000000923872,-15.999999448657,37.));
#781=CARTESIAN_POINT('Origin',(59.9999995827675,-15.999999448657,37.));
#782=CARTESIAN_POINT('',(62.000000923872,72.9999997317791,37.));
#783=CARTESIAN_POINT('Origin',(-28.0000004172325,73.000000551343,6.));
#784=CARTESIAN_POINT('',(-26.0000004172325,73.000000551343,0.));
#785=CARTESIAN_POINT('',(61.9999995827675,73.000000551343,0.));
#786=CARTESIAN_POINT('',(-26.0000004172325,73.000000551343,3.));
#787=CARTESIAN_POINT('Origin',(-26.0000004172325,71.000000551343,3.));
#788=CARTESIAN_POINT('',(-28.0000004172325,71.000000551343,0.));
#789=CARTESIAN_POINT('Origin',(-26.0000004172325,71.000000551343,0.));
#790=CARTESIAN_POINT('',(-28.0000004172325,71.000000551343,3.));
#791=CARTESIAN_POINT('Origin',(-26.0000004172325,-15.999999448657,3.));
#792=CARTESIAN_POINT('',(-28.0000004172325,-15.999999448657,0.));
#793=CARTESIAN_POINT('',(-28.0000004172325,-15.999999448657,3.));
#794=CARTESIAN_POINT('',(-26.0000004172325,-17.999999448657,0.));
#795=CARTESIAN_POINT('Origin',(-26.0000004172325,-15.999999448657,0.));
#796=CARTESIAN_POINT('',(-26.0000004172325,-17.999999448657,3.));
#797=CARTESIAN_POINT('Origin',(61.9999995827675,-17.999999448657,6.));
#798=CARTESIAN_POINT('',(59.9999995827675,-17.999999448657,0.));
#799=CARTESIAN_POINT('',(-28.0000004172325,-17.999999448657,0.));
#800=CARTESIAN_POINT('',(59.9999995827675,-17.999999448657,3.));
#801=CARTESIAN_POINT('Origin',(59.9999995827675,-15.999999448657,3.));
#802=CARTESIAN_POINT('',(61.9999995827675,-15.999999448657,0.));
#803=CARTESIAN_POINT('Origin',(59.9999995827675,-15.999999448657,0.));
#804=CARTESIAN_POINT('',(61.9999995827675,-15.999999448657,3.));
#805=CARTESIAN_POINT('Origin',(14.000000923872,44.9999997317791,33.));
#806=CARTESIAN_POINT('',(14.000000923872,52.9999997317791,33.));
#807=CARTESIAN_POINT('',(22.000000923872,44.9999997317791,33.));
#808=CARTESIAN_POINT('Origin',(14.000000923872,44.9999997317791,33.));
#809=CARTESIAN_POINT('',(22.000000923872,44.9999997317791,33.));
#810=CARTESIAN_POINT('',(14.000000923872,52.9999997317791,33.));
#811=CARTESIAN_POINT('Origin',(22.000000923872,52.9999997317791,33.));
#812=CARTESIAN_POINT('',(22.000000923872,9.9999997317791,33.));
#813=CARTESIAN_POINT('',(22.000000923872,-18.0000002682209,33.));
#814=CARTESIAN_POINT('',(22.000000923872,9.9999997317791,33.));
#815=CARTESIAN_POINT('Origin',(14.000000923872,9.9999997317791,33.));
#816=CARTESIAN_POINT('',(14.000000923872,1.9999997317791,33.));
#817=CARTESIAN_POINT('Origin',(14.000000923872,9.9999997317791,33.));
#818=CARTESIAN_POINT('',(14.000000923872,1.9999997317791,33.));
#819=CARTESIAN_POINT('Origin',(22.000000923872,1.9999997317791,33.));
#820=CARTESIAN_POINT('',(-20.0000004172325,1.9999997317791,33.));
#821=CARTESIAN_POINT('',(-27.999999076128,1.9999997317791,33.));
#822=CARTESIAN_POINT('',(-20.0000004172325,1.9999997317791,16.5));
#823=CARTESIAN_POINT('Origin',(-20.0000004172325,60.9999997317791,16.5));
#824=CARTESIAN_POINT('',(-27.999999076128,60.9999997317791,33.));
#825=CARTESIAN_POINT('',(-28.0000004172325,60.9999997317791,16.5));
#826=CARTESIAN_POINT('',(-20.0000004172325,52.9999997317791,33.));
#827=CARTESIAN_POINT('Origin',(-20.0000004172325,60.9999997317791,33.));
#828=CARTESIAN_POINT('',(-20.0000004172325,52.9999997317791,16.5));
#829=CARTESIAN_POINT('Origin',(-27.999999076128,52.9999997317791,33.));
#830=CARTESIAN_POINT('',(-27.999999076128,52.9999997317791,33.));
#831=CARTESIAN_POINT('Origin',(17.000000923872,27.4999997317791,33.));
#832=CARTESIAN_POINT('',(-28.000001385808,68.9999983683228,33.));
#833=CARTESIAN_POINT('',(-27.999999076128,72.9999997317791,33.));
#834=CARTESIAN_POINT('',(58.0000008642673,68.9999997317791,33.));
#835=CARTESIAN_POINT('',(-28.000001385808,68.9999983683228,33.));
#836=CARTESIAN_POINT('',(58.0000008642673,-14.0000002682209,33.));
#837=CARTESIAN_POINT('',(58.0000008642673,-14.0000002682209,33.));
#838=CARTESIAN_POINT('',(-27.999999076128,-14.0000002682209,33.));
#839=CARTESIAN_POINT('',(-27.999999076128,-14.0000002682209,33.));
#840=CARTESIAN_POINT('',(-27.999999076128,-6.0000002682209,33.));
#841=CARTESIAN_POINT('',(-27.999999076128,-18.0000002682209,33.));
#842=CARTESIAN_POINT('Origin',(-20.0000004172325,-6.0000002682209,33.));
#843=CARTESIAN_POINT('Origin',(-20.0000004172325,-6.0000002682209,16.5));
#844=CARTESIAN_POINT('',(-28.0000004172325,-6.0000002682209,16.5));
#845=CARTESIAN_POINT('Origin',(58.0000008642673,-14.0000002682209,6.));
#846=CARTESIAN_POINT('',(-27.999999076128,-14.0000002682209,6.));
#847=CARTESIAN_POINT('',(58.0000008642673,-14.0000002682209,6.));
#848=CARTESIAN_POINT('',(37.5000002235174,-14.0000002682209,6.));
#849=CARTESIAN_POINT('',(-27.999999076128,-14.0000002682209,6.));
#850=CARTESIAN_POINT('',(58.0000008642673,-14.0000002682209,6.));
#851=CARTESIAN_POINT('Origin',(58.0000008642673,68.9999997317791,6.));
#852=CARTESIAN_POINT('',(58.0000008642673,68.9999997317791,6.));
#853=CARTESIAN_POINT('',(58.0000008642673,48.250000141561,6.));
#854=CARTESIAN_POINT('',(58.0000008642673,68.9999997317791,6.));
#855=CARTESIAN_POINT('Origin',(-28.000001385808,68.9999983683228,6.));
#856=CARTESIAN_POINT('',(-28.000001385808,68.9999983683228,6.));
#857=CARTESIAN_POINT('',(-5.50000090152025,68.9999983683228,6.));
#858=CARTESIAN_POINT('',(-28.000001385808,68.9999983683228,6.));
#859=CARTESIAN_POINT('Origin',(16.9999995827675,27.500000551343,6.));
#860=CARTESIAN_POINT('',(-28.0000004172325,73.000000551343,6.));
#861=CARTESIAN_POINT('',(-16.9000001192093,27.5000004097819,6.));
#862=CARTESIAN_POINT('Origin',(-8.00000011920929,27.5000004097819,6.));
#863=CARTESIAN_POINT('',(33.1000006258488,27.5000004097819,6.));
#864=CARTESIAN_POINT('Origin',(42.0000006258488,27.5000004097819,6.));
#865=CARTESIAN_POINT('Origin',(42.0000006258488,27.5000004097819,6.));
#866=CARTESIAN_POINT('',(33.1000006258488,27.5000004097819,3.));
#867=CARTESIAN_POINT('',(33.1000006258488,27.5000004097819,6.));
#868=CARTESIAN_POINT('Origin',(42.0000006258488,27.5000004097819,3.));
#869=CARTESIAN_POINT('Origin',(42.0000006258488,27.5000004097819,3.));
#870=CARTESIAN_POINT('',(38.3500006258488,27.5000004097819,3.));
#871=CARTESIAN_POINT('Origin',(42.0000006258488,27.5000004097819,3.));
#872=CARTESIAN_POINT('Origin',(-8.00000011920929,27.5000004097819,6.));
#873=CARTESIAN_POINT('',(-16.9000001192093,27.5000004097819,3.));
#874=CARTESIAN_POINT('',(-16.9000001192093,27.5000004097819,6.));
#875=CARTESIAN_POINT('Origin',(-8.00000011920929,27.5000004097819,3.));
#876=CARTESIAN_POINT('Origin',(-8.00000011920929,27.5000004097819,3.));
#877=CARTESIAN_POINT('',(-11.6500001192093,27.5000004097819,3.));
#878=CARTESIAN_POINT('Origin',(-8.00000011920929,27.5000004097819,3.));
#879=CARTESIAN_POINT('Origin',(42.0000006258488,27.5000004097819,6.));
#880=CARTESIAN_POINT('',(38.3500006258488,27.5000004097819,0.));
#881=CARTESIAN_POINT('',(38.3500006258488,27.5000004097819,6.));
#882=CARTESIAN_POINT('Origin',(42.0000006258488,27.5000004097819,0.));
#883=CARTESIAN_POINT('Origin',(-8.00000011920929,27.5000004097819,6.));
#884=CARTESIAN_POINT('',(-11.6500001192093,27.5000004097819,0.));
#885=CARTESIAN_POINT('',(-11.6500001192093,27.5000004097819,6.));
#886=CARTESIAN_POINT('Origin',(-8.00000011920929,27.5000004097819,0.));
#887=CARTESIAN_POINT('Origin',(-28.0000004172325,37.000000551343,0.));
#888=CARTESIAN_POINT('',(-28.0000004172325,73.000000551343,0.));
#889=CARTESIAN_POINT('Origin',(61.9999995827675,18.000000551343,0.));
#890=CARTESIAN_POINT('',(61.9999995827675,-17.999999448657,0.));
#891=CARTESIAN_POINT('Origin',(16.9999995827675,27.500000551343,0.));
#892=UNCERTAINTY_MEASURE_WITH_UNIT(LENGTH_MEASURE(0.01),#896,
'DISTANCE_ACCURACY_VALUE',
'Maximum model space distance between geometric entities at asserted c
onnectivities');
#893=UNCERTAINTY_MEASURE_WITH_UNIT(LENGTH_MEASURE(0.01),#896,
'DISTANCE_ACCURACY_VALUE',
'Maximum model space distance between geometric entities at asserted c
onnectivities');
#894=(
GEOMETRIC_REPRESENTATION_CONTEXT(3)
GLOBAL_UNCERTAINTY_ASSIGNED_CONTEXT((#892))
GLOBAL_UNIT_ASSIGNED_CONTEXT((#896,#898,#899))
REPRESENTATION_CONTEXT('','3D')
);
#895=(
GEOMETRIC_REPRESENTATION_CONTEXT(3)
GLOBAL_UNCERTAINTY_ASSIGNED_CONTEXT((#893))
GLOBAL_UNIT_ASSIGNED_CONTEXT((#896,#898,#899))
REPRESENTATION_CONTEXT('','3D')
);
#896=(
LENGTH_UNIT()
NAMED_UNIT(*)
SI_UNIT(.MILLI.,.METRE.)
);
#897=(
LENGTH_UNIT()
NAMED_UNIT(*)
SI_UNIT($,.METRE.)
);
#898=(
NAMED_UNIT(*)
PLANE_ANGLE_UNIT()
SI_UNIT($,.RADIAN.)
);
#899=(
NAMED_UNIT(*)
SI_UNIT($,.STERADIAN.)
SOLID_ANGLE_UNIT()
);
#900=SHAPE_DEFINITION_REPRESENTATION(#901,#902);
#901=PRODUCT_DEFINITION_SHAPE('',$,#904);
#902=SHAPE_REPRESENTATION('',(#536),#894);
#903=PRODUCT_DEFINITION_CONTEXT('part definition',#908,'design');
#904=PRODUCT_DEFINITION('2026-08-10-19-56-16-923','(Unsaved)',#905,#903);
#905=PRODUCT_DEFINITION_FORMATION('',$,#910);
#906=PRODUCT_RELATED_PRODUCT_CATEGORY('(Unsaved)','(Unsaved)',(#910));
#907=APPLICATION_PROTOCOL_DEFINITION('international standard',
'automotive_design',2009,#908);
#908=APPLICATION_CONTEXT(
'Core Data for Automotive Mechanical Design Process');
#909=PRODUCT_CONTEXT('part definition',#908,'mechanical');
#910=PRODUCT('2026-08-10-19-56-16-923','(Unsaved)',$,(#909));
#911=PRESENTATION_STYLE_ASSIGNMENT((#912));
#912=SURFACE_STYLE_USAGE(.BOTH.,#913);
#913=SURFACE_SIDE_STYLE('',(#914));
#914=SURFACE_STYLE_FILL_AREA(#915);
#915=FILL_AREA_STYLE('Steel - Satin',(#916));
#916=FILL_AREA_STYLE_COLOUR('Steel - Satin',#917);
#917=COLOUR_RGB('Steel - Satin',0.627450980392157,0.627450980392157,0.627450980392157);
ENDSEC;
END-ISO-10303-21;
