ISO-10303-21;
HEADER;
/* Generated by software containing ST-Developer
 * from STEP Tools, Inc. (www.steptools.com) 
 */

FILE_DESCRIPTION(
/* description */ (''),
/* implementation_level */ '2;1');

FILE_NAME(
/* name */ 'toteRack.step',
/* time_stamp */ '2026-08-10T20:45:16+10:00',
/* author */ (''),
/* organization */ (''),
/* preprocessor_version */ 'ST-DEVELOPER v20.1',
/* originating_system */ 'Autodesk Translation Framework v14.24.0.0',
/* authorisation */ '');

FILE_SCHEMA (('AUTOMOTIVE_DESIGN { 1 0 10303 214 3 1 1 }'));
ENDSEC;

DATA;
#10=MECHANICAL_DESIGN_GEOMETRIC_PRESENTATION_REPRESENTATION('',(#13),#803);
#11=SHAPE_REPRESENTATION_RELATIONSHIP('SRR','None',#810,#12);
#12=ADVANCED_BREP_SHAPE_REPRESENTATION('',(#14),#802);
#13=STYLED_ITEM('',(#819),#14);
#14=MANIFOLD_SOLID_BREP('Body1',#477);
#15=FACE_BOUND('',#84,.T.);
#16=FACE_BOUND('',#87,.T.);
#17=FACE_BOUND('',#93,.T.);
#18=FACE_BOUND('',#94,.T.);
#19=FACE_BOUND('',#101,.T.);
#20=FACE_BOUND('',#102,.T.);
#21=CIRCLE('',#503,8.90000000000001);
#22=CIRCLE('',#504,8.90000000000001);
#23=CIRCLE('',#506,3.65);
#24=CIRCLE('',#508,8.9);
#25=CIRCLE('',#509,8.9);
#26=CIRCLE('',#511,3.65);
#27=CIRCLE('',#513,3.65);
#28=CIRCLE('',#515,3.65);
#29=CIRCLE('',#517,7.);
#30=CIRCLE('',#518,7.);
#31=CIRCLE('',#521,7.);
#32=CIRCLE('',#522,7.);
#33=CIRCLE('',#523,7.);
#34=CIRCLE('',#525,7.);
#35=CIRCLE('',#528,7.);
#36=CIRCLE('',#531,7.);
#37=CYLINDRICAL_SURFACE('',#502,8.90000000000001);
#38=CYLINDRICAL_SURFACE('',#507,8.9);
#39=CYLINDRICAL_SURFACE('',#512,3.65);
#40=CYLINDRICAL_SURFACE('',#514,3.65);
#41=CYLINDRICAL_SURFACE('',#516,7.);
#42=CYLINDRICAL_SURFACE('',#524,7.);
#43=CYLINDRICAL_SURFACE('',#527,7.);
#44=CYLINDRICAL_SURFACE('',#530,7.);
#45=FACE_OUTER_BOUND('',#71,.T.);
#46=FACE_OUTER_BOUND('',#72,.T.);
#47=FACE_OUTER_BOUND('',#73,.T.);
#48=FACE_OUTER_BOUND('',#74,.T.);
#49=FACE_OUTER_BOUND('',#75,.T.);
#50=FACE_OUTER_BOUND('',#76,.T.);
#51=FACE_OUTER_BOUND('',#77,.T.);
#52=FACE_OUTER_BOUND('',#78,.T.);
#53=FACE_OUTER_BOUND('',#79,.T.);
#54=FACE_OUTER_BOUND('',#80,.T.);
#55=FACE_OUTER_BOUND('',#81,.T.);
#56=FACE_OUTER_BOUND('',#82,.T.);
#57=FACE_OUTER_BOUND('',#83,.T.);
#58=FACE_OUTER_BOUND('',#85,.T.);
#59=FACE_OUTER_BOUND('',#86,.T.);
#60=FACE_OUTER_BOUND('',#88,.T.);
#61=FACE_OUTER_BOUND('',#89,.T.);
#62=FACE_OUTER_BOUND('',#90,.T.);
#63=FACE_OUTER_BOUND('',#91,.T.);
#64=FACE_OUTER_BOUND('',#92,.T.);
#65=FACE_OUTER_BOUND('',#95,.T.);
#66=FACE_OUTER_BOUND('',#96,.T.);
#67=FACE_OUTER_BOUND('',#97,.T.);
#68=FACE_OUTER_BOUND('',#98,.T.);
#69=FACE_OUTER_BOUND('',#99,.T.);
#70=FACE_OUTER_BOUND('',#100,.T.);
#71=EDGE_LOOP('',(#305,#306,#307,#308));
#72=EDGE_LOOP('',(#309,#310,#311,#312));
#73=EDGE_LOOP('',(#313,#314,#315,#316));
#74=EDGE_LOOP('',(#317,#318,#319,#320));
#75=EDGE_LOOP('',(#321,#322,#323,#324));
#76=EDGE_LOOP('',(#325,#326,#327,#328));
#77=EDGE_LOOP('',(#329,#330,#331,#332));
#78=EDGE_LOOP('',(#333,#334,#335,#336,#337,#338,#339,#340,#341,#342,#343));
#79=EDGE_LOOP('',(#344,#345,#346,#347));
#80=EDGE_LOOP('',(#348,#349,#350,#351,#352,#353,#354,#355,#356,#357,#358));
#81=EDGE_LOOP('',(#359,#360,#361,#362));
#82=EDGE_LOOP('',(#363,#364,#365,#366));
#83=EDGE_LOOP('',(#367));
#84=EDGE_LOOP('',(#368));
#85=EDGE_LOOP('',(#369,#370,#371,#372));
#86=EDGE_LOOP('',(#373));
#87=EDGE_LOOP('',(#374));
#88=EDGE_LOOP('',(#375,#376,#377,#378));
#89=EDGE_LOOP('',(#379,#380,#381,#382));
#90=EDGE_LOOP('',(#383,#384,#385,#386));
#91=EDGE_LOOP('',(#387,#388,#389,#390));
#92=EDGE_LOOP('',(#391,#392,#393,#394,#395,#396,#397,#398,#399,#400));
#93=EDGE_LOOP('',(#401));
#94=EDGE_LOOP('',(#402));
#95=EDGE_LOOP('',(#403,#404,#405,#406));
#96=EDGE_LOOP('',(#407,#408,#409,#410));
#97=EDGE_LOOP('',(#411,#412,#413,#414));
#98=EDGE_LOOP('',(#415,#416,#417,#418));
#99=EDGE_LOOP('',(#419,#420,#421,#422));
#100=EDGE_LOOP('',(#423,#424,#425,#426,#427,#428,#429,#430));
#101=EDGE_LOOP('',(#431));
#102=EDGE_LOOP('',(#432));
#103=LINE('',#671,#151);
#104=LINE('',#673,#152);
#105=LINE('',#675,#153);
#106=LINE('',#676,#154);
#107=LINE('',#680,#155);
#108=LINE('',#682,#156);
#109=LINE('',#684,#157);
#110=LINE('',#685,#158);
#111=LINE('',#687,#159);
#112=LINE('',#688,#160);
#113=LINE('',#691,#161);
#114=LINE('',#693,#162);
#115=LINE('',#694,#163);
#116=LINE('',#697,#164);
#117=LINE('',#699,#165);
#118=LINE('',#700,#166);
#119=LINE('',#704,#167);
#120=LINE('',#706,#168);
#121=LINE('',#708,#169);
#122=LINE('',#709,#170);
#123=LINE('',#711,#171);
#124=LINE('',#712,#172);
#125=LINE('',#715,#173);
#126=LINE('',#717,#174);
#127=LINE('',#719,#175);
#128=LINE('',#720,#176);
#129=LINE('',#723,#177);
#130=LINE('',#725,#178);
#131=LINE('',#726,#179);
#132=LINE('',#729,#180);
#133=LINE('',#730,#181);
#134=LINE('',#731,#182);
#135=LINE('',#737,#183);
#136=LINE('',#746,#184);
#137=LINE('',#753,#185);
#138=LINE('',#757,#186);
#139=LINE('',#764,#187);
#140=LINE('',#767,#188);
#141=LINE('',#769,#189);
#142=LINE('',#770,#190);
#143=LINE('',#775,#191);
#144=LINE('',#779,#192);
#145=LINE('',#784,#193);
#146=LINE('',#787,#194);
#147=LINE('',#788,#195);
#148=LINE('',#792,#196);
#149=LINE('',#795,#197);
#150=LINE('',#796,#198);
#151=VECTOR('',#537,10.);
#152=VECTOR('',#538,10.);
#153=VECTOR('',#539,10.);
#154=VECTOR('',#540,10.);
#155=VECTOR('',#543,10.);
#156=VECTOR('',#544,10.);
#157=VECTOR('',#545,10.);
#158=VECTOR('',#546,10.);
#159=VECTOR('',#549,10.);
#160=VECTOR('',#550,10.);
#161=VECTOR('',#553,10.);
#162=VECTOR('',#554,10.);
#163=VECTOR('',#555,10.);
#164=VECTOR('',#558,10.);
#165=VECTOR('',#559,10.);
#166=VECTOR('',#560,10.);
#167=VECTOR('',#563,10.);
#168=VECTOR('',#564,10.);
#169=VECTOR('',#565,10.);
#170=VECTOR('',#566,10.);
#171=VECTOR('',#569,10.);
#172=VECTOR('',#570,10.);
#173=VECTOR('',#573,10.);
#174=VECTOR('',#574,10.);
#175=VECTOR('',#575,10.);
#176=VECTOR('',#576,10.);
#177=VECTOR('',#579,10.);
#178=VECTOR('',#580,10.);
#179=VECTOR('',#581,10.);
#180=VECTOR('',#584,10.);
#181=VECTOR('',#585,10.);
#182=VECTOR('',#586,10.);
#183=VECTOR('',#593,8.90000000000001);
#184=VECTOR('',#604,8.9);
#185=VECTOR('',#613,3.65);
#186=VECTOR('',#618,3.65);
#187=VECTOR('',#627,10.);
#188=VECTOR('',#630,10.);
#189=VECTOR('',#631,10.);
#190=VECTOR('',#632,10.);
#191=VECTOR('',#637,10.);
#192=VECTOR('',#640,10.);
#193=VECTOR('',#647,10.);
#194=VECTOR('',#650,10.);
#195=VECTOR('',#651,10.);
#196=VECTOR('',#656,10.);
#197=VECTOR('',#659,10.);
#198=VECTOR('',#660,10.);
#199=VERTEX_POINT('',#669);
#200=VERTEX_POINT('',#670);
#201=VERTEX_POINT('',#672);
#202=VERTEX_POINT('',#674);
#203=VERTEX_POINT('',#678);
#204=VERTEX_POINT('',#679);
#205=VERTEX_POINT('',#681);
#206=VERTEX_POINT('',#683);
#207=VERTEX_POINT('',#690);
#208=VERTEX_POINT('',#692);
#209=VERTEX_POINT('',#696);
#210=VERTEX_POINT('',#698);
#211=VERTEX_POINT('',#702);
#212=VERTEX_POINT('',#703);
#213=VERTEX_POINT('',#705);
#214=VERTEX_POINT('',#707);
#215=VERTEX_POINT('',#714);
#216=VERTEX_POINT('',#716);
#217=VERTEX_POINT('',#718);
#218=VERTEX_POINT('',#722);
#219=VERTEX_POINT('',#724);
#220=VERTEX_POINT('',#728);
#221=VERTEX_POINT('',#734);
#222=VERTEX_POINT('',#736);
#223=VERTEX_POINT('',#740);
#224=VERTEX_POINT('',#743);
#225=VERTEX_POINT('',#745);
#226=VERTEX_POINT('',#749);
#227=VERTEX_POINT('',#752);
#228=VERTEX_POINT('',#756);
#229=VERTEX_POINT('',#760);
#230=VERTEX_POINT('',#762);
#231=VERTEX_POINT('',#766);
#232=VERTEX_POINT('',#768);
#233=VERTEX_POINT('',#772);
#234=VERTEX_POINT('',#774);
#235=VERTEX_POINT('',#776);
#236=VERTEX_POINT('',#778);
#237=VERTEX_POINT('',#782);
#238=VERTEX_POINT('',#786);
#239=VERTEX_POINT('',#790);
#240=VERTEX_POINT('',#794);
#241=EDGE_CURVE('',#199,#200,#103,.T.);
#242=EDGE_CURVE('',#199,#201,#104,.T.);
#243=EDGE_CURVE('',#202,#201,#105,.T.);
#244=EDGE_CURVE('',#200,#202,#106,.T.);
#245=EDGE_CURVE('',#203,#204,#107,.T.);
#246=EDGE_CURVE('',#205,#203,#108,.T.);
#247=EDGE_CURVE('',#206,#205,#109,.T.);
#248=EDGE_CURVE('',#204,#206,#110,.T.);
#249=EDGE_CURVE('',#204,#199,#111,.T.);
#250=EDGE_CURVE('',#201,#206,#112,.T.);
#251=EDGE_CURVE('',#207,#202,#113,.T.);
#252=EDGE_CURVE('',#207,#208,#114,.T.);
#253=EDGE_CURVE('',#208,#200,#115,.T.);
#254=EDGE_CURVE('',#203,#209,#116,.T.);
#255=EDGE_CURVE('',#209,#210,#117,.T.);
#256=EDGE_CURVE('',#205,#210,#118,.T.);
#257=EDGE_CURVE('',#211,#212,#119,.T.);
#258=EDGE_CURVE('',#211,#213,#120,.T.);
#259=EDGE_CURVE('',#214,#213,#121,.T.);
#260=EDGE_CURVE('',#212,#214,#122,.T.);
#261=EDGE_CURVE('',#212,#209,#123,.T.);
#262=EDGE_CURVE('',#210,#214,#124,.T.);
#263=EDGE_CURVE('',#215,#207,#125,.T.);
#264=EDGE_CURVE('',#216,#213,#126,.T.);
#265=EDGE_CURVE('',#217,#216,#127,.T.);
#266=EDGE_CURVE('',#215,#217,#128,.T.);
#267=EDGE_CURVE('',#217,#218,#129,.T.);
#268=EDGE_CURVE('',#219,#216,#130,.T.);
#269=EDGE_CURVE('',#218,#219,#131,.T.);
#270=EDGE_CURVE('',#208,#220,#132,.T.);
#271=EDGE_CURVE('',#218,#220,#133,.T.);
#272=EDGE_CURVE('',#219,#211,#134,.T.);
#273=EDGE_CURVE('',#221,#221,#21,.T.);
#274=EDGE_CURVE('',#221,#222,#135,.T.);
#275=EDGE_CURVE('',#222,#222,#22,.T.);
#276=EDGE_CURVE('',#223,#223,#23,.T.);
#277=EDGE_CURVE('',#224,#224,#24,.T.);
#278=EDGE_CURVE('',#224,#225,#136,.T.);
#279=EDGE_CURVE('',#225,#225,#25,.T.);
#280=EDGE_CURVE('',#226,#226,#26,.T.);
#281=EDGE_CURVE('',#223,#227,#137,.T.);
#282=EDGE_CURVE('',#227,#227,#27,.T.);
#283=EDGE_CURVE('',#226,#228,#138,.T.);
#284=EDGE_CURVE('',#228,#228,#28,.T.);
#285=EDGE_CURVE('',#229,#218,#29,.T.);
#286=EDGE_CURVE('',#220,#230,#30,.T.);
#287=EDGE_CURVE('',#230,#229,#139,.T.);
#288=EDGE_CURVE('',#231,#230,#140,.T.);
#289=EDGE_CURVE('',#232,#231,#141,.T.);
#290=EDGE_CURVE('',#229,#232,#142,.T.);
#291=EDGE_CURVE('',#233,#215,#31,.T.);
#292=EDGE_CURVE('',#233,#234,#143,.T.);
#293=EDGE_CURVE('',#235,#234,#32,.T.);
#294=EDGE_CURVE('',#235,#236,#144,.T.);
#295=EDGE_CURVE('',#231,#236,#33,.T.);
#296=EDGE_CURVE('',#237,#232,#34,.T.);
#297=EDGE_CURVE('',#236,#237,#145,.T.);
#298=EDGE_CURVE('',#238,#235,#146,.T.);
#299=EDGE_CURVE('',#237,#238,#147,.T.);
#300=EDGE_CURVE('',#239,#238,#35,.T.);
#301=EDGE_CURVE('',#234,#239,#148,.T.);
#302=EDGE_CURVE('',#240,#233,#149,.T.);
#303=EDGE_CURVE('',#239,#240,#150,.T.);
#304=EDGE_CURVE('',#217,#240,#36,.T.);
#305=ORIENTED_EDGE('',*,*,#241,.F.);
#306=ORIENTED_EDGE('',*,*,#242,.T.);
#307=ORIENTED_EDGE('',*,*,#243,.F.);
#308=ORIENTED_EDGE('',*,*,#244,.F.);
#309=ORIENTED_EDGE('',*,*,#245,.F.);
#310=ORIENTED_EDGE('',*,*,#246,.F.);
#311=ORIENTED_EDGE('',*,*,#247,.F.);
#312=ORIENTED_EDGE('',*,*,#248,.F.);
#313=ORIENTED_EDGE('',*,*,#249,.F.);
#314=ORIENTED_EDGE('',*,*,#248,.T.);
#315=ORIENTED_EDGE('',*,*,#250,.F.);
#316=ORIENTED_EDGE('',*,*,#242,.F.);
#317=ORIENTED_EDGE('',*,*,#244,.T.);
#318=ORIENTED_EDGE('',*,*,#251,.F.);
#319=ORIENTED_EDGE('',*,*,#252,.T.);
#320=ORIENTED_EDGE('',*,*,#253,.T.);
#321=ORIENTED_EDGE('',*,*,#246,.T.);
#322=ORIENTED_EDGE('',*,*,#254,.T.);
#323=ORIENTED_EDGE('',*,*,#255,.T.);
#324=ORIENTED_EDGE('',*,*,#256,.F.);
#325=ORIENTED_EDGE('',*,*,#257,.F.);
#326=ORIENTED_EDGE('',*,*,#258,.T.);
#327=ORIENTED_EDGE('',*,*,#259,.F.);
#328=ORIENTED_EDGE('',*,*,#260,.F.);
#329=ORIENTED_EDGE('',*,*,#261,.F.);
#330=ORIENTED_EDGE('',*,*,#260,.T.);
#331=ORIENTED_EDGE('',*,*,#262,.F.);
#332=ORIENTED_EDGE('',*,*,#255,.F.);
#333=ORIENTED_EDGE('',*,*,#263,.T.);
#334=ORIENTED_EDGE('',*,*,#251,.T.);
#335=ORIENTED_EDGE('',*,*,#243,.T.);
#336=ORIENTED_EDGE('',*,*,#250,.T.);
#337=ORIENTED_EDGE('',*,*,#247,.T.);
#338=ORIENTED_EDGE('',*,*,#256,.T.);
#339=ORIENTED_EDGE('',*,*,#262,.T.);
#340=ORIENTED_EDGE('',*,*,#259,.T.);
#341=ORIENTED_EDGE('',*,*,#264,.F.);
#342=ORIENTED_EDGE('',*,*,#265,.F.);
#343=ORIENTED_EDGE('',*,*,#266,.F.);
#344=ORIENTED_EDGE('',*,*,#267,.F.);
#345=ORIENTED_EDGE('',*,*,#265,.T.);
#346=ORIENTED_EDGE('',*,*,#268,.F.);
#347=ORIENTED_EDGE('',*,*,#269,.F.);
#348=ORIENTED_EDGE('',*,*,#270,.T.);
#349=ORIENTED_EDGE('',*,*,#271,.F.);
#350=ORIENTED_EDGE('',*,*,#269,.T.);
#351=ORIENTED_EDGE('',*,*,#272,.T.);
#352=ORIENTED_EDGE('',*,*,#257,.T.);
#353=ORIENTED_EDGE('',*,*,#261,.T.);
#354=ORIENTED_EDGE('',*,*,#254,.F.);
#355=ORIENTED_EDGE('',*,*,#245,.T.);
#356=ORIENTED_EDGE('',*,*,#249,.T.);
#357=ORIENTED_EDGE('',*,*,#241,.T.);
#358=ORIENTED_EDGE('',*,*,#253,.F.);
#359=ORIENTED_EDGE('',*,*,#272,.F.);
#360=ORIENTED_EDGE('',*,*,#268,.T.);
#361=ORIENTED_EDGE('',*,*,#264,.T.);
#362=ORIENTED_EDGE('',*,*,#258,.F.);
#363=ORIENTED_EDGE('',*,*,#273,.F.);
#364=ORIENTED_EDGE('',*,*,#274,.T.);
#365=ORIENTED_EDGE('',*,*,#275,.T.);
#366=ORIENTED_EDGE('',*,*,#274,.F.);
#367=ORIENTED_EDGE('',*,*,#275,.F.);
#368=ORIENTED_EDGE('',*,*,#276,.F.);
#369=ORIENTED_EDGE('',*,*,#277,.F.);
#370=ORIENTED_EDGE('',*,*,#278,.T.);
#371=ORIENTED_EDGE('',*,*,#279,.T.);
#372=ORIENTED_EDGE('',*,*,#278,.F.);
#373=ORIENTED_EDGE('',*,*,#279,.F.);
#374=ORIENTED_EDGE('',*,*,#280,.F.);
#375=ORIENTED_EDGE('',*,*,#276,.T.);
#376=ORIENTED_EDGE('',*,*,#281,.T.);
#377=ORIENTED_EDGE('',*,*,#282,.F.);
#378=ORIENTED_EDGE('',*,*,#281,.F.);
#379=ORIENTED_EDGE('',*,*,#280,.T.);
#380=ORIENTED_EDGE('',*,*,#283,.T.);
#381=ORIENTED_EDGE('',*,*,#284,.F.);
#382=ORIENTED_EDGE('',*,*,#283,.F.);
#383=ORIENTED_EDGE('',*,*,#285,.T.);
#384=ORIENTED_EDGE('',*,*,#271,.T.);
#385=ORIENTED_EDGE('',*,*,#286,.T.);
#386=ORIENTED_EDGE('',*,*,#287,.T.);
#387=ORIENTED_EDGE('',*,*,#287,.F.);
#388=ORIENTED_EDGE('',*,*,#288,.F.);
#389=ORIENTED_EDGE('',*,*,#289,.F.);
#390=ORIENTED_EDGE('',*,*,#290,.F.);
#391=ORIENTED_EDGE('',*,*,#286,.F.);
#392=ORIENTED_EDGE('',*,*,#270,.F.);
#393=ORIENTED_EDGE('',*,*,#252,.F.);
#394=ORIENTED_EDGE('',*,*,#263,.F.);
#395=ORIENTED_EDGE('',*,*,#291,.F.);
#396=ORIENTED_EDGE('',*,*,#292,.T.);
#397=ORIENTED_EDGE('',*,*,#293,.F.);
#398=ORIENTED_EDGE('',*,*,#294,.T.);
#399=ORIENTED_EDGE('',*,*,#295,.F.);
#400=ORIENTED_EDGE('',*,*,#288,.T.);
#401=ORIENTED_EDGE('',*,*,#282,.T.);
#402=ORIENTED_EDGE('',*,*,#284,.T.);
#403=ORIENTED_EDGE('',*,*,#296,.T.);
#404=ORIENTED_EDGE('',*,*,#289,.T.);
#405=ORIENTED_EDGE('',*,*,#295,.T.);
#406=ORIENTED_EDGE('',*,*,#297,.T.);
#407=ORIENTED_EDGE('',*,*,#297,.F.);
#408=ORIENTED_EDGE('',*,*,#294,.F.);
#409=ORIENTED_EDGE('',*,*,#298,.F.);
#410=ORIENTED_EDGE('',*,*,#299,.F.);
#411=ORIENTED_EDGE('',*,*,#300,.T.);
#412=ORIENTED_EDGE('',*,*,#298,.T.);
#413=ORIENTED_EDGE('',*,*,#293,.T.);
#414=ORIENTED_EDGE('',*,*,#301,.T.);
#415=ORIENTED_EDGE('',*,*,#301,.F.);
#416=ORIENTED_EDGE('',*,*,#292,.F.);
#417=ORIENTED_EDGE('',*,*,#302,.F.);
#418=ORIENTED_EDGE('',*,*,#303,.F.);
#419=ORIENTED_EDGE('',*,*,#304,.T.);
#420=ORIENTED_EDGE('',*,*,#302,.T.);
#421=ORIENTED_EDGE('',*,*,#291,.T.);
#422=ORIENTED_EDGE('',*,*,#266,.T.);
#423=ORIENTED_EDGE('',*,*,#285,.F.);
#424=ORIENTED_EDGE('',*,*,#290,.T.);
#425=ORIENTED_EDGE('',*,*,#296,.F.);
#426=ORIENTED_EDGE('',*,*,#299,.T.);
#427=ORIENTED_EDGE('',*,*,#300,.F.);
#428=ORIENTED_EDGE('',*,*,#303,.T.);
#429=ORIENTED_EDGE('',*,*,#304,.F.);
#430=ORIENTED_EDGE('',*,*,#267,.T.);
#431=ORIENTED_EDGE('',*,*,#273,.T.);
#432=ORIENTED_EDGE('',*,*,#277,.T.);
#433=PLANE('',#491);
#434=PLANE('',#492);
#435=PLANE('',#493);
#436=PLANE('',#494);
#437=PLANE('',#495);
#438=PLANE('',#496);
#439=PLANE('',#497);
#440=PLANE('',#498);
#441=PLANE('',#499);
#442=PLANE('',#500);
#443=PLANE('',#501);
#444=PLANE('',#505);
#445=PLANE('',#510);
#446=PLANE('',#519);
#447=PLANE('',#520);
#448=PLANE('',#526);
#449=PLANE('',#529);
#450=PLANE('',#532);
#451=ADVANCED_FACE('',(#45),#433,.T.);
#452=ADVANCED_FACE('',(#46),#434,.T.);
#453=ADVANCED_FACE('',(#47),#435,.T.);
#454=ADVANCED_FACE('',(#48),#436,.T.);
#455=ADVANCED_FACE('',(#49),#437,.T.);
#456=ADVANCED_FACE('',(#50),#438,.T.);
#457=ADVANCED_FACE('',(#51),#439,.T.);
#458=ADVANCED_FACE('',(#52),#440,.T.);
#459=ADVANCED_FACE('',(#53),#441,.T.);
#460=ADVANCED_FACE('',(#54),#442,.T.);
#461=ADVANCED_FACE('',(#55),#443,.T.);
#462=ADVANCED_FACE('',(#56),#37,.F.);
#463=ADVANCED_FACE('',(#57,#15),#444,.T.);
#464=ADVANCED_FACE('',(#58),#38,.F.);
#465=ADVANCED_FACE('',(#59,#16),#445,.T.);
#466=ADVANCED_FACE('',(#60),#39,.F.);
#467=ADVANCED_FACE('',(#61),#40,.F.);
#468=ADVANCED_FACE('',(#62),#41,.T.);
#469=ADVANCED_FACE('',(#63),#446,.T.);
#470=ADVANCED_FACE('',(#64,#17,#18),#447,.F.);
#471=ADVANCED_FACE('',(#65),#42,.T.);
#472=ADVANCED_FACE('',(#66),#448,.T.);
#473=ADVANCED_FACE('',(#67),#43,.T.);
#474=ADVANCED_FACE('',(#68),#449,.T.);
#475=ADVANCED_FACE('',(#69),#44,.T.);
#476=ADVANCED_FACE('',(#70,#19,#20),#450,.T.);
#477=CLOSED_SHELL('',(#451,#452,#453,#454,#455,#456,#457,#458,#459,#460,
#461,#462,#463,#464,#465,#466,#467,#468,#469,#470,#471,#472,#473,#474,#475,
#476));
#478=DERIVED_UNIT_ELEMENT(#480,1.);
#479=DERIVED_UNIT_ELEMENT(#805,-3.);
#480=(
MASS_UNIT()
NAMED_UNIT(*)
SI_UNIT(.KILO.,.GRAM.)
);
#481=DERIVED_UNIT((#478,#479));
#482=MEASURE_REPRESENTATION_ITEM('density measure',
POSITIVE_RATIO_MEASURE(7850.),#481);
#483=PROPERTY_DEFINITION_REPRESENTATION(#488,#485);
#484=PROPERTY_DEFINITION_REPRESENTATION(#489,#486);
#485=REPRESENTATION('material name',(#487),#802);
#486=REPRESENTATION('density',(#482),#802);
#487=DESCRIPTIVE_REPRESENTATION_ITEM('Steel','Steel');
#488=PROPERTY_DEFINITION('material property','material name',#812);
#489=PROPERTY_DEFINITION('material property','density of part',#812);
#490=AXIS2_PLACEMENT_3D('',#667,#533,#534);
#491=AXIS2_PLACEMENT_3D('',#668,#535,#536);
#492=AXIS2_PLACEMENT_3D('',#677,#541,#542);
#493=AXIS2_PLACEMENT_3D('',#686,#547,#548);
#494=AXIS2_PLACEMENT_3D('',#689,#551,#552);
#495=AXIS2_PLACEMENT_3D('',#695,#556,#557);
#496=AXIS2_PLACEMENT_3D('',#701,#561,#562);
#497=AXIS2_PLACEMENT_3D('',#710,#567,#568);
#498=AXIS2_PLACEMENT_3D('',#713,#571,#572);
#499=AXIS2_PLACEMENT_3D('',#721,#577,#578);
#500=AXIS2_PLACEMENT_3D('',#727,#582,#583);
#501=AXIS2_PLACEMENT_3D('',#732,#587,#588);
#502=AXIS2_PLACEMENT_3D('',#733,#589,#590);
#503=AXIS2_PLACEMENT_3D('',#735,#591,#592);
#504=AXIS2_PLACEMENT_3D('',#738,#594,#595);
#505=AXIS2_PLACEMENT_3D('',#739,#596,#597);
#506=AXIS2_PLACEMENT_3D('',#741,#598,#599);
#507=AXIS2_PLACEMENT_3D('',#742,#600,#601);
#508=AXIS2_PLACEMENT_3D('',#744,#602,#603);
#509=AXIS2_PLACEMENT_3D('',#747,#605,#606);
#510=AXIS2_PLACEMENT_3D('',#748,#607,#608);
#511=AXIS2_PLACEMENT_3D('',#750,#609,#610);
#512=AXIS2_PLACEMENT_3D('',#751,#611,#612);
#513=AXIS2_PLACEMENT_3D('',#754,#614,#615);
#514=AXIS2_PLACEMENT_3D('',#755,#616,#617);
#515=AXIS2_PLACEMENT_3D('',#758,#619,#620);
#516=AXIS2_PLACEMENT_3D('',#759,#621,#622);
#517=AXIS2_PLACEMENT_3D('',#761,#623,#624);
#518=AXIS2_PLACEMENT_3D('',#763,#625,#626);
#519=AXIS2_PLACEMENT_3D('',#765,#628,#629);
#520=AXIS2_PLACEMENT_3D('',#771,#633,#634);
#521=AXIS2_PLACEMENT_3D('',#773,#635,#636);
#522=AXIS2_PLACEMENT_3D('',#777,#638,#639);
#523=AXIS2_PLACEMENT_3D('',#780,#641,#642);
#524=AXIS2_PLACEMENT_3D('',#781,#643,#644);
#525=AXIS2_PLACEMENT_3D('',#783,#645,#646);
#526=AXIS2_PLACEMENT_3D('',#785,#648,#649);
#527=AXIS2_PLACEMENT_3D('',#789,#652,#653);
#528=AXIS2_PLACEMENT_3D('',#791,#654,#655);
#529=AXIS2_PLACEMENT_3D('',#793,#657,#658);
#530=AXIS2_PLACEMENT_3D('',#797,#661,#662);
#531=AXIS2_PLACEMENT_3D('',#798,#663,#664);
#532=AXIS2_PLACEMENT_3D('',#799,#665,#666);
#533=DIRECTION('axis',(0.,0.,1.));
#534=DIRECTION('refdir',(1.,0.,0.));
#535=DIRECTION('center_axis',(0.,0.288096679542226,-0.957601327921356));
#536=DIRECTION('ref_axis',(0.,0.957601327921356,0.288096679542226));
#537=DIRECTION('',(0.,-0.957601327921356,-0.288096679542226));
#538=DIRECTION('',(1.,0.,0.));
#539=DIRECTION('',(0.,0.957601327921356,0.288096679542226));
#540=DIRECTION('',(1.,0.,0.));
#541=DIRECTION('center_axis',(0.,2.70930178292161E-9,1.));
#542=DIRECTION('ref_axis',(0.,-1.,2.70930178292161E-9));
#543=DIRECTION('',(0.,1.,-2.70930178292161E-9));
#544=DIRECTION('',(-1.,0.,0.));
#545=DIRECTION('',(0.,-1.,2.70930178292161E-9));
#546=DIRECTION('',(1.,0.,0.));
#547=DIRECTION('center_axis',(0.,1.,-2.70930074351079E-9));
#548=DIRECTION('ref_axis',(0.,2.70930074351079E-9,1.));
#549=DIRECTION('',(0.,-2.70930074351079E-9,-1.));
#550=DIRECTION('',(0.,2.70930074351079E-9,1.));
#551=DIRECTION('center_axis',(0.,1.,0.));
#552=DIRECTION('ref_axis',(-1.,0.,0.));
#553=DIRECTION('',(0.,0.,1.));
#554=DIRECTION('',(-1.,0.,0.));
#555=DIRECTION('',(0.,0.,1.));
#556=DIRECTION('center_axis',(0.,1.,0.));
#557=DIRECTION('ref_axis',(-1.,0.,0.));
#558=DIRECTION('',(0.,0.,1.));
#559=DIRECTION('',(1.,0.,0.));
#560=DIRECTION('',(0.,0.,1.));
#561=DIRECTION('center_axis',(0.,1.,0.));
#562=DIRECTION('ref_axis',(0.,0.,1.));
#563=DIRECTION('',(0.,0.,-1.));
#564=DIRECTION('',(1.,0.,0.));
#565=DIRECTION('',(0.,0.,1.));
#566=DIRECTION('',(1.,0.,0.));
#567=DIRECTION('center_axis',(0.,0.14834045581265,-0.988936352435937));
#568=DIRECTION('ref_axis',(0.,0.988936352435937,0.14834045581265));
#569=DIRECTION('',(0.,-0.988936352435937,-0.14834045581265));
#570=DIRECTION('',(0.,0.988936352435937,0.14834045581265));
#571=DIRECTION('center_axis',(1.,0.,0.));
#572=DIRECTION('ref_axis',(0.,1.,0.));
#573=DIRECTION('',(0.,1.,0.));
#574=DIRECTION('',(0.,1.,0.));
#575=DIRECTION('',(0.,0.,1.));
#576=DIRECTION('',(0.,0.,1.));
#577=DIRECTION('center_axis',(0.,-1.,0.));
#578=DIRECTION('ref_axis',(1.,0.,0.));
#579=DIRECTION('',(-1.,0.,0.));
#580=DIRECTION('',(1.,0.,0.));
#581=DIRECTION('',(0.,0.,1.));
#582=DIRECTION('center_axis',(-1.,0.,0.));
#583=DIRECTION('ref_axis',(0.,-1.,0.));
#584=DIRECTION('',(0.,-1.,0.));
#585=DIRECTION('',(0.,0.,-1.));
#586=DIRECTION('',(0.,1.,0.));
#587=DIRECTION('center_axis',(0.,0.,1.));
#588=DIRECTION('ref_axis',(1.,0.,0.));
#589=DIRECTION('center_axis',(0.,0.,-1.));
#590=DIRECTION('ref_axis',(1.,0.,0.));
#591=DIRECTION('center_axis',(0.,0.,-1.));
#592=DIRECTION('ref_axis',(1.,0.,0.));
#593=DIRECTION('',(0.,0.,-1.));
#594=DIRECTION('center_axis',(0.,0.,-1.));
#595=DIRECTION('ref_axis',(1.,0.,0.));
#596=DIRECTION('center_axis',(0.,0.,1.));
#597=DIRECTION('ref_axis',(1.,0.,0.));
#598=DIRECTION('center_axis',(0.,0.,1.));
#599=DIRECTION('ref_axis',(1.,0.,0.));
#600=DIRECTION('center_axis',(0.,0.,-1.));
#601=DIRECTION('ref_axis',(1.,0.,0.));
#602=DIRECTION('center_axis',(0.,0.,-1.));
#603=DIRECTION('ref_axis',(1.,0.,0.));
#604=DIRECTION('',(0.,0.,-1.));
#605=DIRECTION('center_axis',(0.,0.,-1.));
#606=DIRECTION('ref_axis',(1.,0.,0.));
#607=DIRECTION('center_axis',(0.,0.,1.));
#608=DIRECTION('ref_axis',(1.,0.,0.));
#609=DIRECTION('center_axis',(0.,0.,1.));
#610=DIRECTION('ref_axis',(1.,0.,0.));
#611=DIRECTION('center_axis',(0.,0.,-1.));
#612=DIRECTION('ref_axis',(1.,0.,0.));
#613=DIRECTION('',(0.,0.,-1.));
#614=DIRECTION('center_axis',(0.,0.,1.));
#615=DIRECTION('ref_axis',(1.,0.,0.));
#616=DIRECTION('center_axis',(0.,0.,-1.));
#617=DIRECTION('ref_axis',(1.,0.,0.));
#618=DIRECTION('',(0.,0.,-1.));
#619=DIRECTION('center_axis',(0.,0.,1.));
#620=DIRECTION('ref_axis',(1.,0.,0.));
#621=DIRECTION('center_axis',(0.,0.,1.));
#622=DIRECTION('ref_axis',(-0.707106781186548,0.707106781186548,0.));
#623=DIRECTION('center_axis',(0.,0.,-1.));
#624=DIRECTION('ref_axis',(-0.707106781186548,0.707106781186548,0.));
#625=DIRECTION('center_axis',(0.,0.,1.));
#626=DIRECTION('ref_axis',(-0.707106781186548,0.707106781186548,0.));
#627=DIRECTION('',(0.,0.,1.));
#628=DIRECTION('center_axis',(-1.,0.,0.));
#629=DIRECTION('ref_axis',(0.,-1.,0.));
#630=DIRECTION('',(0.,1.,0.));
#631=DIRECTION('',(0.,0.,-1.));
#632=DIRECTION('',(0.,-1.,0.));
#633=DIRECTION('center_axis',(0.,0.,1.));
#634=DIRECTION('ref_axis',(1.,0.,0.));
#635=DIRECTION('center_axis',(0.,0.,1.));
#636=DIRECTION('ref_axis',(0.707106781186547,0.707106781186548,0.));
#637=DIRECTION('',(0.,-1.,0.));
#638=DIRECTION('center_axis',(0.,0.,1.));
#639=DIRECTION('ref_axis',(0.707106781186547,-0.707106781186548,0.));
#640=DIRECTION('',(-1.,0.,0.));
#641=DIRECTION('center_axis',(0.,0.,1.));
#642=DIRECTION('ref_axis',(-0.707106781186548,-0.707106781186548,0.));
#643=DIRECTION('center_axis',(0.,0.,1.));
#644=DIRECTION('ref_axis',(-0.707106781186548,-0.707106781186548,0.));
#645=DIRECTION('center_axis',(0.,0.,-1.));
#646=DIRECTION('ref_axis',(-0.707106781186548,-0.707106781186548,0.));
#647=DIRECTION('',(0.,0.,1.));
#648=DIRECTION('center_axis',(0.,-1.,0.));
#649=DIRECTION('ref_axis',(1.,0.,0.));
#650=DIRECTION('',(0.,0.,-1.));
#651=DIRECTION('',(1.,0.,0.));
#652=DIRECTION('center_axis',(0.,0.,1.));
#653=DIRECTION('ref_axis',(0.707106781186547,-0.707106781186548,0.));
#654=DIRECTION('center_axis',(0.,0.,-1.));
#655=DIRECTION('ref_axis',(0.707106781186547,-0.707106781186548,0.));
#656=DIRECTION('',(0.,0.,1.));
#657=DIRECTION('center_axis',(1.,0.,0.));
#658=DIRECTION('ref_axis',(0.,1.,0.));
#659=DIRECTION('',(0.,0.,-1.));
#660=DIRECTION('',(0.,1.,0.));
#661=DIRECTION('center_axis',(0.,0.,1.));
#662=DIRECTION('ref_axis',(0.707106781186547,0.707106781186548,0.));
#663=DIRECTION('center_axis',(0.,0.,-1.));
#664=DIRECTION('ref_axis',(0.707106781186547,0.707106781186548,0.));
#665=DIRECTION('center_axis',(0.,0.,1.));
#666=DIRECTION('ref_axis',(1.,0.,0.));
#667=CARTESIAN_POINT('',(0.,0.,0.));
#668=CARTESIAN_POINT('Origin',(-21.0000003129244,39.0000005603764,3.33424134195508));
#669=CARTESIAN_POINT('',(-21.0000003129244,49.0000005685274,6.34276557199576));
#670=CARTESIAN_POINT('',(-21.0000003129244,39.0000005603764,3.33424134195508));
#671=CARTESIAN_POINT('',(-21.0000003129244,49.0000005685274,6.34276557199576));
#672=CARTESIAN_POINT('',(54.9999996870756,49.0000005685274,6.34276557199576));
#673=CARTESIAN_POINT('',(-21.0000003129244,49.0000005685274,6.34276557199576));
#674=CARTESIAN_POINT('',(54.9999996870756,39.0000005603764,3.33424134195508));
#675=CARTESIAN_POINT('',(54.9999996870756,49.0000005685274,6.34276557199576));
#676=CARTESIAN_POINT('',(16.9999996870756,39.000000551343,3.33424133923734));
#677=CARTESIAN_POINT('Origin',(-21.0000003129244,49.0000005716627,7.50000013681975));
#678=CARTESIAN_POINT('',(-21.0000003129244,39.0000005716627,7.50000016391277));
#679=CARTESIAN_POINT('',(-21.0000003129244,49.0000005716627,7.50000013681975));
#680=CARTESIAN_POINT('',(-21.0000003129244,39.0000005716627,7.50000016391277));
#681=CARTESIAN_POINT('',(54.9999996870756,39.0000005716627,7.50000016391277));
#682=CARTESIAN_POINT('',(16.9999996870756,39.000000551343,7.50000016391277));
#683=CARTESIAN_POINT('',(54.9999996870756,49.0000005716627,7.50000013681975));
#684=CARTESIAN_POINT('',(54.9999996870756,39.0000005716627,7.50000016391277));
#685=CARTESIAN_POINT('',(-21.0000003129244,49.0000005716627,7.50000013681975));
#686=CARTESIAN_POINT('Origin',(-21.0000003129244,49.0000005685274,6.34276557199576));
#687=CARTESIAN_POINT('',(-21.0000003129244,49.0000005716627,7.50000013681975));
#688=CARTESIAN_POINT('',(54.9999996870756,49.0000005716627,7.50000013681975));
#689=CARTESIAN_POINT('Origin',(54.9999996870756,39.000000551343,0.));
#690=CARTESIAN_POINT('',(54.9999996870756,39.000000551343,0.));
#691=CARTESIAN_POINT('',(54.9999996870756,39.000000551343,0.));
#692=CARTESIAN_POINT('',(-21.0000003129244,39.000000551343,0.));
#693=CARTESIAN_POINT('',(54.9999996870756,39.000000551343,0.));
#694=CARTESIAN_POINT('',(-21.0000003129244,39.000000551343,0.));
#695=CARTESIAN_POINT('Origin',(54.9999996870756,39.000000551343,0.));
#696=CARTESIAN_POINT('',(-21.0000003129244,39.0000005811453,11.0000001639128));
#697=CARTESIAN_POINT('',(-21.0000003129244,39.000000551343,0.));
#698=CARTESIAN_POINT('',(54.9999996870756,39.0000005811453,11.0000001639128));
#699=CARTESIAN_POINT('',(16.9999996870756,39.000000551343,11.0000001594424));
#700=CARTESIAN_POINT('',(54.9999996870756,39.000000551343,0.));
#701=CARTESIAN_POINT('Origin',(-21.0000003129244,49.0000005811453,12.5000001937151));
#702=CARTESIAN_POINT('',(-21.0000003129244,49.0000005811453,13.0000001937151));
#703=CARTESIAN_POINT('',(-21.0000003129244,49.0000005811453,12.5000001937151));
#704=CARTESIAN_POINT('',(-21.0000003129244,49.0000005811453,13.0000001937151));
#705=CARTESIAN_POINT('',(54.9999996870756,49.0000005811453,13.0000001937151));
#706=CARTESIAN_POINT('',(-21.0000003129244,49.0000005811453,13.0000001937151));
#707=CARTESIAN_POINT('',(54.9999996870756,49.0000005811453,12.5000001937151));
#708=CARTESIAN_POINT('',(54.9999996870756,49.0000005811453,13.0000001937151));
#709=CARTESIAN_POINT('',(-21.0000003129244,49.0000005811453,12.5000001937151));
#710=CARTESIAN_POINT('Origin',(-21.0000003129244,39.0000005811453,11.0000001639128));
#711=CARTESIAN_POINT('',(-21.0000003129244,49.0000005811453,12.5000001937151));
#712=CARTESIAN_POINT('',(54.9999996870756,49.0000005811453,12.5000001937151));
#713=CARTESIAN_POINT('Origin',(54.9999996870756,37.000000551343,0.));
#714=CARTESIAN_POINT('',(54.9999995827675,37.000000551343,0.));
#715=CARTESIAN_POINT('',(54.9999996870756,37.000000551343,0.));
#716=CARTESIAN_POINT('',(54.9999996870756,37.000000551343,13.));
#717=CARTESIAN_POINT('',(54.9999996870756,37.000000551343,13.));
#718=CARTESIAN_POINT('',(54.9999995827675,37.000000551343,6.));
#719=CARTESIAN_POINT('',(54.9999996870756,37.000000551343,0.));
#720=CARTESIAN_POINT('',(54.9999995827675,37.000000551343,0.));
#721=CARTESIAN_POINT('Origin',(-21.0000003129244,37.000000551343,0.));
#722=CARTESIAN_POINT('',(-21.0000004172325,37.000000551343,6.));
#723=CARTESIAN_POINT('',(-28.0000004172325,37.000000551343,6.));
#724=CARTESIAN_POINT('',(-21.0000003129244,37.000000551343,13.));
#725=CARTESIAN_POINT('',(-21.0000003129244,37.000000551343,13.));
#726=CARTESIAN_POINT('',(-21.0000003129244,37.000000551343,0.));
#727=CARTESIAN_POINT('Origin',(-21.0000003129244,39.000000551343,0.));
#728=CARTESIAN_POINT('',(-21.0000004172325,37.000000551343,0.));
#729=CARTESIAN_POINT('',(-21.0000003129244,39.000000551343,0.));
#730=CARTESIAN_POINT('',(-21.0000004172325,37.000000551343,0.));
#731=CARTESIAN_POINT('',(-21.0000003129244,39.0000005811453,13.0000001937151));
#732=CARTESIAN_POINT('Origin',(16.9999996870756,38.000000551343,13.));
#733=CARTESIAN_POINT('Origin',(42.0000006258488,27.5000004097819,6.));
#734=CARTESIAN_POINT('',(33.1000006258488,27.5000004097819,6.));
#735=CARTESIAN_POINT('Origin',(42.0000006258488,27.5000004097819,6.));
#736=CARTESIAN_POINT('',(33.1000006258488,27.5000004097819,3.));
#737=CARTESIAN_POINT('',(33.1000006258488,27.5000004097819,6.));
#738=CARTESIAN_POINT('Origin',(42.0000006258488,27.5000004097819,3.));
#739=CARTESIAN_POINT('Origin',(42.0000006258488,27.5000004097819,3.));
#740=CARTESIAN_POINT('',(38.3500006258488,27.5000004097819,3.));
#741=CARTESIAN_POINT('Origin',(42.0000006258488,27.5000004097819,3.));
#742=CARTESIAN_POINT('Origin',(-8.00000011920929,27.5000004097819,6.));
#743=CARTESIAN_POINT('',(-16.9000001192093,27.5000004097819,6.));
#744=CARTESIAN_POINT('Origin',(-8.00000011920929,27.5000004097819,6.));
#745=CARTESIAN_POINT('',(-16.9000001192093,27.5000004097819,3.));
#746=CARTESIAN_POINT('',(-16.9000001192093,27.5000004097819,6.));
#747=CARTESIAN_POINT('Origin',(-8.00000011920929,27.5000004097819,3.));
#748=CARTESIAN_POINT('Origin',(-8.00000011920929,27.5000004097819,3.));
#749=CARTESIAN_POINT('',(-11.6500001192093,27.5000004097819,3.));
#750=CARTESIAN_POINT('Origin',(-8.00000011920929,27.5000004097819,3.));
#751=CARTESIAN_POINT('Origin',(42.0000006258488,27.5000004097819,6.));
#752=CARTESIAN_POINT('',(38.3500006258488,27.5000004097819,0.));
#753=CARTESIAN_POINT('',(38.3500006258488,27.5000004097819,6.));
#754=CARTESIAN_POINT('Origin',(42.0000006258488,27.5000004097819,0.));
#755=CARTESIAN_POINT('Origin',(-8.00000011920929,27.5000004097819,6.));
#756=CARTESIAN_POINT('',(-11.6500001192093,27.5000004097819,0.));
#757=CARTESIAN_POINT('',(-11.6500001192093,27.5000004097819,6.));
#758=CARTESIAN_POINT('Origin',(-8.00000011920929,27.5000004097819,0.));
#759=CARTESIAN_POINT('Origin',(-21.0000004172325,30.000000551343,0.));
#760=CARTESIAN_POINT('',(-28.0000004172325,30.000000551343,6.));
#761=CARTESIAN_POINT('Origin',(-21.0000004172325,30.000000551343,6.));
#762=CARTESIAN_POINT('',(-28.0000004172325,30.000000551343,0.));
#763=CARTESIAN_POINT('Origin',(-21.0000004172325,30.000000551343,0.));
#764=CARTESIAN_POINT('',(-28.0000004172325,30.000000551343,0.));
#765=CARTESIAN_POINT('Origin',(-28.0000004172325,37.000000551343,0.));
#766=CARTESIAN_POINT('',(-28.0000004172325,25.000000551343,0.));
#767=CARTESIAN_POINT('',(-28.0000004172325,18.000000551343,0.));
#768=CARTESIAN_POINT('',(-28.0000004172325,25.000000551343,6.));
#769=CARTESIAN_POINT('',(-28.0000004172325,25.000000551343,0.));
#770=CARTESIAN_POINT('',(-28.0000004172325,18.000000551343,6.));
#771=CARTESIAN_POINT('Origin',(16.9999995827675,27.500000551343,0.));
#772=CARTESIAN_POINT('',(61.9999995827675,30.000000551343,0.));
#773=CARTESIAN_POINT('Origin',(54.9999995827675,30.000000551343,0.));
#774=CARTESIAN_POINT('',(61.9999995827675,25.000000551343,0.));
#775=CARTESIAN_POINT('',(61.9999995827675,37.000000551343,0.));
#776=CARTESIAN_POINT('',(54.9999995827675,18.000000551343,0.));
#777=CARTESIAN_POINT('Origin',(54.9999995827675,25.000000551343,0.));
#778=CARTESIAN_POINT('',(-21.0000004172325,18.000000551343,0.));
#779=CARTESIAN_POINT('',(61.9999995827675,18.000000551343,0.));
#780=CARTESIAN_POINT('Origin',(-21.0000004172325,25.000000551343,0.));
#781=CARTESIAN_POINT('Origin',(-21.0000004172325,25.000000551343,0.));
#782=CARTESIAN_POINT('',(-21.0000004172325,18.000000551343,6.));
#783=CARTESIAN_POINT('Origin',(-21.0000004172325,25.000000551343,6.));
#784=CARTESIAN_POINT('',(-21.0000004172325,18.000000551343,0.));
#785=CARTESIAN_POINT('Origin',(-28.0000004172325,18.000000551343,0.));
#786=CARTESIAN_POINT('',(54.9999995827675,18.000000551343,6.));
#787=CARTESIAN_POINT('',(54.9999995827675,18.000000551343,0.));
#788=CARTESIAN_POINT('',(61.9999995827675,18.000000551343,6.));
#789=CARTESIAN_POINT('Origin',(54.9999995827675,25.000000551343,0.));
#790=CARTESIAN_POINT('',(61.9999995827675,25.000000551343,6.));
#791=CARTESIAN_POINT('Origin',(54.9999995827675,25.000000551343,6.));
#792=CARTESIAN_POINT('',(61.9999995827675,25.000000551343,0.));
#793=CARTESIAN_POINT('Origin',(61.9999995827675,18.000000551343,0.));
#794=CARTESIAN_POINT('',(61.9999995827675,30.000000551343,6.));
#795=CARTESIAN_POINT('',(61.9999995827675,30.000000551343,0.));
#796=CARTESIAN_POINT('',(61.9999995827675,37.000000551343,6.));
#797=CARTESIAN_POINT('Origin',(54.9999995827675,30.000000551343,0.));
#798=CARTESIAN_POINT('Origin',(54.9999995827675,30.000000551343,6.));
#799=CARTESIAN_POINT('Origin',(16.9999995827675,27.500000551343,6.));
#800=UNCERTAINTY_MEASURE_WITH_UNIT(LENGTH_MEASURE(0.01),#804,
'DISTANCE_ACCURACY_VALUE',
'Maximum model space distance between geometric entities at asserted c
onnectivities');
#801=UNCERTAINTY_MEASURE_WITH_UNIT(LENGTH_MEASURE(0.01),#804,
'DISTANCE_ACCURACY_VALUE',
'Maximum model space distance between geometric entities at asserted c
onnectivities');
#802=(
GEOMETRIC_REPRESENTATION_CONTEXT(3)
GLOBAL_UNCERTAINTY_ASSIGNED_CONTEXT((#800))
GLOBAL_UNIT_ASSIGNED_CONTEXT((#804,#806,#807))
REPRESENTATION_CONTEXT('','3D')
);
#803=(
GEOMETRIC_REPRESENTATION_CONTEXT(3)
GLOBAL_UNCERTAINTY_ASSIGNED_CONTEXT((#801))
GLOBAL_UNIT_ASSIGNED_CONTEXT((#804,#806,#807))
REPRESENTATION_CONTEXT('','3D')
);
#804=(
LENGTH_UNIT()
NAMED_UNIT(*)
SI_UNIT(.MILLI.,.METRE.)
);
#805=(
LENGTH_UNIT()
NAMED_UNIT(*)
SI_UNIT($,.METRE.)
);
#806=(
NAMED_UNIT(*)
PLANE_ANGLE_UNIT()
SI_UNIT($,.RADIAN.)
);
#807=(
NAMED_UNIT(*)
SI_UNIT($,.STERADIAN.)
SOLID_ANGLE_UNIT()
);
#808=SHAPE_DEFINITION_REPRESENTATION(#809,#810);
#809=PRODUCT_DEFINITION_SHAPE('',$,#812);
#810=SHAPE_REPRESENTATION('',(#490),#802);
#811=PRODUCT_DEFINITION_CONTEXT('part definition',#816,'design');
#812=PRODUCT_DEFINITION('2026-08-10-19-56-16-923','toteRack',#813,#811);
#813=PRODUCT_DEFINITION_FORMATION('',$,#818);
#814=PRODUCT_RELATED_PRODUCT_CATEGORY('toteRack','toteRack',(#818));
#815=APPLICATION_PROTOCOL_DEFINITION('international standard',
'automotive_design',2009,#816);
#816=APPLICATION_CONTEXT(
'Core Data for Automotive Mechanical Design Process');
#817=PRODUCT_CONTEXT('part definition',#816,'mechanical');
#818=PRODUCT('2026-08-10-19-56-16-923','toteRack',$,(#817));
#819=PRESENTATION_STYLE_ASSIGNMENT((#820));
#820=SURFACE_STYLE_USAGE(.BOTH.,#821);
#821=SURFACE_SIDE_STYLE('',(#822));
#822=SURFACE_STYLE_FILL_AREA(#823);
#823=FILL_AREA_STYLE('Steel - Satin',(#824));
#824=FILL_AREA_STYLE_COLOUR('Steel - Satin',#825);
#825=COLOUR_RGB('Steel - Satin',0.627450980392157,0.627450980392157,0.627450980392157);
ENDSEC;
END-ISO-10303-21;
