ISO-10303-21;
HEADER;
/* Generated by software containing ST-Developer
 * from STEP Tools, Inc. (www.steptools.com) 
 */

FILE_DESCRIPTION(
/* description */ (''),
/* implementation_level */ '2;1');

FILE_NAME(
/* name */ 'powerBoard.step',
/* time_stamp */ '2026-08-18T21:00:40+10:00',
/* author */ (''),
/* organization */ (''),
/* preprocessor_version */ 'ST-DEVELOPER v20.1',
/* originating_system */ 'Autodesk Translation Framework v14.24.0.0',
/* authorisation */ '');

FILE_SCHEMA (('AUTOMOTIVE_DESIGN { 1 0 10303 214 3 1 1 }'));
ENDSEC;

DATA;
#10=MECHANICAL_DESIGN_GEOMETRIC_PRESENTATION_REPRESENTATION('',(#13),#955);
#11=SHAPE_REPRESENTATION_RELATIONSHIP('SRR','None',#962,#12);
#12=ADVANCED_BREP_SHAPE_REPRESENTATION('',(#14),#954);
#13=STYLED_ITEM('',(#971),#14);
#14=MANIFOLD_SOLID_BREP('Body1',#555);
#15=FACE_BOUND('',#70,.T.);
#16=FACE_BOUND('',#78,.T.);
#17=FACE_BOUND('',#91,.T.);
#18=FACE_BOUND('',#93,.T.);
#19=FACE_BOUND('',#96,.T.);
#20=PLANE('',#572);
#21=PLANE('',#576);
#22=PLANE('',#580);
#23=PLANE('',#592);
#24=PLANE('',#595);
#25=PLANE('',#600);
#26=PLANE('',#604);
#27=PLANE('',#607);
#28=PLANE('',#610);
#29=PLANE('',#613);
#30=PLANE('',#616);
#31=PLANE('',#617);
#32=PLANE('',#618);
#33=PLANE('',#620);
#34=PLANE('',#623);
#35=FACE_OUTER_BOUND('',#64,.T.);
#36=FACE_OUTER_BOUND('',#65,.T.);
#37=FACE_OUTER_BOUND('',#66,.T.);
#38=FACE_OUTER_BOUND('',#67,.T.);
#39=FACE_OUTER_BOUND('',#68,.T.);
#40=FACE_OUTER_BOUND('',#69,.T.);
#41=FACE_OUTER_BOUND('',#71,.T.);
#42=FACE_OUTER_BOUND('',#72,.T.);
#43=FACE_OUTER_BOUND('',#73,.T.);
#44=FACE_OUTER_BOUND('',#74,.T.);
#45=FACE_OUTER_BOUND('',#75,.T.);
#46=FACE_OUTER_BOUND('',#76,.T.);
#47=FACE_OUTER_BOUND('',#77,.T.);
#48=FACE_OUTER_BOUND('',#79,.T.);
#49=FACE_OUTER_BOUND('',#80,.T.);
#50=FACE_OUTER_BOUND('',#81,.T.);
#51=FACE_OUTER_BOUND('',#82,.T.);
#52=FACE_OUTER_BOUND('',#83,.T.);
#53=FACE_OUTER_BOUND('',#84,.T.);
#54=FACE_OUTER_BOUND('',#85,.T.);
#55=FACE_OUTER_BOUND('',#86,.T.);
#56=FACE_OUTER_BOUND('',#87,.T.);
#57=FACE_OUTER_BOUND('',#88,.T.);
#58=FACE_OUTER_BOUND('',#89,.T.);
#59=FACE_OUTER_BOUND('',#90,.T.);
#60=FACE_OUTER_BOUND('',#92,.T.);
#61=FACE_OUTER_BOUND('',#94,.T.);
#62=FACE_OUTER_BOUND('',#95,.T.);
#63=FACE_OUTER_BOUND('',#97,.T.);
#64=EDGE_LOOP('',(#356,#357,#358,#359));
#65=EDGE_LOOP('',(#360,#361,#362,#363));
#66=EDGE_LOOP('',(#364,#365,#366,#367));
#67=EDGE_LOOP('',(#368,#369,#370,#371));
#68=EDGE_LOOP('',(#372,#373,#374,#375));
#69=EDGE_LOOP('',(#376,#377,#378,#379,#380,#381,#382,#383));
#70=EDGE_LOOP('',(#384,#385,#386,#387,#388,#389,#390,#391,#392,#393,#394,
#395,#396,#397,#398,#399));
#71=EDGE_LOOP('',(#400,#401,#402,#403));
#72=EDGE_LOOP('',(#404,#405,#406,#407));
#73=EDGE_LOOP('',(#408,#409,#410,#411));
#74=EDGE_LOOP('',(#412,#413,#414,#415));
#75=EDGE_LOOP('',(#416,#417,#418,#419));
#76=EDGE_LOOP('',(#420,#421,#422,#423));
#77=EDGE_LOOP('',(#424,#425,#426,#427));
#78=EDGE_LOOP('',(#428));
#79=EDGE_LOOP('',(#429,#430,#431,#432));
#80=EDGE_LOOP('',(#433,#434,#435,#436));
#81=EDGE_LOOP('',(#437,#438,#439,#440));
#82=EDGE_LOOP('',(#441,#442,#443,#444));
#83=EDGE_LOOP('',(#445,#446,#447,#448));
#84=EDGE_LOOP('',(#449,#450,#451,#452));
#85=EDGE_LOOP('',(#453,#454,#455,#456));
#86=EDGE_LOOP('',(#457,#458,#459,#460));
#87=EDGE_LOOP('',(#461,#462,#463,#464));
#88=EDGE_LOOP('',(#465,#466,#467,#468));
#89=EDGE_LOOP('',(#469,#470,#471,#472));
#90=EDGE_LOOP('',(#473,#474,#475,#476));
#91=EDGE_LOOP('',(#477));
#92=EDGE_LOOP('',(#478,#479,#480,#481,#482,#483,#484,#485));
#93=EDGE_LOOP('',(#486,#487,#488,#489,#490,#491,#492,#493,#494,#495,#496,
#497,#498,#499,#500,#501));
#94=EDGE_LOOP('',(#502,#503,#504,#505));
#95=EDGE_LOOP('',(#506));
#96=EDGE_LOOP('',(#507));
#97=EDGE_LOOP('',(#508,#509,#510,#511));
#98=LINE('',#798,#148);
#99=LINE('',#801,#149);
#100=LINE('',#804,#150);
#101=LINE('',#806,#151);
#102=LINE('',#807,#152);
#103=LINE('',#813,#153);
#104=LINE('',#816,#154);
#105=LINE('',#819,#155);
#106=LINE('',#821,#156);
#107=LINE('',#822,#157);
#108=LINE('',#831,#158);
#109=LINE('',#835,#159);
#110=LINE('',#839,#160);
#111=LINE('',#842,#161);
#112=LINE('',#844,#162);
#113=LINE('',#848,#163);
#114=LINE('',#852,#164);
#115=LINE('',#856,#165);
#116=LINE('',#860,#166);
#117=LINE('',#863,#167);
#118=LINE('',#868,#168);
#119=LINE('',#869,#169);
#120=LINE('',#871,#170);
#121=LINE('',#876,#171);
#122=LINE('',#877,#172);
#123=LINE('',#880,#173);
#124=LINE('',#881,#174);
#125=LINE('',#885,#175);
#126=LINE('',#890,#176);
#127=LINE('',#891,#177);
#128=LINE('',#894,#178);
#129=LINE('',#895,#179);
#130=LINE('',#900,#180);
#131=LINE('',#904,#181);
#132=LINE('',#905,#182);
#133=LINE('',#908,#183);
#134=LINE('',#911,#184);
#135=LINE('',#913,#185);
#136=LINE('',#916,#186);
#137=LINE('',#920,#187);
#138=LINE('',#921,#188);
#139=LINE('',#924,#189);
#140=LINE('',#927,#190);
#141=LINE('',#932,#191);
#142=LINE('',#933,#192);
#143=LINE('',#935,#193);
#144=LINE('',#937,#194);
#145=LINE('',#939,#195);
#146=LINE('',#945,#196);
#147=LINE('',#951,#197);
#148=VECTOR('',#632,10.);
#149=VECTOR('',#635,10.);
#150=VECTOR('',#638,10.);
#151=VECTOR('',#639,10.);
#152=VECTOR('',#640,10.);
#153=VECTOR('',#645,10.);
#154=VECTOR('',#648,10.);
#155=VECTOR('',#651,10.);
#156=VECTOR('',#652,10.);
#157=VECTOR('',#653,10.);
#158=VECTOR('',#664,10.);
#159=VECTOR('',#667,10.);
#160=VECTOR('',#670,10.);
#161=VECTOR('',#673,10.);
#162=VECTOR('',#674,10.);
#163=VECTOR('',#677,10.);
#164=VECTOR('',#680,10.);
#165=VECTOR('',#683,10.);
#166=VECTOR('',#686,10.);
#167=VECTOR('',#689,10.);
#168=VECTOR('',#694,10.);
#169=VECTOR('',#695,10.);
#170=VECTOR('',#698,10.);
#171=VECTOR('',#703,10.);
#172=VECTOR('',#704,10.);
#173=VECTOR('',#707,10.);
#174=VECTOR('',#708,10.);
#175=VECTOR('',#713,10.);
#176=VECTOR('',#718,10.);
#177=VECTOR('',#719,10.);
#178=VECTOR('',#722,10.);
#179=VECTOR('',#723,10.);
#180=VECTOR('',#728,10.);
#181=VECTOR('',#733,10.);
#182=VECTOR('',#734,10.);
#183=VECTOR('',#737,10.);
#184=VECTOR('',#740,10.);
#185=VECTOR('',#743,10.);
#186=VECTOR('',#746,10.);
#187=VECTOR('',#751,10.);
#188=VECTOR('',#752,10.);
#189=VECTOR('',#755,10.);
#190=VECTOR('',#760,10.);
#191=VECTOR('',#765,10.);
#192=VECTOR('',#766,10.);
#193=VECTOR('',#769,10.);
#194=VECTOR('',#772,10.);
#195=VECTOR('',#775,10.);
#196=VECTOR('',#782,8.9);
#197=VECTOR('',#791,3.65);
#198=CIRCLE('',#570,0.5);
#199=CIRCLE('',#571,0.5);
#200=CIRCLE('',#574,0.5);
#201=CIRCLE('',#575,0.5);
#202=CIRCLE('',#578,0.5);
#203=CIRCLE('',#579,0.5);
#204=CIRCLE('',#581,2.);
#205=CIRCLE('',#582,2.);
#206=CIRCLE('',#583,2.);
#207=CIRCLE('',#584,2.);
#208=CIRCLE('',#585,2.);
#209=CIRCLE('',#586,2.);
#210=CIRCLE('',#587,0.5);
#211=CIRCLE('',#588,0.5);
#212=CIRCLE('',#589,0.5);
#213=CIRCLE('',#591,0.5);
#214=CIRCLE('',#594,0.5);
#215=CIRCLE('',#597,0.5);
#216=CIRCLE('',#599,2.);
#217=CIRCLE('',#601,3.65);
#218=CIRCLE('',#603,2.);
#219=CIRCLE('',#606,2.);
#220=CIRCLE('',#609,2.);
#221=CIRCLE('',#612,2.);
#222=CIRCLE('',#615,2.);
#223=CIRCLE('',#619,8.9);
#224=CIRCLE('',#622,8.9);
#225=CIRCLE('',#624,3.65);
#226=VERTEX_POINT('',#794);
#227=VERTEX_POINT('',#795);
#228=VERTEX_POINT('',#797);
#229=VERTEX_POINT('',#799);
#230=VERTEX_POINT('',#803);
#231=VERTEX_POINT('',#805);
#232=VERTEX_POINT('',#809);
#233=VERTEX_POINT('',#810);
#234=VERTEX_POINT('',#812);
#235=VERTEX_POINT('',#814);
#236=VERTEX_POINT('',#818);
#237=VERTEX_POINT('',#820);
#238=VERTEX_POINT('',#827);
#239=VERTEX_POINT('',#828);
#240=VERTEX_POINT('',#830);
#241=VERTEX_POINT('',#832);
#242=VERTEX_POINT('',#834);
#243=VERTEX_POINT('',#836);
#244=VERTEX_POINT('',#838);
#245=VERTEX_POINT('',#840);
#246=VERTEX_POINT('',#843);
#247=VERTEX_POINT('',#845);
#248=VERTEX_POINT('',#847);
#249=VERTEX_POINT('',#849);
#250=VERTEX_POINT('',#851);
#251=VERTEX_POINT('',#853);
#252=VERTEX_POINT('',#855);
#253=VERTEX_POINT('',#857);
#254=VERTEX_POINT('',#859);
#255=VERTEX_POINT('',#861);
#256=VERTEX_POINT('',#865);
#257=VERTEX_POINT('',#866);
#258=VERTEX_POINT('',#873);
#259=VERTEX_POINT('',#874);
#260=VERTEX_POINT('',#879);
#261=VERTEX_POINT('',#883);
#262=VERTEX_POINT('',#887);
#263=VERTEX_POINT('',#888);
#264=VERTEX_POINT('',#893);
#265=VERTEX_POINT('',#896);
#266=VERTEX_POINT('',#899);
#267=VERTEX_POINT('',#903);
#268=VERTEX_POINT('',#907);
#269=VERTEX_POINT('',#909);
#270=VERTEX_POINT('',#915);
#271=VERTEX_POINT('',#919);
#272=VERTEX_POINT('',#923);
#273=VERTEX_POINT('',#929);
#274=VERTEX_POINT('',#930);
#275=VERTEX_POINT('',#940);
#276=VERTEX_POINT('',#944);
#277=VERTEX_POINT('',#948);
#278=EDGE_CURVE('',#226,#227,#198,.T.);
#279=EDGE_CURVE('',#227,#228,#98,.T.);
#280=EDGE_CURVE('',#228,#229,#199,.T.);
#281=EDGE_CURVE('',#229,#226,#99,.T.);
#282=EDGE_CURVE('',#230,#227,#100,.T.);
#283=EDGE_CURVE('',#231,#230,#101,.T.);
#284=EDGE_CURVE('',#228,#231,#102,.T.);
#285=EDGE_CURVE('',#232,#233,#200,.T.);
#286=EDGE_CURVE('',#233,#234,#103,.T.);
#287=EDGE_CURVE('',#234,#235,#201,.T.);
#288=EDGE_CURVE('',#235,#232,#104,.T.);
#289=EDGE_CURVE('',#236,#233,#105,.T.);
#290=EDGE_CURVE('',#237,#236,#106,.T.);
#291=EDGE_CURVE('',#234,#237,#107,.T.);
#292=EDGE_CURVE('',#230,#237,#202,.T.);
#293=EDGE_CURVE('',#236,#231,#203,.T.);
#294=EDGE_CURVE('',#238,#239,#204,.T.);
#295=EDGE_CURVE('',#238,#240,#108,.T.);
#296=EDGE_CURVE('',#241,#240,#205,.T.);
#297=EDGE_CURVE('',#241,#242,#109,.T.);
#298=EDGE_CURVE('',#243,#242,#206,.T.);
#299=EDGE_CURVE('',#243,#244,#110,.T.);
#300=EDGE_CURVE('',#245,#244,#207,.T.);
#301=EDGE_CURVE('',#239,#245,#111,.T.);
#302=EDGE_CURVE('',#232,#246,#112,.T.);
#303=EDGE_CURVE('',#247,#246,#208,.T.);
#304=EDGE_CURVE('',#248,#247,#113,.T.);
#305=EDGE_CURVE('',#249,#248,#209,.T.);
#306=EDGE_CURVE('',#249,#250,#114,.T.);
#307=EDGE_CURVE('',#251,#250,#210,.T.);
#308=EDGE_CURVE('',#251,#252,#115,.T.);
#309=EDGE_CURVE('',#253,#252,#211,.T.);
#310=EDGE_CURVE('',#253,#254,#116,.T.);
#311=EDGE_CURVE('',#255,#254,#212,.T.);
#312=EDGE_CURVE('',#255,#229,#117,.T.);
#313=EDGE_CURVE('',#256,#257,#213,.T.);
#314=EDGE_CURVE('',#257,#255,#118,.T.);
#315=EDGE_CURVE('',#254,#256,#119,.T.);
#316=EDGE_CURVE('',#226,#257,#120,.T.);
#317=EDGE_CURVE('',#258,#259,#214,.T.);
#318=EDGE_CURVE('',#259,#251,#121,.T.);
#319=EDGE_CURVE('',#250,#258,#122,.T.);
#320=EDGE_CURVE('',#260,#259,#123,.T.);
#321=EDGE_CURVE('',#252,#260,#124,.T.);
#322=EDGE_CURVE('',#260,#261,#215,.T.);
#323=EDGE_CURVE('',#261,#253,#125,.T.);
#324=EDGE_CURVE('',#262,#263,#216,.T.);
#325=EDGE_CURVE('',#263,#238,#126,.T.);
#326=EDGE_CURVE('',#239,#262,#127,.T.);
#327=EDGE_CURVE('',#264,#245,#128,.T.);
#328=EDGE_CURVE('',#262,#264,#129,.T.);
#329=EDGE_CURVE('',#265,#265,#217,.T.);
#330=EDGE_CURVE('',#244,#266,#130,.T.);
#331=EDGE_CURVE('',#266,#264,#218,.T.);
#332=EDGE_CURVE('',#267,#243,#131,.T.);
#333=EDGE_CURVE('',#266,#267,#132,.T.);
#334=EDGE_CURVE('',#246,#268,#133,.T.);
#335=EDGE_CURVE('',#268,#269,#219,.T.);
#336=EDGE_CURVE('',#269,#247,#134,.T.);
#337=EDGE_CURVE('',#268,#235,#135,.T.);
#338=EDGE_CURVE('',#242,#270,#136,.T.);
#339=EDGE_CURVE('',#270,#267,#220,.T.);
#340=EDGE_CURVE('',#271,#241,#137,.T.);
#341=EDGE_CURVE('',#270,#271,#138,.T.);
#342=EDGE_CURVE('',#240,#272,#139,.T.);
#343=EDGE_CURVE('',#272,#271,#221,.T.);
#344=EDGE_CURVE('',#272,#263,#140,.T.);
#345=EDGE_CURVE('',#273,#274,#222,.T.);
#346=EDGE_CURVE('',#274,#249,#141,.T.);
#347=EDGE_CURVE('',#248,#273,#142,.T.);
#348=EDGE_CURVE('',#258,#274,#143,.T.);
#349=EDGE_CURVE('',#256,#261,#144,.T.);
#350=EDGE_CURVE('',#269,#273,#145,.T.);
#351=EDGE_CURVE('',#275,#275,#223,.T.);
#352=EDGE_CURVE('',#275,#276,#146,.T.);
#353=EDGE_CURVE('',#276,#276,#224,.T.);
#354=EDGE_CURVE('',#277,#277,#225,.T.);
#355=EDGE_CURVE('',#277,#265,#147,.T.);
#356=ORIENTED_EDGE('',*,*,#278,.T.);
#357=ORIENTED_EDGE('',*,*,#279,.T.);
#358=ORIENTED_EDGE('',*,*,#280,.T.);
#359=ORIENTED_EDGE('',*,*,#281,.T.);
#360=ORIENTED_EDGE('',*,*,#279,.F.);
#361=ORIENTED_EDGE('',*,*,#282,.F.);
#362=ORIENTED_EDGE('',*,*,#283,.F.);
#363=ORIENTED_EDGE('',*,*,#284,.F.);
#364=ORIENTED_EDGE('',*,*,#285,.T.);
#365=ORIENTED_EDGE('',*,*,#286,.T.);
#366=ORIENTED_EDGE('',*,*,#287,.T.);
#367=ORIENTED_EDGE('',*,*,#288,.T.);
#368=ORIENTED_EDGE('',*,*,#286,.F.);
#369=ORIENTED_EDGE('',*,*,#289,.F.);
#370=ORIENTED_EDGE('',*,*,#290,.F.);
#371=ORIENTED_EDGE('',*,*,#291,.F.);
#372=ORIENTED_EDGE('',*,*,#292,.T.);
#373=ORIENTED_EDGE('',*,*,#290,.T.);
#374=ORIENTED_EDGE('',*,*,#293,.T.);
#375=ORIENTED_EDGE('',*,*,#283,.T.);
#376=ORIENTED_EDGE('',*,*,#294,.F.);
#377=ORIENTED_EDGE('',*,*,#295,.T.);
#378=ORIENTED_EDGE('',*,*,#296,.F.);
#379=ORIENTED_EDGE('',*,*,#297,.T.);
#380=ORIENTED_EDGE('',*,*,#298,.F.);
#381=ORIENTED_EDGE('',*,*,#299,.T.);
#382=ORIENTED_EDGE('',*,*,#300,.F.);
#383=ORIENTED_EDGE('',*,*,#301,.F.);
#384=ORIENTED_EDGE('',*,*,#293,.F.);
#385=ORIENTED_EDGE('',*,*,#289,.T.);
#386=ORIENTED_EDGE('',*,*,#285,.F.);
#387=ORIENTED_EDGE('',*,*,#302,.T.);
#388=ORIENTED_EDGE('',*,*,#303,.F.);
#389=ORIENTED_EDGE('',*,*,#304,.F.);
#390=ORIENTED_EDGE('',*,*,#305,.F.);
#391=ORIENTED_EDGE('',*,*,#306,.T.);
#392=ORIENTED_EDGE('',*,*,#307,.F.);
#393=ORIENTED_EDGE('',*,*,#308,.T.);
#394=ORIENTED_EDGE('',*,*,#309,.F.);
#395=ORIENTED_EDGE('',*,*,#310,.T.);
#396=ORIENTED_EDGE('',*,*,#311,.F.);
#397=ORIENTED_EDGE('',*,*,#312,.T.);
#398=ORIENTED_EDGE('',*,*,#280,.F.);
#399=ORIENTED_EDGE('',*,*,#284,.T.);
#400=ORIENTED_EDGE('',*,*,#313,.T.);
#401=ORIENTED_EDGE('',*,*,#314,.T.);
#402=ORIENTED_EDGE('',*,*,#311,.T.);
#403=ORIENTED_EDGE('',*,*,#315,.T.);
#404=ORIENTED_EDGE('',*,*,#281,.F.);
#405=ORIENTED_EDGE('',*,*,#312,.F.);
#406=ORIENTED_EDGE('',*,*,#314,.F.);
#407=ORIENTED_EDGE('',*,*,#316,.F.);
#408=ORIENTED_EDGE('',*,*,#317,.T.);
#409=ORIENTED_EDGE('',*,*,#318,.T.);
#410=ORIENTED_EDGE('',*,*,#307,.T.);
#411=ORIENTED_EDGE('',*,*,#319,.T.);
#412=ORIENTED_EDGE('',*,*,#318,.F.);
#413=ORIENTED_EDGE('',*,*,#320,.F.);
#414=ORIENTED_EDGE('',*,*,#321,.F.);
#415=ORIENTED_EDGE('',*,*,#308,.F.);
#416=ORIENTED_EDGE('',*,*,#309,.T.);
#417=ORIENTED_EDGE('',*,*,#321,.T.);
#418=ORIENTED_EDGE('',*,*,#322,.T.);
#419=ORIENTED_EDGE('',*,*,#323,.T.);
#420=ORIENTED_EDGE('',*,*,#324,.T.);
#421=ORIENTED_EDGE('',*,*,#325,.T.);
#422=ORIENTED_EDGE('',*,*,#294,.T.);
#423=ORIENTED_EDGE('',*,*,#326,.T.);
#424=ORIENTED_EDGE('',*,*,#326,.F.);
#425=ORIENTED_EDGE('',*,*,#301,.T.);
#426=ORIENTED_EDGE('',*,*,#327,.F.);
#427=ORIENTED_EDGE('',*,*,#328,.F.);
#428=ORIENTED_EDGE('',*,*,#329,.T.);
#429=ORIENTED_EDGE('',*,*,#300,.T.);
#430=ORIENTED_EDGE('',*,*,#330,.T.);
#431=ORIENTED_EDGE('',*,*,#331,.T.);
#432=ORIENTED_EDGE('',*,*,#327,.T.);
#433=ORIENTED_EDGE('',*,*,#330,.F.);
#434=ORIENTED_EDGE('',*,*,#299,.F.);
#435=ORIENTED_EDGE('',*,*,#332,.F.);
#436=ORIENTED_EDGE('',*,*,#333,.F.);
#437=ORIENTED_EDGE('',*,*,#303,.T.);
#438=ORIENTED_EDGE('',*,*,#334,.T.);
#439=ORIENTED_EDGE('',*,*,#335,.T.);
#440=ORIENTED_EDGE('',*,*,#336,.T.);
#441=ORIENTED_EDGE('',*,*,#288,.F.);
#442=ORIENTED_EDGE('',*,*,#337,.F.);
#443=ORIENTED_EDGE('',*,*,#334,.F.);
#444=ORIENTED_EDGE('',*,*,#302,.F.);
#445=ORIENTED_EDGE('',*,*,#298,.T.);
#446=ORIENTED_EDGE('',*,*,#338,.T.);
#447=ORIENTED_EDGE('',*,*,#339,.T.);
#448=ORIENTED_EDGE('',*,*,#332,.T.);
#449=ORIENTED_EDGE('',*,*,#338,.F.);
#450=ORIENTED_EDGE('',*,*,#297,.F.);
#451=ORIENTED_EDGE('',*,*,#340,.F.);
#452=ORIENTED_EDGE('',*,*,#341,.F.);
#453=ORIENTED_EDGE('',*,*,#296,.T.);
#454=ORIENTED_EDGE('',*,*,#342,.T.);
#455=ORIENTED_EDGE('',*,*,#343,.T.);
#456=ORIENTED_EDGE('',*,*,#340,.T.);
#457=ORIENTED_EDGE('',*,*,#325,.F.);
#458=ORIENTED_EDGE('',*,*,#344,.F.);
#459=ORIENTED_EDGE('',*,*,#342,.F.);
#460=ORIENTED_EDGE('',*,*,#295,.F.);
#461=ORIENTED_EDGE('',*,*,#345,.T.);
#462=ORIENTED_EDGE('',*,*,#346,.T.);
#463=ORIENTED_EDGE('',*,*,#305,.T.);
#464=ORIENTED_EDGE('',*,*,#347,.T.);
#465=ORIENTED_EDGE('',*,*,#319,.F.);
#466=ORIENTED_EDGE('',*,*,#306,.F.);
#467=ORIENTED_EDGE('',*,*,#346,.F.);
#468=ORIENTED_EDGE('',*,*,#348,.F.);
#469=ORIENTED_EDGE('',*,*,#315,.F.);
#470=ORIENTED_EDGE('',*,*,#310,.F.);
#471=ORIENTED_EDGE('',*,*,#323,.F.);
#472=ORIENTED_EDGE('',*,*,#349,.F.);
#473=ORIENTED_EDGE('',*,*,#336,.F.);
#474=ORIENTED_EDGE('',*,*,#350,.T.);
#475=ORIENTED_EDGE('',*,*,#347,.F.);
#476=ORIENTED_EDGE('',*,*,#304,.T.);
#477=ORIENTED_EDGE('',*,*,#351,.T.);
#478=ORIENTED_EDGE('',*,*,#324,.F.);
#479=ORIENTED_EDGE('',*,*,#328,.T.);
#480=ORIENTED_EDGE('',*,*,#331,.F.);
#481=ORIENTED_EDGE('',*,*,#333,.T.);
#482=ORIENTED_EDGE('',*,*,#339,.F.);
#483=ORIENTED_EDGE('',*,*,#341,.T.);
#484=ORIENTED_EDGE('',*,*,#343,.F.);
#485=ORIENTED_EDGE('',*,*,#344,.T.);
#486=ORIENTED_EDGE('',*,*,#292,.F.);
#487=ORIENTED_EDGE('',*,*,#282,.T.);
#488=ORIENTED_EDGE('',*,*,#278,.F.);
#489=ORIENTED_EDGE('',*,*,#316,.T.);
#490=ORIENTED_EDGE('',*,*,#313,.F.);
#491=ORIENTED_EDGE('',*,*,#349,.T.);
#492=ORIENTED_EDGE('',*,*,#322,.F.);
#493=ORIENTED_EDGE('',*,*,#320,.T.);
#494=ORIENTED_EDGE('',*,*,#317,.F.);
#495=ORIENTED_EDGE('',*,*,#348,.T.);
#496=ORIENTED_EDGE('',*,*,#345,.F.);
#497=ORIENTED_EDGE('',*,*,#350,.F.);
#498=ORIENTED_EDGE('',*,*,#335,.F.);
#499=ORIENTED_EDGE('',*,*,#337,.T.);
#500=ORIENTED_EDGE('',*,*,#287,.F.);
#501=ORIENTED_EDGE('',*,*,#291,.T.);
#502=ORIENTED_EDGE('',*,*,#351,.F.);
#503=ORIENTED_EDGE('',*,*,#352,.T.);
#504=ORIENTED_EDGE('',*,*,#353,.T.);
#505=ORIENTED_EDGE('',*,*,#352,.F.);
#506=ORIENTED_EDGE('',*,*,#353,.F.);
#507=ORIENTED_EDGE('',*,*,#354,.F.);
#508=ORIENTED_EDGE('',*,*,#354,.T.);
#509=ORIENTED_EDGE('',*,*,#355,.T.);
#510=ORIENTED_EDGE('',*,*,#329,.F.);
#511=ORIENTED_EDGE('',*,*,#355,.F.);
#512=CYLINDRICAL_SURFACE('',#569,0.5);
#513=CYLINDRICAL_SURFACE('',#573,0.5);
#514=CYLINDRICAL_SURFACE('',#577,0.5);
#515=CYLINDRICAL_SURFACE('',#590,0.5);
#516=CYLINDRICAL_SURFACE('',#593,0.5);
#517=CYLINDRICAL_SURFACE('',#596,0.5);
#518=CYLINDRICAL_SURFACE('',#598,2.);
#519=CYLINDRICAL_SURFACE('',#602,2.);
#520=CYLINDRICAL_SURFACE('',#605,2.);
#521=CYLINDRICAL_SURFACE('',#608,2.);
#522=CYLINDRICAL_SURFACE('',#611,2.);
#523=CYLINDRICAL_SURFACE('',#614,2.);
#524=CYLINDRICAL_SURFACE('',#621,8.9);
#525=CYLINDRICAL_SURFACE('',#625,3.65);
#526=ADVANCED_FACE('',(#35),#512,.F.);
#527=ADVANCED_FACE('',(#36),#20,.F.);
#528=ADVANCED_FACE('',(#37),#513,.F.);
#529=ADVANCED_FACE('',(#38),#21,.T.);
#530=ADVANCED_FACE('',(#39),#514,.T.);
#531=ADVANCED_FACE('',(#40,#15),#22,.T.);
#532=ADVANCED_FACE('',(#41),#515,.F.);
#533=ADVANCED_FACE('',(#42),#23,.F.);
#534=ADVANCED_FACE('',(#43),#516,.F.);
#535=ADVANCED_FACE('',(#44),#24,.T.);
#536=ADVANCED_FACE('',(#45),#517,.T.);
#537=ADVANCED_FACE('',(#46),#518,.T.);
#538=ADVANCED_FACE('',(#47,#16),#25,.F.);
#539=ADVANCED_FACE('',(#48),#519,.T.);
#540=ADVANCED_FACE('',(#49),#26,.T.);
#541=ADVANCED_FACE('',(#50),#520,.F.);
#542=ADVANCED_FACE('',(#51),#27,.T.);
#543=ADVANCED_FACE('',(#52),#521,.T.);
#544=ADVANCED_FACE('',(#53),#28,.T.);
#545=ADVANCED_FACE('',(#54),#522,.T.);
#546=ADVANCED_FACE('',(#55),#29,.T.);
#547=ADVANCED_FACE('',(#56),#523,.F.);
#548=ADVANCED_FACE('',(#57),#30,.T.);
#549=ADVANCED_FACE('',(#58),#31,.F.);
#550=ADVANCED_FACE('',(#59,#17),#32,.T.);
#551=ADVANCED_FACE('',(#60,#18),#33,.T.);
#552=ADVANCED_FACE('',(#61),#524,.F.);
#553=ADVANCED_FACE('',(#62,#19),#34,.T.);
#554=ADVANCED_FACE('',(#63),#525,.F.);
#555=CLOSED_SHELL('',(#526,#527,#528,#529,#530,#531,#532,#533,#534,#535,
#536,#537,#538,#539,#540,#541,#542,#543,#544,#545,#546,#547,#548,#549,#550,
#551,#552,#553,#554));
#556=DERIVED_UNIT_ELEMENT(#558,1.);
#557=DERIVED_UNIT_ELEMENT(#957,-3.);
#558=(
MASS_UNIT()
NAMED_UNIT(*)
SI_UNIT(.KILO.,.GRAM.)
);
#559=DERIVED_UNIT((#556,#557));
#560=MEASURE_REPRESENTATION_ITEM('density measure',
POSITIVE_RATIO_MEASURE(7850.),#559);
#561=PROPERTY_DEFINITION_REPRESENTATION(#566,#563);
#562=PROPERTY_DEFINITION_REPRESENTATION(#567,#564);
#563=REPRESENTATION('material name',(#565),#954);
#564=REPRESENTATION('density',(#560),#954);
#565=DESCRIPTIVE_REPRESENTATION_ITEM('Steel','Steel');
#566=PROPERTY_DEFINITION('material property','material name',#964);
#567=PROPERTY_DEFINITION('material property','density of part',#964);
#568=AXIS2_PLACEMENT_3D('',#792,#626,#627);
#569=AXIS2_PLACEMENT_3D('',#793,#628,#629);
#570=AXIS2_PLACEMENT_3D('',#796,#630,#631);
#571=AXIS2_PLACEMENT_3D('',#800,#633,#634);
#572=AXIS2_PLACEMENT_3D('',#802,#636,#637);
#573=AXIS2_PLACEMENT_3D('',#808,#641,#642);
#574=AXIS2_PLACEMENT_3D('',#811,#643,#644);
#575=AXIS2_PLACEMENT_3D('',#815,#646,#647);
#576=AXIS2_PLACEMENT_3D('',#817,#649,#650);
#577=AXIS2_PLACEMENT_3D('',#823,#654,#655);
#578=AXIS2_PLACEMENT_3D('',#824,#656,#657);
#579=AXIS2_PLACEMENT_3D('',#825,#658,#659);
#580=AXIS2_PLACEMENT_3D('',#826,#660,#661);
#581=AXIS2_PLACEMENT_3D('',#829,#662,#663);
#582=AXIS2_PLACEMENT_3D('',#833,#665,#666);
#583=AXIS2_PLACEMENT_3D('',#837,#668,#669);
#584=AXIS2_PLACEMENT_3D('',#841,#671,#672);
#585=AXIS2_PLACEMENT_3D('',#846,#675,#676);
#586=AXIS2_PLACEMENT_3D('',#850,#678,#679);
#587=AXIS2_PLACEMENT_3D('',#854,#681,#682);
#588=AXIS2_PLACEMENT_3D('',#858,#684,#685);
#589=AXIS2_PLACEMENT_3D('',#862,#687,#688);
#590=AXIS2_PLACEMENT_3D('',#864,#690,#691);
#591=AXIS2_PLACEMENT_3D('',#867,#692,#693);
#592=AXIS2_PLACEMENT_3D('',#870,#696,#697);
#593=AXIS2_PLACEMENT_3D('',#872,#699,#700);
#594=AXIS2_PLACEMENT_3D('',#875,#701,#702);
#595=AXIS2_PLACEMENT_3D('',#878,#705,#706);
#596=AXIS2_PLACEMENT_3D('',#882,#709,#710);
#597=AXIS2_PLACEMENT_3D('',#884,#711,#712);
#598=AXIS2_PLACEMENT_3D('',#886,#714,#715);
#599=AXIS2_PLACEMENT_3D('',#889,#716,#717);
#600=AXIS2_PLACEMENT_3D('',#892,#720,#721);
#601=AXIS2_PLACEMENT_3D('',#897,#724,#725);
#602=AXIS2_PLACEMENT_3D('',#898,#726,#727);
#603=AXIS2_PLACEMENT_3D('',#901,#729,#730);
#604=AXIS2_PLACEMENT_3D('',#902,#731,#732);
#605=AXIS2_PLACEMENT_3D('',#906,#735,#736);
#606=AXIS2_PLACEMENT_3D('',#910,#738,#739);
#607=AXIS2_PLACEMENT_3D('',#912,#741,#742);
#608=AXIS2_PLACEMENT_3D('',#914,#744,#745);
#609=AXIS2_PLACEMENT_3D('',#917,#747,#748);
#610=AXIS2_PLACEMENT_3D('',#918,#749,#750);
#611=AXIS2_PLACEMENT_3D('',#922,#753,#754);
#612=AXIS2_PLACEMENT_3D('',#925,#756,#757);
#613=AXIS2_PLACEMENT_3D('',#926,#758,#759);
#614=AXIS2_PLACEMENT_3D('',#928,#761,#762);
#615=AXIS2_PLACEMENT_3D('',#931,#763,#764);
#616=AXIS2_PLACEMENT_3D('',#934,#767,#768);
#617=AXIS2_PLACEMENT_3D('',#936,#770,#771);
#618=AXIS2_PLACEMENT_3D('',#938,#773,#774);
#619=AXIS2_PLACEMENT_3D('',#941,#776,#777);
#620=AXIS2_PLACEMENT_3D('',#942,#778,#779);
#621=AXIS2_PLACEMENT_3D('',#943,#780,#781);
#622=AXIS2_PLACEMENT_3D('',#946,#783,#784);
#623=AXIS2_PLACEMENT_3D('',#947,#785,#786);
#624=AXIS2_PLACEMENT_3D('',#949,#787,#788);
#625=AXIS2_PLACEMENT_3D('',#950,#789,#790);
#626=DIRECTION('axis',(0.,0.,1.));
#627=DIRECTION('refdir',(1.,0.,0.));
#628=DIRECTION('center_axis',(0.,-1.,0.));
#629=DIRECTION('ref_axis',(0.707106781186548,0.,0.707106781186548));
#630=DIRECTION('center_axis',(0.,1.,0.));
#631=DIRECTION('ref_axis',(0.707106781186548,0.,0.707106781186548));
#632=DIRECTION('',(0.,-1.,0.));
#633=DIRECTION('center_axis',(0.,-1.,0.));
#634=DIRECTION('ref_axis',(0.707106781186548,0.,0.707106781186548));
#635=DIRECTION('',(0.,1.,0.));
#636=DIRECTION('center_axis',(1.,0.,0.));
#637=DIRECTION('ref_axis',(0.,0.,1.));
#638=DIRECTION('',(0.,0.,1.));
#639=DIRECTION('',(0.,1.,0.));
#640=DIRECTION('',(0.,0.,-1.));
#641=DIRECTION('center_axis',(0.,1.,0.));
#642=DIRECTION('ref_axis',(0.707106781186551,0.,0.707106781186544));
#643=DIRECTION('center_axis',(0.,-1.,0.));
#644=DIRECTION('ref_axis',(0.707106781186551,0.,0.707106781186544));
#645=DIRECTION('',(0.,1.,0.));
#646=DIRECTION('center_axis',(0.,1.,0.));
#647=DIRECTION('ref_axis',(0.707106781186551,0.,0.707106781186544));
#648=DIRECTION('',(0.,-1.,0.));
#649=DIRECTION('center_axis',(0.,0.,-1.));
#650=DIRECTION('ref_axis',(1.,0.,0.));
#651=DIRECTION('',(1.,0.,0.));
#652=DIRECTION('',(0.,-1.,0.));
#653=DIRECTION('',(-1.,0.,0.));
#654=DIRECTION('center_axis',(0.,1.,0.));
#655=DIRECTION('ref_axis',(-0.707106781186548,0.,-0.707106781186548));
#656=DIRECTION('center_axis',(0.,-1.,0.));
#657=DIRECTION('ref_axis',(-0.707106781186548,0.,-0.707106781186548));
#658=DIRECTION('center_axis',(0.,1.,0.));
#659=DIRECTION('ref_axis',(-0.707106781186548,0.,-0.707106781186548));
#660=DIRECTION('center_axis',(0.,-1.,0.));
#661=DIRECTION('ref_axis',(1.,0.,0.));
#662=DIRECTION('center_axis',(0.,1.,0.));
#663=DIRECTION('ref_axis',(0.707106781186546,0.,-0.707106781186549));
#664=DIRECTION('',(0.,0.,1.));
#665=DIRECTION('center_axis',(0.,1.,0.));
#666=DIRECTION('ref_axis',(0.707106781186548,0.,0.707106781186548));
#667=DIRECTION('',(-1.,0.,0.));
#668=DIRECTION('center_axis',(0.,1.,0.));
#669=DIRECTION('ref_axis',(-0.707106781186548,0.,0.707106781186548));
#670=DIRECTION('',(0.,0.,-1.));
#671=DIRECTION('center_axis',(0.,1.,0.));
#672=DIRECTION('ref_axis',(-0.707106781186548,0.,-0.707106781186547));
#673=DIRECTION('',(-1.,0.,0.));
#674=DIRECTION('',(0.,0.,-1.));
#675=DIRECTION('center_axis',(0.,-1.,0.));
#676=DIRECTION('ref_axis',(0.707106781186547,0.,-0.707106781186548));
#677=DIRECTION('',(1.,0.,0.));
#678=DIRECTION('center_axis',(0.,-1.,0.));
#679=DIRECTION('ref_axis',(-0.707106781186549,0.,-0.707106781186546));
#680=DIRECTION('',(0.,0.,1.));
#681=DIRECTION('center_axis',(0.,-1.,0.));
#682=DIRECTION('ref_axis',(-0.707106781186548,0.,0.707106781186548));
#683=DIRECTION('',(1.,0.,0.));
#684=DIRECTION('center_axis',(0.,1.,0.));
#685=DIRECTION('ref_axis',(0.707106781186554,0.,-0.707106781186541));
#686=DIRECTION('',(2.49367280490241E-15,0.,1.));
#687=DIRECTION('center_axis',(0.,-1.,0.));
#688=DIRECTION('ref_axis',(-0.707106781186548,0.,0.707106781186548));
#689=DIRECTION('',(1.,0.,0.));
#690=DIRECTION('center_axis',(0.,-1.,0.));
#691=DIRECTION('ref_axis',(-0.707106781186548,0.,0.707106781186548));
#692=DIRECTION('center_axis',(0.,1.,0.));
#693=DIRECTION('ref_axis',(-0.707106781186548,0.,0.707106781186548));
#694=DIRECTION('',(0.,-1.,0.));
#695=DIRECTION('',(0.,1.,0.));
#696=DIRECTION('center_axis',(0.,0.,1.));
#697=DIRECTION('ref_axis',(-1.,0.,0.));
#698=DIRECTION('',(-1.,0.,0.));
#699=DIRECTION('center_axis',(0.,-1.,0.));
#700=DIRECTION('ref_axis',(-0.707106781186548,0.,0.707106781186548));
#701=DIRECTION('center_axis',(0.,1.,0.));
#702=DIRECTION('ref_axis',(-0.707106781186548,0.,0.707106781186548));
#703=DIRECTION('',(0.,-1.,0.));
#704=DIRECTION('',(0.,1.,0.));
#705=DIRECTION('center_axis',(0.,0.,-1.));
#706=DIRECTION('ref_axis',(1.,0.,0.));
#707=DIRECTION('',(-1.,0.,0.));
#708=DIRECTION('',(0.,1.,0.));
#709=DIRECTION('center_axis',(0.,-1.,0.));
#710=DIRECTION('ref_axis',(0.707106781186554,0.,-0.707106781186541));
#711=DIRECTION('center_axis',(0.,-1.,0.));
#712=DIRECTION('ref_axis',(0.707106781186554,0.,-0.707106781186541));
#713=DIRECTION('',(0.,-1.,0.));
#714=DIRECTION('center_axis',(0.,1.,0.));
#715=DIRECTION('ref_axis',(0.707106781186546,0.,-0.707106781186549));
#716=DIRECTION('center_axis',(0.,-1.,0.));
#717=DIRECTION('ref_axis',(0.707106781186546,0.,-0.707106781186549));
#718=DIRECTION('',(0.,-1.,0.));
#719=DIRECTION('',(0.,1.,0.));
#720=DIRECTION('center_axis',(0.,0.,1.));
#721=DIRECTION('ref_axis',(1.,0.,0.));
#722=DIRECTION('',(0.,-1.,0.));
#723=DIRECTION('',(-1.,0.,0.));
#724=DIRECTION('center_axis',(0.,0.,1.));
#725=DIRECTION('ref_axis',(1.,0.,0.));
#726=DIRECTION('center_axis',(0.,-1.,0.));
#727=DIRECTION('ref_axis',(-0.707106781186548,0.,-0.707106781186547));
#728=DIRECTION('',(0.,1.,0.));
#729=DIRECTION('center_axis',(0.,-1.,0.));
#730=DIRECTION('ref_axis',(-0.707106781186548,0.,-0.707106781186547));
#731=DIRECTION('center_axis',(-1.,0.,0.));
#732=DIRECTION('ref_axis',(0.,0.,-1.));
#733=DIRECTION('',(0.,-1.,0.));
#734=DIRECTION('',(0.,0.,1.));
#735=DIRECTION('center_axis',(0.,1.,0.));
#736=DIRECTION('ref_axis',(0.707106781186547,0.,-0.707106781186548));
#737=DIRECTION('',(0.,1.,0.));
#738=DIRECTION('center_axis',(0.,1.,0.));
#739=DIRECTION('ref_axis',(0.707106781186547,0.,-0.707106781186548));
#740=DIRECTION('',(0.,-1.,0.));
#741=DIRECTION('center_axis',(-1.,0.,0.));
#742=DIRECTION('ref_axis',(0.,0.,1.));
#743=DIRECTION('',(0.,0.,1.));
#744=DIRECTION('center_axis',(0.,-1.,0.));
#745=DIRECTION('ref_axis',(-0.707106781186548,0.,0.707106781186548));
#746=DIRECTION('',(0.,1.,0.));
#747=DIRECTION('center_axis',(0.,-1.,0.));
#748=DIRECTION('ref_axis',(-0.707106781186548,0.,0.707106781186548));
#749=DIRECTION('center_axis',(0.,0.,1.));
#750=DIRECTION('ref_axis',(-1.,0.,0.));
#751=DIRECTION('',(0.,-1.,0.));
#752=DIRECTION('',(1.,0.,0.));
#753=DIRECTION('center_axis',(0.,-1.,0.));
#754=DIRECTION('ref_axis',(0.707106781186548,0.,0.707106781186548));
#755=DIRECTION('',(0.,1.,0.));
#756=DIRECTION('center_axis',(0.,-1.,0.));
#757=DIRECTION('ref_axis',(0.707106781186548,0.,0.707106781186548));
#758=DIRECTION('center_axis',(1.,0.,0.));
#759=DIRECTION('ref_axis',(0.,0.,-1.));
#760=DIRECTION('',(0.,0.,-1.));
#761=DIRECTION('center_axis',(0.,-1.,0.));
#762=DIRECTION('ref_axis',(-0.707106781186549,0.,-0.707106781186546));
#763=DIRECTION('center_axis',(0.,1.,0.));
#764=DIRECTION('ref_axis',(-0.707106781186549,0.,-0.707106781186546));
#765=DIRECTION('',(0.,-1.,0.));
#766=DIRECTION('',(0.,1.,0.));
#767=DIRECTION('center_axis',(1.,0.,0.));
#768=DIRECTION('ref_axis',(0.,0.,1.));
#769=DIRECTION('',(0.,0.,-1.));
#770=DIRECTION('center_axis',(-1.,0.,2.49367280490241E-15));
#771=DIRECTION('ref_axis',(-2.49367280490241E-15,0.,-1.));
#772=DIRECTION('',(-2.49367280490241E-15,0.,-1.));
#773=DIRECTION('center_axis',(0.,0.,1.));
#774=DIRECTION('ref_axis',(1.,0.,0.));
#775=DIRECTION('',(-1.,0.,0.));
#776=DIRECTION('center_axis',(0.,0.,-1.));
#777=DIRECTION('ref_axis',(1.,0.,0.));
#778=DIRECTION('center_axis',(0.,1.,0.));
#779=DIRECTION('ref_axis',(-1.,0.,0.));
#780=DIRECTION('center_axis',(0.,0.,-1.));
#781=DIRECTION('ref_axis',(1.,0.,0.));
#782=DIRECTION('',(0.,0.,-1.));
#783=DIRECTION('center_axis',(0.,0.,-1.));
#784=DIRECTION('ref_axis',(1.,0.,0.));
#785=DIRECTION('center_axis',(0.,0.,1.));
#786=DIRECTION('ref_axis',(1.,0.,0.));
#787=DIRECTION('center_axis',(0.,0.,1.));
#788=DIRECTION('ref_axis',(1.,0.,0.));
#789=DIRECTION('center_axis',(0.,0.,-1.));
#790=DIRECTION('ref_axis',(1.,0.,0.));
#791=DIRECTION('',(0.,0.,-1.));
#792=CARTESIAN_POINT('',(0.,0.,0.));
#793=CARTESIAN_POINT('Origin',(13.0999996513128,37.000000551343,33.5808639889604));
#794=CARTESIAN_POINT('',(13.0999996513128,37.000000551343,34.0808639889604));
#795=CARTESIAN_POINT('',(13.5999996513128,37.000000551343,33.5808639889604));
#796=CARTESIAN_POINT('Origin',(13.0999996513128,37.000000551343,33.5808639889604));
#797=CARTESIAN_POINT('',(13.5999996513128,18.000000551343,33.5808639889604));
#798=CARTESIAN_POINT('',(13.5999996513128,37.000000551343,33.5808639889604));
#799=CARTESIAN_POINT('',(13.0999996513128,18.000000551343,34.0808639889604));
#800=CARTESIAN_POINT('Origin',(13.0999996513128,18.000000551343,33.5808639889604));
#801=CARTESIAN_POINT('',(13.0999996513128,37.000000551343,34.0808639889604));
#802=CARTESIAN_POINT('Origin',(13.5999996513128,37.000000551343,32.3));
#803=CARTESIAN_POINT('',(13.5999996513128,37.000000551343,32.8));
#804=CARTESIAN_POINT('',(13.5999996513128,37.000000551343,16.15));
#805=CARTESIAN_POINT('',(13.5999996513128,18.000000551343,32.8));
#806=CARTESIAN_POINT('',(13.5999996513128,37.000000551343,32.8));
#807=CARTESIAN_POINT('',(13.5999996513128,18.000000551343,16.15));
#808=CARTESIAN_POINT('Origin',(15.0999996513128,27.500000551343,31.8));
#809=CARTESIAN_POINT('',(15.5999996513128,18.000000551343,31.8));
#810=CARTESIAN_POINT('',(15.0999996513128,18.000000551343,32.3));
#811=CARTESIAN_POINT('Origin',(15.0999996513128,18.000000551343,31.8));
#812=CARTESIAN_POINT('',(15.0999996513128,37.000000551343,32.3));
#813=CARTESIAN_POINT('',(15.0999996513128,27.500000551343,32.3));
#814=CARTESIAN_POINT('',(15.5999996513128,37.000000551343,31.8));
#815=CARTESIAN_POINT('Origin',(15.0999996513128,37.000000551343,31.8));
#816=CARTESIAN_POINT('',(15.5999996513128,27.500000551343,31.8));
#817=CARTESIAN_POINT('Origin',(-37.3750004172325,37.000000551343,32.3));
#818=CARTESIAN_POINT('',(14.0999996513128,18.000000551343,32.3));
#819=CARTESIAN_POINT('',(21.5999996513128,18.000000551343,32.3));
#820=CARTESIAN_POINT('',(14.0999996513128,37.000000551343,32.3));
#821=CARTESIAN_POINT('',(14.0999996513128,37.000000551343,32.3));
#822=CARTESIAN_POINT('',(21.5999996513128,37.000000551343,32.3));
#823=CARTESIAN_POINT('Origin',(14.0999996513128,37.000000551343,32.8));
#824=CARTESIAN_POINT('Origin',(14.0999996513128,37.000000551343,32.8));
#825=CARTESIAN_POINT('Origin',(14.0999996513128,18.000000551343,32.8));
#826=CARTESIAN_POINT('Origin',(-28.0000004172325,18.000000551343,0.));
#827=CARTESIAN_POINT('',(21.5999996513128,18.000000551343,2.));
#828=CARTESIAN_POINT('',(19.5999996513128,18.000000551343,0.));
#829=CARTESIAN_POINT('Origin',(19.5999996513128,18.000000551343,2.));
#830=CARTESIAN_POINT('',(21.5999996513128,18.000000551343,36.3));
#831=CARTESIAN_POINT('',(21.5999996513128,18.000000551343,0.));
#832=CARTESIAN_POINT('',(19.5999996513128,18.000000551343,38.3));
#833=CARTESIAN_POINT('Origin',(19.5999996513128,18.000000551343,36.3));
#834=CARTESIAN_POINT('',(-35.3750004172325,18.000000551343,38.3));
#835=CARTESIAN_POINT('',(-37.3750004172325,18.000000551343,38.3));
#836=CARTESIAN_POINT('',(-37.3750004172325,18.000000551343,36.3));
#837=CARTESIAN_POINT('Origin',(-35.3750004172325,18.000000551343,36.3));
#838=CARTESIAN_POINT('',(-37.3750004172325,18.000000551343,2.));
#839=CARTESIAN_POINT('',(-37.3750004172325,18.000000551343,32.3));
#840=CARTESIAN_POINT('',(-35.3750004172325,18.000000551343,0.));
#841=CARTESIAN_POINT('Origin',(-35.3750004172325,18.000000551343,2.));
#842=CARTESIAN_POINT('',(61.9999995827675,18.000000551343,0.));
#843=CARTESIAN_POINT('',(15.5999996513128,18.000000551343,8.));
#844=CARTESIAN_POINT('',(15.5999996513128,18.000000551343,32.3));
#845=CARTESIAN_POINT('',(13.5999996513128,18.000000551343,6.));
#846=CARTESIAN_POINT('Origin',(13.5999996513128,18.000000551343,8.));
#847=CARTESIAN_POINT('',(-29.3750004172325,18.000000551343,6.));
#848=CARTESIAN_POINT('',(-31.3750004172325,18.000000551343,6.));
#849=CARTESIAN_POINT('',(-31.3750004172325,18.000000551343,8.));
#850=CARTESIAN_POINT('Origin',(-29.3750004172325,18.000000551343,8.));
#851=CARTESIAN_POINT('',(-31.3750004172325,18.000000551343,31.8));
#852=CARTESIAN_POINT('',(-31.3750004172325,18.000000551343,32.3));
#853=CARTESIAN_POINT('',(-30.8750004172325,18.000000551343,32.3));
#854=CARTESIAN_POINT('Origin',(-30.8750004172325,18.000000551343,31.8));
#855=CARTESIAN_POINT('',(-29.8750004172325,18.000000551343,32.3));
#856=CARTESIAN_POINT('',(21.5999996513128,18.000000551343,32.3));
#857=CARTESIAN_POINT('',(-29.3750004172325,18.000000551343,32.8));
#858=CARTESIAN_POINT('Origin',(-29.8750004172325,18.000000551343,32.8));
#859=CARTESIAN_POINT('',(-29.3750004172325,18.000000551343,33.5808639889604));
#860=CARTESIAN_POINT('',(-29.3750004172325,18.000000551343,17.0404319944802));
#861=CARTESIAN_POINT('',(-28.8750004172325,18.000000551343,34.0808639889604));
#862=CARTESIAN_POINT('Origin',(-28.8750004172325,18.000000551343,33.5808639889604));
#863=CARTESIAN_POINT('',(-7.20000038295984,18.000000551343,34.0808639889604));
#864=CARTESIAN_POINT('Origin',(-28.8750004172325,37.000000551343,33.5808639889604));
#865=CARTESIAN_POINT('',(-29.3750004172325,37.000000551343,33.5808639889604));
#866=CARTESIAN_POINT('',(-28.8750004172325,37.000000551343,34.0808639889604));
#867=CARTESIAN_POINT('Origin',(-28.8750004172325,37.000000551343,33.5808639889604));
#868=CARTESIAN_POINT('',(-28.8750004172325,37.000000551343,34.0808639889604));
#869=CARTESIAN_POINT('',(-29.3750004172325,37.000000551343,33.5808639889604));
#870=CARTESIAN_POINT('Origin',(13.5999996513128,37.000000551343,34.0808639889604));
#871=CARTESIAN_POINT('',(37.7999996170402,37.000000551343,34.0808639889604));
#872=CARTESIAN_POINT('Origin',(-30.8750004172325,37.000000551343,31.8));
#873=CARTESIAN_POINT('',(-31.3750004172325,37.000000551343,31.8));
#874=CARTESIAN_POINT('',(-30.8750004172325,37.000000551343,32.3));
#875=CARTESIAN_POINT('Origin',(-30.8750004172325,37.000000551343,31.8));
#876=CARTESIAN_POINT('',(-30.8750004172325,37.000000551343,32.3));
#877=CARTESIAN_POINT('',(-31.3750004172325,37.000000551343,31.8));
#878=CARTESIAN_POINT('Origin',(-37.3750004172325,37.000000551343,32.3));
#879=CARTESIAN_POINT('',(-29.8750004172325,37.000000551343,32.3));
#880=CARTESIAN_POINT('',(21.5999996513128,37.000000551343,32.3));
#881=CARTESIAN_POINT('',(-29.8750004172325,37.000000551343,32.3));
#882=CARTESIAN_POINT('Origin',(-29.8750004172325,37.000000551343,32.8));
#883=CARTESIAN_POINT('',(-29.3750004172325,37.000000551343,32.8));
#884=CARTESIAN_POINT('Origin',(-29.8750004172325,37.000000551343,32.8));
#885=CARTESIAN_POINT('',(-29.3750004172325,37.000000551343,32.8));
#886=CARTESIAN_POINT('Origin',(19.5999996513128,22.750000551343,2.));
#887=CARTESIAN_POINT('',(19.5999996513128,37.000000551343,0.));
#888=CARTESIAN_POINT('',(21.5999996513128,37.000000551343,2.));
#889=CARTESIAN_POINT('Origin',(19.5999996513128,37.000000551343,2.));
#890=CARTESIAN_POINT('',(21.5999996513128,22.750000551343,2.));
#891=CARTESIAN_POINT('',(19.5999996513128,22.750000551343,0.));
#892=CARTESIAN_POINT('Origin',(16.9999995827675,27.500000551343,0.));
#893=CARTESIAN_POINT('',(-35.3750004172325,37.000000551343,0.));
#894=CARTESIAN_POINT('',(-35.3750004172325,32.250000551343,0.));
#895=CARTESIAN_POINT('',(-31.3750004172325,37.000000551343,0.));
#896=CARTESIAN_POINT('',(-11.6500001192093,27.5000004097819,0.));
#897=CARTESIAN_POINT('Origin',(-8.00000011920929,27.5000004097819,0.));
#898=CARTESIAN_POINT('Origin',(-35.3750004172325,32.250000551343,2.));
#899=CARTESIAN_POINT('',(-37.3750004172325,37.000000551343,2.));
#900=CARTESIAN_POINT('',(-37.3750004172325,32.250000551343,2.));
#901=CARTESIAN_POINT('Origin',(-35.3750004172325,37.000000551343,2.));
#902=CARTESIAN_POINT('Origin',(-37.3750004172325,37.000000551343,32.3));
#903=CARTESIAN_POINT('',(-37.3750004172325,37.000000551343,36.3));
#904=CARTESIAN_POINT('',(-37.3750004172325,37.000000551343,36.3));
#905=CARTESIAN_POINT('',(-37.3750004172325,37.000000551343,0.));
#906=CARTESIAN_POINT('Origin',(13.5999996513128,22.750000551343,8.));
#907=CARTESIAN_POINT('',(15.5999996513128,37.000000551343,8.));
#908=CARTESIAN_POINT('',(15.5999996513128,22.750000551343,8.));
#909=CARTESIAN_POINT('',(13.5999996513128,37.000000551343,6.));
#910=CARTESIAN_POINT('Origin',(13.5999996513128,37.000000551343,8.));
#911=CARTESIAN_POINT('',(13.5999996513128,22.750000551343,6.));
#912=CARTESIAN_POINT('Origin',(15.5999996513128,18.000000551343,0.));
#913=CARTESIAN_POINT('',(15.5999996513128,37.000000551343,32.3));
#914=CARTESIAN_POINT('Origin',(-35.3750004172325,37.000000551343,36.3));
#915=CARTESIAN_POINT('',(-35.3750004172325,37.000000551343,38.3));
#916=CARTESIAN_POINT('',(-35.3750004172325,37.000000551343,38.3));
#917=CARTESIAN_POINT('Origin',(-35.3750004172325,37.000000551343,36.3));
#918=CARTESIAN_POINT('Origin',(21.5999996513128,37.000000551343,38.3));
#919=CARTESIAN_POINT('',(19.5999996513128,37.000000551343,38.3));
#920=CARTESIAN_POINT('',(19.5999996513128,27.500000551343,38.3));
#921=CARTESIAN_POINT('',(-37.3750004172325,37.000000551343,38.3));
#922=CARTESIAN_POINT('Origin',(19.5999996513128,27.500000551343,36.3));
#923=CARTESIAN_POINT('',(21.5999996513128,37.000000551343,36.3));
#924=CARTESIAN_POINT('',(21.5999996513128,27.500000551343,36.3));
#925=CARTESIAN_POINT('Origin',(19.5999996513128,37.000000551343,36.3));
#926=CARTESIAN_POINT('Origin',(21.5999996513128,18.000000551343,32.3));
#927=CARTESIAN_POINT('',(21.5999996513128,37.000000551343,38.3));
#928=CARTESIAN_POINT('Origin',(-29.3750004172325,32.250000551343,8.));
#929=CARTESIAN_POINT('',(-29.3750004172325,37.000000551343,6.));
#930=CARTESIAN_POINT('',(-31.3750004172325,37.000000551343,8.));
#931=CARTESIAN_POINT('Origin',(-29.3750004172325,37.000000551343,8.));
#932=CARTESIAN_POINT('',(-31.3750004172325,32.250000551343,8.));
#933=CARTESIAN_POINT('',(-29.3750004172325,32.250000551343,6.));
#934=CARTESIAN_POINT('Origin',(-31.3750004172325,37.000000551343,0.));
#935=CARTESIAN_POINT('',(-31.3750004172325,37.000000551343,32.3));
#936=CARTESIAN_POINT('Origin',(-29.3750004172325,37.000000551343,34.0808639889604));
#937=CARTESIAN_POINT('',(-29.3750004172325,37.000000551343,17.0404319944803));
#938=CARTESIAN_POINT('Origin',(16.9999995827675,27.500000551343,6.));
#939=CARTESIAN_POINT('',(-28.0000004172325,37.000000551343,6.));
#940=CARTESIAN_POINT('',(-16.9000001192093,27.5000004097819,6.));
#941=CARTESIAN_POINT('Origin',(-8.00000011920929,27.5000004097819,6.));
#942=CARTESIAN_POINT('Origin',(61.9999995827675,37.000000551343,0.));
#943=CARTESIAN_POINT('Origin',(-8.00000011920929,27.5000004097819,6.));
#944=CARTESIAN_POINT('',(-16.9000001192093,27.5000004097819,3.));
#945=CARTESIAN_POINT('',(-16.9000001192093,27.5000004097819,6.));
#946=CARTESIAN_POINT('Origin',(-8.00000011920929,27.5000004097819,3.));
#947=CARTESIAN_POINT('Origin',(-8.00000011920929,27.5000004097819,3.));
#948=CARTESIAN_POINT('',(-11.6500001192093,27.5000004097819,3.));
#949=CARTESIAN_POINT('Origin',(-8.00000011920929,27.5000004097819,3.));
#950=CARTESIAN_POINT('Origin',(-8.00000011920929,27.5000004097819,6.));
#951=CARTESIAN_POINT('',(-11.6500001192093,27.5000004097819,6.));
#952=UNCERTAINTY_MEASURE_WITH_UNIT(LENGTH_MEASURE(0.01),#956,
'DISTANCE_ACCURACY_VALUE',
'Maximum model space distance between geometric entities at asserted c
onnectivities');
#953=UNCERTAINTY_MEASURE_WITH_UNIT(LENGTH_MEASURE(0.01),#956,
'DISTANCE_ACCURACY_VALUE',
'Maximum model space distance between geometric entities at asserted c
onnectivities');
#954=(
GEOMETRIC_REPRESENTATION_CONTEXT(3)
GLOBAL_UNCERTAINTY_ASSIGNED_CONTEXT((#952))
GLOBAL_UNIT_ASSIGNED_CONTEXT((#956,#958,#959))
REPRESENTATION_CONTEXT('','3D')
);
#955=(
GEOMETRIC_REPRESENTATION_CONTEXT(3)
GLOBAL_UNCERTAINTY_ASSIGNED_CONTEXT((#953))
GLOBAL_UNIT_ASSIGNED_CONTEXT((#956,#958,#959))
REPRESENTATION_CONTEXT('','3D')
);
#956=(
LENGTH_UNIT()
NAMED_UNIT(*)
SI_UNIT(.MILLI.,.METRE.)
);
#957=(
LENGTH_UNIT()
NAMED_UNIT(*)
SI_UNIT($,.METRE.)
);
#958=(
NAMED_UNIT(*)
PLANE_ANGLE_UNIT()
SI_UNIT($,.RADIAN.)
);
#959=(
NAMED_UNIT(*)
SI_UNIT($,.STERADIAN.)
SOLID_ANGLE_UNIT()
);
#960=SHAPE_DEFINITION_REPRESENTATION(#961,#962);
#961=PRODUCT_DEFINITION_SHAPE('',$,#964);
#962=SHAPE_REPRESENTATION('',(#568),#954);
#963=PRODUCT_DEFINITION_CONTEXT('part definition',#968,'design');
#964=PRODUCT_DEFINITION('2026-08-10-19-56-16-923','(Unsaved)',#965,#963);
#965=PRODUCT_DEFINITION_FORMATION('',$,#970);
#966=PRODUCT_RELATED_PRODUCT_CATEGORY('(Unsaved)','(Unsaved)',(#970));
#967=APPLICATION_PROTOCOL_DEFINITION('international standard',
'automotive_design',2009,#968);
#968=APPLICATION_CONTEXT(
'Core Data for Automotive Mechanical Design Process');
#969=PRODUCT_CONTEXT('part definition',#968,'mechanical');
#970=PRODUCT('2026-08-10-19-56-16-923','(Unsaved)',$,(#969));
#971=PRESENTATION_STYLE_ASSIGNMENT((#972));
#972=SURFACE_STYLE_USAGE(.BOTH.,#973);
#973=SURFACE_SIDE_STYLE('',(#974));
#974=SURFACE_STYLE_FILL_AREA(#975);
#975=FILL_AREA_STYLE('Steel - Satin',(#976));
#976=FILL_AREA_STYLE_COLOUR('Steel - Satin',#977);
#977=COLOUR_RGB('Steel - Satin',0.627450980392157,0.627450980392157,0.627450980392157);
ENDSEC;
END-ISO-10303-21;
