ISO-10303-21;
HEADER;
/* Generated by software containing ST-Developer
 * from STEP Tools, Inc. (www.steptools.com) 
 */

FILE_DESCRIPTION(
/* description */ (''),
/* implementation_level */ '2;1');

FILE_NAME(
/* name */ 'laptopMount.step',
/* time_stamp */ '2026-08-18T13:07:04+10:00',
/* author */ (''),
/* organization */ (''),
/* preprocessor_version */ 'ST-DEVELOPER v20.1',
/* originating_system */ 'Autodesk Translation Framework v14.24.0.0',
/* authorisation */ '');

FILE_SCHEMA (('AUTOMOTIVE_DESIGN { 1 0 10303 214 3 1 1 }'));
ENDSEC;

DATA;
#10=MECHANICAL_DESIGN_GEOMETRIC_PRESENTATION_REPRESENTATION('',(#13),#967);
#11=SHAPE_REPRESENTATION_RELATIONSHIP('SRR','None',#974,#12);
#12=ADVANCED_BREP_SHAPE_REPRESENTATION('',(#14),#966);
#13=STYLED_ITEM('',(#983),#14);
#14=MANIFOLD_SOLID_BREP('Body1',#559);
#15=FACE_BOUND('',#68,.T.);
#16=FACE_BOUND('',#69,.T.);
#17=FACE_BOUND('',#73,.T.);
#18=FACE_BOUND('',#74,.T.);
#19=FACE_BOUND('',#95,.T.);
#20=FACE_BOUND('',#98,.T.);
#21=PLANE('',#576);
#22=PLANE('',#579);
#23=PLANE('',#592);
#24=PLANE('',#595);
#25=PLANE('',#606);
#26=PLANE('',#608);
#27=PLANE('',#610);
#28=PLANE('',#612);
#29=PLANE('',#616);
#30=PLANE('',#618);
#31=PLANE('',#620);
#32=PLANE('',#621);
#33=PLANE('',#624);
#34=PLANE('',#628);
#35=PLANE('',#632);
#36=FACE_OUTER_BOUND('',#66,.T.);
#37=FACE_OUTER_BOUND('',#67,.T.);
#38=FACE_OUTER_BOUND('',#70,.T.);
#39=FACE_OUTER_BOUND('',#71,.T.);
#40=FACE_OUTER_BOUND('',#72,.T.);
#41=FACE_OUTER_BOUND('',#75,.T.);
#42=FACE_OUTER_BOUND('',#76,.T.);
#43=FACE_OUTER_BOUND('',#77,.T.);
#44=FACE_OUTER_BOUND('',#78,.T.);
#45=FACE_OUTER_BOUND('',#79,.T.);
#46=FACE_OUTER_BOUND('',#80,.T.);
#47=FACE_OUTER_BOUND('',#81,.T.);
#48=FACE_OUTER_BOUND('',#82,.T.);
#49=FACE_OUTER_BOUND('',#83,.T.);
#50=FACE_OUTER_BOUND('',#84,.T.);
#51=FACE_OUTER_BOUND('',#85,.T.);
#52=FACE_OUTER_BOUND('',#86,.T.);
#53=FACE_OUTER_BOUND('',#87,.T.);
#54=FACE_OUTER_BOUND('',#88,.T.);
#55=FACE_OUTER_BOUND('',#89,.T.);
#56=FACE_OUTER_BOUND('',#90,.T.);
#57=FACE_OUTER_BOUND('',#91,.T.);
#58=FACE_OUTER_BOUND('',#92,.T.);
#59=FACE_OUTER_BOUND('',#93,.T.);
#60=FACE_OUTER_BOUND('',#94,.T.);
#61=FACE_OUTER_BOUND('',#96,.T.);
#62=FACE_OUTER_BOUND('',#97,.T.);
#63=FACE_OUTER_BOUND('',#99,.T.);
#64=FACE_OUTER_BOUND('',#100,.T.);
#65=FACE_OUTER_BOUND('',#101,.T.);
#66=EDGE_LOOP('',(#358,#359,#360,#361));
#67=EDGE_LOOP('',(#362,#363,#364,#365));
#68=EDGE_LOOP('',(#366));
#69=EDGE_LOOP('',(#367));
#70=EDGE_LOOP('',(#368,#369,#370,#371,#372,#373,#374,#375,#376,#377,#378,
#379,#380,#381,#382,#383,#384,#385,#386,#387,#388,#389));
#71=EDGE_LOOP('',(#390,#391,#392,#393));
#72=EDGE_LOOP('',(#394,#395,#396,#397));
#73=EDGE_LOOP('',(#398));
#74=EDGE_LOOP('',(#399));
#75=EDGE_LOOP('',(#400,#401,#402,#403,#404,#405,#406,#407,#408,#409,#410,
#411,#412,#413,#414,#415,#416,#417,#418,#419,#420,#421));
#76=EDGE_LOOP('',(#422,#423,#424,#425));
#77=EDGE_LOOP('',(#426,#427,#428,#429));
#78=EDGE_LOOP('',(#430,#431,#432,#433));
#79=EDGE_LOOP('',(#434,#435,#436,#437));
#80=EDGE_LOOP('',(#438,#439,#440,#441));
#81=EDGE_LOOP('',(#442,#443,#444,#445));
#82=EDGE_LOOP('',(#446,#447,#448,#449));
#83=EDGE_LOOP('',(#450,#451,#452,#453));
#84=EDGE_LOOP('',(#454,#455,#456,#457));
#85=EDGE_LOOP('',(#458,#459,#460,#461));
#86=EDGE_LOOP('',(#462,#463,#464,#465));
#87=EDGE_LOOP('',(#466,#467,#468,#469));
#88=EDGE_LOOP('',(#470,#471,#472,#473));
#89=EDGE_LOOP('',(#474,#475,#476,#477));
#90=EDGE_LOOP('',(#478,#479,#480,#481));
#91=EDGE_LOOP('',(#482,#483,#484,#485));
#92=EDGE_LOOP('',(#486,#487,#488,#489));
#93=EDGE_LOOP('',(#490,#491,#492,#493));
#94=EDGE_LOOP('',(#494));
#95=EDGE_LOOP('',(#495));
#96=EDGE_LOOP('',(#496,#497,#498,#499));
#97=EDGE_LOOP('',(#500));
#98=EDGE_LOOP('',(#501));
#99=EDGE_LOOP('',(#502,#503,#504,#505));
#100=EDGE_LOOP('',(#506,#507,#508,#509));
#101=EDGE_LOOP('',(#510,#511,#512,#513));
#102=LINE('',#809,#150);
#103=LINE('',#812,#151);
#104=LINE('',#815,#152);
#105=LINE('',#817,#153);
#106=LINE('',#818,#154);
#107=LINE('',#825,#155);
#108=LINE('',#829,#156);
#109=LINE('',#833,#157);
#110=LINE('',#837,#158);
#111=LINE('',#841,#159);
#112=LINE('',#845,#160);
#113=LINE('',#849,#161);
#114=LINE('',#853,#162);
#115=LINE('',#857,#163);
#116=LINE('',#861,#164);
#117=LINE('',#867,#165);
#118=LINE('',#868,#166);
#119=LINE('',#871,#167);
#120=LINE('',#872,#168);
#121=LINE('',#881,#169);
#122=LINE('',#885,#170);
#123=LINE('',#889,#171);
#124=LINE('',#893,#172);
#125=LINE('',#897,#173);
#126=LINE('',#901,#174);
#127=LINE('',#905,#175);
#128=LINE('',#909,#176);
#129=LINE('',#911,#177);
#130=LINE('',#913,#178);
#131=LINE('',#914,#179);
#132=LINE('',#916,#180);
#133=LINE('',#918,#181);
#134=LINE('',#919,#182);
#135=LINE('',#921,#183);
#136=LINE('',#923,#184);
#137=LINE('',#924,#185);
#138=LINE('',#926,#186);
#139=LINE('',#928,#187);
#140=LINE('',#930,#188);
#141=LINE('',#932,#189);
#142=LINE('',#935,#190);
#143=LINE('',#936,#191);
#144=LINE('',#939,#192);
#145=LINE('',#941,#193);
#146=LINE('',#947,#194);
#147=LINE('',#954,#195);
#148=LINE('',#960,#196);
#149=LINE('',#962,#197);
#150=VECTOR('',#639,10.);
#151=VECTOR('',#642,10.);
#152=VECTOR('',#645,10.);
#153=VECTOR('',#646,10.);
#154=VECTOR('',#647,10.);
#155=VECTOR('',#654,10.);
#156=VECTOR('',#657,10.);
#157=VECTOR('',#660,10.);
#158=VECTOR('',#663,10.);
#159=VECTOR('',#666,10.);
#160=VECTOR('',#669,10.);
#161=VECTOR('',#672,10.);
#162=VECTOR('',#675,10.);
#163=VECTOR('',#678,10.);
#164=VECTOR('',#681,10.);
#165=VECTOR('',#688,10.);
#166=VECTOR('',#689,10.);
#167=VECTOR('',#692,10.);
#168=VECTOR('',#693,10.);
#169=VECTOR('',#702,10.);
#170=VECTOR('',#705,10.);
#171=VECTOR('',#708,10.);
#172=VECTOR('',#711,10.);
#173=VECTOR('',#714,10.);
#174=VECTOR('',#717,10.);
#175=VECTOR('',#720,10.);
#176=VECTOR('',#723,10.);
#177=VECTOR('',#726,10.);
#178=VECTOR('',#729,10.);
#179=VECTOR('',#730,10.);
#180=VECTOR('',#733,10.);
#181=VECTOR('',#736,10.);
#182=VECTOR('',#737,10.);
#183=VECTOR('',#740,10.);
#184=VECTOR('',#743,10.);
#185=VECTOR('',#744,10.);
#186=VECTOR('',#747,10.);
#187=VECTOR('',#750,10.);
#188=VECTOR('',#753,10.);
#189=VECTOR('',#756,10.);
#190=VECTOR('',#761,10.);
#191=VECTOR('',#762,10.);
#192=VECTOR('',#767,10.);
#193=VECTOR('',#770,10.);
#194=VECTOR('',#779,8.90000000000001);
#195=VECTOR('',#788,8.9);
#196=VECTOR('',#797,3.65);
#197=VECTOR('',#800,3.65);
#198=CIRCLE('',#574,2.);
#199=CIRCLE('',#575,2.);
#200=CIRCLE('',#577,3.65);
#201=CIRCLE('',#578,3.65);
#202=CIRCLE('',#580,2.);
#203=CIRCLE('',#581,2.);
#204=CIRCLE('',#582,2.);
#205=CIRCLE('',#583,1.);
#206=CIRCLE('',#584,1.);
#207=CIRCLE('',#585,2.);
#208=CIRCLE('',#586,2.);
#209=CIRCLE('',#587,2.);
#210=CIRCLE('',#588,2.);
#211=CIRCLE('',#589,2.);
#212=CIRCLE('',#591,2.);
#213=CIRCLE('',#593,8.90000000000001);
#214=CIRCLE('',#594,8.9);
#215=CIRCLE('',#596,2.);
#216=CIRCLE('',#597,2.);
#217=CIRCLE('',#598,2.);
#218=CIRCLE('',#599,2.);
#219=CIRCLE('',#600,2.);
#220=CIRCLE('',#601,1.);
#221=CIRCLE('',#602,1.);
#222=CIRCLE('',#603,2.);
#223=CIRCLE('',#604,2.);
#224=CIRCLE('',#623,8.90000000000001);
#225=CIRCLE('',#625,3.65);
#226=CIRCLE('',#627,8.9);
#227=CIRCLE('',#629,3.65);
#228=VERTEX_POINT('',#805);
#229=VERTEX_POINT('',#806);
#230=VERTEX_POINT('',#808);
#231=VERTEX_POINT('',#810);
#232=VERTEX_POINT('',#814);
#233=VERTEX_POINT('',#816);
#234=VERTEX_POINT('',#819);
#235=VERTEX_POINT('',#821);
#236=VERTEX_POINT('',#824);
#237=VERTEX_POINT('',#826);
#238=VERTEX_POINT('',#828);
#239=VERTEX_POINT('',#830);
#240=VERTEX_POINT('',#832);
#241=VERTEX_POINT('',#834);
#242=VERTEX_POINT('',#836);
#243=VERTEX_POINT('',#838);
#244=VERTEX_POINT('',#840);
#245=VERTEX_POINT('',#842);
#246=VERTEX_POINT('',#844);
#247=VERTEX_POINT('',#846);
#248=VERTEX_POINT('',#848);
#249=VERTEX_POINT('',#850);
#250=VERTEX_POINT('',#852);
#251=VERTEX_POINT('',#854);
#252=VERTEX_POINT('',#856);
#253=VERTEX_POINT('',#858);
#254=VERTEX_POINT('',#860);
#255=VERTEX_POINT('',#864);
#256=VERTEX_POINT('',#865);
#257=VERTEX_POINT('',#870);
#258=VERTEX_POINT('',#873);
#259=VERTEX_POINT('',#875);
#260=VERTEX_POINT('',#878);
#261=VERTEX_POINT('',#880);
#262=VERTEX_POINT('',#882);
#263=VERTEX_POINT('',#884);
#264=VERTEX_POINT('',#886);
#265=VERTEX_POINT('',#888);
#266=VERTEX_POINT('',#890);
#267=VERTEX_POINT('',#892);
#268=VERTEX_POINT('',#894);
#269=VERTEX_POINT('',#896);
#270=VERTEX_POINT('',#898);
#271=VERTEX_POINT('',#900);
#272=VERTEX_POINT('',#902);
#273=VERTEX_POINT('',#904);
#274=VERTEX_POINT('',#906);
#275=VERTEX_POINT('',#908);
#276=VERTEX_POINT('',#946);
#277=VERTEX_POINT('',#950);
#278=VERTEX_POINT('',#953);
#279=VERTEX_POINT('',#957);
#280=EDGE_CURVE('',#228,#229,#198,.T.);
#281=EDGE_CURVE('',#229,#230,#102,.T.);
#282=EDGE_CURVE('',#230,#231,#199,.T.);
#283=EDGE_CURVE('',#231,#228,#103,.T.);
#284=EDGE_CURVE('',#229,#232,#104,.T.);
#285=EDGE_CURVE('',#233,#232,#105,.T.);
#286=EDGE_CURVE('',#233,#230,#106,.T.);
#287=EDGE_CURVE('',#234,#234,#200,.T.);
#288=EDGE_CURVE('',#235,#235,#201,.T.);
#289=EDGE_CURVE('',#228,#236,#107,.T.);
#290=EDGE_CURVE('',#237,#236,#202,.T.);
#291=EDGE_CURVE('',#238,#237,#108,.T.);
#292=EDGE_CURVE('',#239,#238,#203,.T.);
#293=EDGE_CURVE('',#239,#240,#109,.T.);
#294=EDGE_CURVE('',#241,#240,#204,.T.);
#295=EDGE_CURVE('',#241,#242,#110,.T.);
#296=EDGE_CURVE('',#243,#242,#205,.T.);
#297=EDGE_CURVE('',#243,#244,#111,.T.);
#298=EDGE_CURVE('',#245,#244,#206,.T.);
#299=EDGE_CURVE('',#245,#246,#112,.T.);
#300=EDGE_CURVE('',#247,#246,#207,.T.);
#301=EDGE_CURVE('',#247,#248,#113,.T.);
#302=EDGE_CURVE('',#249,#248,#208,.T.);
#303=EDGE_CURVE('',#250,#249,#114,.T.);
#304=EDGE_CURVE('',#251,#250,#209,.T.);
#305=EDGE_CURVE('',#251,#252,#115,.T.);
#306=EDGE_CURVE('',#253,#252,#210,.T.);
#307=EDGE_CURVE('',#254,#253,#116,.T.);
#308=EDGE_CURVE('',#232,#254,#211,.T.);
#309=EDGE_CURVE('',#255,#256,#212,.T.);
#310=EDGE_CURVE('',#256,#237,#117,.T.);
#311=EDGE_CURVE('',#236,#255,#118,.T.);
#312=EDGE_CURVE('',#256,#257,#119,.T.);
#313=EDGE_CURVE('',#238,#257,#120,.T.);
#314=EDGE_CURVE('',#258,#258,#213,.T.);
#315=EDGE_CURVE('',#259,#259,#214,.T.);
#316=EDGE_CURVE('',#260,#233,#215,.T.);
#317=EDGE_CURVE('',#260,#261,#121,.T.);
#318=EDGE_CURVE('',#262,#261,#216,.T.);
#319=EDGE_CURVE('',#262,#263,#122,.T.);
#320=EDGE_CURVE('',#264,#263,#217,.T.);
#321=EDGE_CURVE('',#264,#265,#123,.T.);
#322=EDGE_CURVE('',#266,#265,#218,.T.);
#323=EDGE_CURVE('',#266,#267,#124,.T.);
#324=EDGE_CURVE('',#268,#267,#219,.T.);
#325=EDGE_CURVE('',#268,#269,#125,.T.);
#326=EDGE_CURVE('',#270,#269,#220,.T.);
#327=EDGE_CURVE('',#270,#271,#126,.T.);
#328=EDGE_CURVE('',#272,#271,#221,.T.);
#329=EDGE_CURVE('',#272,#273,#127,.T.);
#330=EDGE_CURVE('',#274,#273,#222,.T.);
#331=EDGE_CURVE('',#274,#275,#128,.T.);
#332=EDGE_CURVE('',#257,#275,#223,.T.);
#333=EDGE_CURVE('',#231,#255,#129,.T.);
#334=EDGE_CURVE('',#263,#251,#130,.T.);
#335=EDGE_CURVE('',#250,#264,#131,.T.);
#336=EDGE_CURVE('',#252,#262,#132,.T.);
#337=EDGE_CURVE('',#271,#243,#133,.T.);
#338=EDGE_CURVE('',#242,#272,#134,.T.);
#339=EDGE_CURVE('',#273,#241,#135,.T.);
#340=EDGE_CURVE('',#269,#245,#136,.T.);
#341=EDGE_CURVE('',#244,#270,#137,.T.);
#342=EDGE_CURVE('',#246,#268,#138,.T.);
#343=EDGE_CURVE('',#275,#239,#139,.T.);
#344=EDGE_CURVE('',#240,#274,#140,.T.);
#345=EDGE_CURVE('',#267,#247,#141,.T.);
#346=EDGE_CURVE('',#265,#249,#142,.T.);
#347=EDGE_CURVE('',#248,#266,#143,.T.);
#348=EDGE_CURVE('',#254,#260,#144,.T.);
#349=EDGE_CURVE('',#261,#253,#145,.T.);
#350=EDGE_CURVE('',#258,#276,#146,.T.);
#351=EDGE_CURVE('',#276,#276,#224,.T.);
#352=EDGE_CURVE('',#277,#277,#225,.T.);
#353=EDGE_CURVE('',#259,#278,#147,.T.);
#354=EDGE_CURVE('',#278,#278,#226,.T.);
#355=EDGE_CURVE('',#279,#279,#227,.T.);
#356=EDGE_CURVE('',#277,#235,#148,.T.);
#357=EDGE_CURVE('',#279,#234,#149,.T.);
#358=ORIENTED_EDGE('',*,*,#280,.T.);
#359=ORIENTED_EDGE('',*,*,#281,.T.);
#360=ORIENTED_EDGE('',*,*,#282,.T.);
#361=ORIENTED_EDGE('',*,*,#283,.T.);
#362=ORIENTED_EDGE('',*,*,#281,.F.);
#363=ORIENTED_EDGE('',*,*,#284,.T.);
#364=ORIENTED_EDGE('',*,*,#285,.F.);
#365=ORIENTED_EDGE('',*,*,#286,.T.);
#366=ORIENTED_EDGE('',*,*,#287,.T.);
#367=ORIENTED_EDGE('',*,*,#288,.T.);
#368=ORIENTED_EDGE('',*,*,#280,.F.);
#369=ORIENTED_EDGE('',*,*,#289,.T.);
#370=ORIENTED_EDGE('',*,*,#290,.F.);
#371=ORIENTED_EDGE('',*,*,#291,.F.);
#372=ORIENTED_EDGE('',*,*,#292,.F.);
#373=ORIENTED_EDGE('',*,*,#293,.T.);
#374=ORIENTED_EDGE('',*,*,#294,.F.);
#375=ORIENTED_EDGE('',*,*,#295,.T.);
#376=ORIENTED_EDGE('',*,*,#296,.F.);
#377=ORIENTED_EDGE('',*,*,#297,.T.);
#378=ORIENTED_EDGE('',*,*,#298,.F.);
#379=ORIENTED_EDGE('',*,*,#299,.T.);
#380=ORIENTED_EDGE('',*,*,#300,.F.);
#381=ORIENTED_EDGE('',*,*,#301,.T.);
#382=ORIENTED_EDGE('',*,*,#302,.F.);
#383=ORIENTED_EDGE('',*,*,#303,.F.);
#384=ORIENTED_EDGE('',*,*,#304,.F.);
#385=ORIENTED_EDGE('',*,*,#305,.T.);
#386=ORIENTED_EDGE('',*,*,#306,.F.);
#387=ORIENTED_EDGE('',*,*,#307,.F.);
#388=ORIENTED_EDGE('',*,*,#308,.F.);
#389=ORIENTED_EDGE('',*,*,#284,.F.);
#390=ORIENTED_EDGE('',*,*,#309,.T.);
#391=ORIENTED_EDGE('',*,*,#310,.T.);
#392=ORIENTED_EDGE('',*,*,#290,.T.);
#393=ORIENTED_EDGE('',*,*,#311,.T.);
#394=ORIENTED_EDGE('',*,*,#310,.F.);
#395=ORIENTED_EDGE('',*,*,#312,.T.);
#396=ORIENTED_EDGE('',*,*,#313,.F.);
#397=ORIENTED_EDGE('',*,*,#291,.T.);
#398=ORIENTED_EDGE('',*,*,#314,.T.);
#399=ORIENTED_EDGE('',*,*,#315,.T.);
#400=ORIENTED_EDGE('',*,*,#282,.F.);
#401=ORIENTED_EDGE('',*,*,#286,.F.);
#402=ORIENTED_EDGE('',*,*,#316,.F.);
#403=ORIENTED_EDGE('',*,*,#317,.T.);
#404=ORIENTED_EDGE('',*,*,#318,.F.);
#405=ORIENTED_EDGE('',*,*,#319,.T.);
#406=ORIENTED_EDGE('',*,*,#320,.F.);
#407=ORIENTED_EDGE('',*,*,#321,.T.);
#408=ORIENTED_EDGE('',*,*,#322,.F.);
#409=ORIENTED_EDGE('',*,*,#323,.T.);
#410=ORIENTED_EDGE('',*,*,#324,.F.);
#411=ORIENTED_EDGE('',*,*,#325,.T.);
#412=ORIENTED_EDGE('',*,*,#326,.F.);
#413=ORIENTED_EDGE('',*,*,#327,.T.);
#414=ORIENTED_EDGE('',*,*,#328,.F.);
#415=ORIENTED_EDGE('',*,*,#329,.T.);
#416=ORIENTED_EDGE('',*,*,#330,.F.);
#417=ORIENTED_EDGE('',*,*,#331,.T.);
#418=ORIENTED_EDGE('',*,*,#332,.F.);
#419=ORIENTED_EDGE('',*,*,#312,.F.);
#420=ORIENTED_EDGE('',*,*,#309,.F.);
#421=ORIENTED_EDGE('',*,*,#333,.F.);
#422=ORIENTED_EDGE('',*,*,#320,.T.);
#423=ORIENTED_EDGE('',*,*,#334,.T.);
#424=ORIENTED_EDGE('',*,*,#304,.T.);
#425=ORIENTED_EDGE('',*,*,#335,.T.);
#426=ORIENTED_EDGE('',*,*,#334,.F.);
#427=ORIENTED_EDGE('',*,*,#319,.F.);
#428=ORIENTED_EDGE('',*,*,#336,.F.);
#429=ORIENTED_EDGE('',*,*,#305,.F.);
#430=ORIENTED_EDGE('',*,*,#328,.T.);
#431=ORIENTED_EDGE('',*,*,#337,.T.);
#432=ORIENTED_EDGE('',*,*,#296,.T.);
#433=ORIENTED_EDGE('',*,*,#338,.T.);
#434=ORIENTED_EDGE('',*,*,#338,.F.);
#435=ORIENTED_EDGE('',*,*,#295,.F.);
#436=ORIENTED_EDGE('',*,*,#339,.F.);
#437=ORIENTED_EDGE('',*,*,#329,.F.);
#438=ORIENTED_EDGE('',*,*,#326,.T.);
#439=ORIENTED_EDGE('',*,*,#340,.T.);
#440=ORIENTED_EDGE('',*,*,#298,.T.);
#441=ORIENTED_EDGE('',*,*,#341,.T.);
#442=ORIENTED_EDGE('',*,*,#340,.F.);
#443=ORIENTED_EDGE('',*,*,#325,.F.);
#444=ORIENTED_EDGE('',*,*,#342,.F.);
#445=ORIENTED_EDGE('',*,*,#299,.F.);
#446=ORIENTED_EDGE('',*,*,#332,.T.);
#447=ORIENTED_EDGE('',*,*,#343,.T.);
#448=ORIENTED_EDGE('',*,*,#292,.T.);
#449=ORIENTED_EDGE('',*,*,#313,.T.);
#450=ORIENTED_EDGE('',*,*,#343,.F.);
#451=ORIENTED_EDGE('',*,*,#331,.F.);
#452=ORIENTED_EDGE('',*,*,#344,.F.);
#453=ORIENTED_EDGE('',*,*,#293,.F.);
#454=ORIENTED_EDGE('',*,*,#300,.T.);
#455=ORIENTED_EDGE('',*,*,#342,.T.);
#456=ORIENTED_EDGE('',*,*,#324,.T.);
#457=ORIENTED_EDGE('',*,*,#345,.T.);
#458=ORIENTED_EDGE('',*,*,#330,.T.);
#459=ORIENTED_EDGE('',*,*,#339,.T.);
#460=ORIENTED_EDGE('',*,*,#294,.T.);
#461=ORIENTED_EDGE('',*,*,#344,.T.);
#462=ORIENTED_EDGE('',*,*,#322,.T.);
#463=ORIENTED_EDGE('',*,*,#346,.T.);
#464=ORIENTED_EDGE('',*,*,#302,.T.);
#465=ORIENTED_EDGE('',*,*,#347,.T.);
#466=ORIENTED_EDGE('',*,*,#335,.F.);
#467=ORIENTED_EDGE('',*,*,#303,.T.);
#468=ORIENTED_EDGE('',*,*,#346,.F.);
#469=ORIENTED_EDGE('',*,*,#321,.F.);
#470=ORIENTED_EDGE('',*,*,#316,.T.);
#471=ORIENTED_EDGE('',*,*,#285,.T.);
#472=ORIENTED_EDGE('',*,*,#308,.T.);
#473=ORIENTED_EDGE('',*,*,#348,.T.);
#474=ORIENTED_EDGE('',*,*,#348,.F.);
#475=ORIENTED_EDGE('',*,*,#307,.T.);
#476=ORIENTED_EDGE('',*,*,#349,.F.);
#477=ORIENTED_EDGE('',*,*,#317,.F.);
#478=ORIENTED_EDGE('',*,*,#318,.T.);
#479=ORIENTED_EDGE('',*,*,#349,.T.);
#480=ORIENTED_EDGE('',*,*,#306,.T.);
#481=ORIENTED_EDGE('',*,*,#336,.T.);
#482=ORIENTED_EDGE('',*,*,#337,.F.);
#483=ORIENTED_EDGE('',*,*,#327,.F.);
#484=ORIENTED_EDGE('',*,*,#341,.F.);
#485=ORIENTED_EDGE('',*,*,#297,.F.);
#486=ORIENTED_EDGE('',*,*,#345,.F.);
#487=ORIENTED_EDGE('',*,*,#323,.F.);
#488=ORIENTED_EDGE('',*,*,#347,.F.);
#489=ORIENTED_EDGE('',*,*,#301,.F.);
#490=ORIENTED_EDGE('',*,*,#314,.F.);
#491=ORIENTED_EDGE('',*,*,#350,.T.);
#492=ORIENTED_EDGE('',*,*,#351,.T.);
#493=ORIENTED_EDGE('',*,*,#350,.F.);
#494=ORIENTED_EDGE('',*,*,#351,.F.);
#495=ORIENTED_EDGE('',*,*,#352,.F.);
#496=ORIENTED_EDGE('',*,*,#315,.F.);
#497=ORIENTED_EDGE('',*,*,#353,.T.);
#498=ORIENTED_EDGE('',*,*,#354,.T.);
#499=ORIENTED_EDGE('',*,*,#353,.F.);
#500=ORIENTED_EDGE('',*,*,#354,.F.);
#501=ORIENTED_EDGE('',*,*,#355,.F.);
#502=ORIENTED_EDGE('',*,*,#352,.T.);
#503=ORIENTED_EDGE('',*,*,#356,.T.);
#504=ORIENTED_EDGE('',*,*,#288,.F.);
#505=ORIENTED_EDGE('',*,*,#356,.F.);
#506=ORIENTED_EDGE('',*,*,#355,.T.);
#507=ORIENTED_EDGE('',*,*,#357,.T.);
#508=ORIENTED_EDGE('',*,*,#287,.F.);
#509=ORIENTED_EDGE('',*,*,#357,.F.);
#510=ORIENTED_EDGE('',*,*,#283,.F.);
#511=ORIENTED_EDGE('',*,*,#333,.T.);
#512=ORIENTED_EDGE('',*,*,#311,.F.);
#513=ORIENTED_EDGE('',*,*,#289,.F.);
#514=CYLINDRICAL_SURFACE('',#573,2.);
#515=CYLINDRICAL_SURFACE('',#590,2.);
#516=CYLINDRICAL_SURFACE('',#605,2.);
#517=CYLINDRICAL_SURFACE('',#607,1.);
#518=CYLINDRICAL_SURFACE('',#609,1.);
#519=CYLINDRICAL_SURFACE('',#611,2.);
#520=CYLINDRICAL_SURFACE('',#613,2.);
#521=CYLINDRICAL_SURFACE('',#614,2.);
#522=CYLINDRICAL_SURFACE('',#615,2.);
#523=CYLINDRICAL_SURFACE('',#617,2.);
#524=CYLINDRICAL_SURFACE('',#619,2.);
#525=CYLINDRICAL_SURFACE('',#622,8.90000000000001);
#526=CYLINDRICAL_SURFACE('',#626,8.9);
#527=CYLINDRICAL_SURFACE('',#630,3.65);
#528=CYLINDRICAL_SURFACE('',#631,3.65);
#529=ADVANCED_FACE('',(#36),#514,.T.);
#530=ADVANCED_FACE('',(#37,#15,#16),#21,.F.);
#531=ADVANCED_FACE('',(#38),#22,.T.);
#532=ADVANCED_FACE('',(#39),#515,.T.);
#533=ADVANCED_FACE('',(#40,#17,#18),#23,.T.);
#534=ADVANCED_FACE('',(#41),#24,.T.);
#535=ADVANCED_FACE('',(#42),#516,.T.);
#536=ADVANCED_FACE('',(#43),#25,.T.);
#537=ADVANCED_FACE('',(#44),#517,.T.);
#538=ADVANCED_FACE('',(#45),#26,.T.);
#539=ADVANCED_FACE('',(#46),#518,.T.);
#540=ADVANCED_FACE('',(#47),#27,.T.);
#541=ADVANCED_FACE('',(#48),#519,.F.);
#542=ADVANCED_FACE('',(#49),#28,.T.);
#543=ADVANCED_FACE('',(#50),#520,.F.);
#544=ADVANCED_FACE('',(#51),#521,.F.);
#545=ADVANCED_FACE('',(#52),#522,.F.);
#546=ADVANCED_FACE('',(#53),#29,.T.);
#547=ADVANCED_FACE('',(#54),#523,.T.);
#548=ADVANCED_FACE('',(#55),#30,.T.);
#549=ADVANCED_FACE('',(#56),#524,.T.);
#550=ADVANCED_FACE('',(#57),#31,.T.);
#551=ADVANCED_FACE('',(#58),#32,.T.);
#552=ADVANCED_FACE('',(#59),#525,.F.);
#553=ADVANCED_FACE('',(#60,#19),#33,.T.);
#554=ADVANCED_FACE('',(#61),#526,.F.);
#555=ADVANCED_FACE('',(#62,#20),#34,.T.);
#556=ADVANCED_FACE('',(#63),#527,.F.);
#557=ADVANCED_FACE('',(#64),#528,.F.);
#558=ADVANCED_FACE('',(#65),#35,.T.);
#559=CLOSED_SHELL('',(#529,#530,#531,#532,#533,#534,#535,#536,#537,#538,
#539,#540,#541,#542,#543,#544,#545,#546,#547,#548,#549,#550,#551,#552,#553,
#554,#555,#556,#557,#558));
#560=DERIVED_UNIT_ELEMENT(#562,1.);
#561=DERIVED_UNIT_ELEMENT(#969,-3.);
#562=(
MASS_UNIT()
NAMED_UNIT(*)
SI_UNIT(.KILO.,.GRAM.)
);
#563=DERIVED_UNIT((#560,#561));
#564=MEASURE_REPRESENTATION_ITEM('density measure',
POSITIVE_RATIO_MEASURE(7850.),#563);
#565=PROPERTY_DEFINITION_REPRESENTATION(#570,#567);
#566=PROPERTY_DEFINITION_REPRESENTATION(#571,#568);
#567=REPRESENTATION('material name',(#569),#966);
#568=REPRESENTATION('density',(#564),#966);
#569=DESCRIPTIVE_REPRESENTATION_ITEM('Steel','Steel');
#570=PROPERTY_DEFINITION('material property','material name',#976);
#571=PROPERTY_DEFINITION('material property','density of part',#976);
#572=AXIS2_PLACEMENT_3D('',#803,#633,#634);
#573=AXIS2_PLACEMENT_3D('',#804,#635,#636);
#574=AXIS2_PLACEMENT_3D('',#807,#637,#638);
#575=AXIS2_PLACEMENT_3D('',#811,#640,#641);
#576=AXIS2_PLACEMENT_3D('',#813,#643,#644);
#577=AXIS2_PLACEMENT_3D('',#820,#648,#649);
#578=AXIS2_PLACEMENT_3D('',#822,#650,#651);
#579=AXIS2_PLACEMENT_3D('',#823,#652,#653);
#580=AXIS2_PLACEMENT_3D('',#827,#655,#656);
#581=AXIS2_PLACEMENT_3D('',#831,#658,#659);
#582=AXIS2_PLACEMENT_3D('',#835,#661,#662);
#583=AXIS2_PLACEMENT_3D('',#839,#664,#665);
#584=AXIS2_PLACEMENT_3D('',#843,#667,#668);
#585=AXIS2_PLACEMENT_3D('',#847,#670,#671);
#586=AXIS2_PLACEMENT_3D('',#851,#673,#674);
#587=AXIS2_PLACEMENT_3D('',#855,#676,#677);
#588=AXIS2_PLACEMENT_3D('',#859,#679,#680);
#589=AXIS2_PLACEMENT_3D('',#862,#682,#683);
#590=AXIS2_PLACEMENT_3D('',#863,#684,#685);
#591=AXIS2_PLACEMENT_3D('',#866,#686,#687);
#592=AXIS2_PLACEMENT_3D('',#869,#690,#691);
#593=AXIS2_PLACEMENT_3D('',#874,#694,#695);
#594=AXIS2_PLACEMENT_3D('',#876,#696,#697);
#595=AXIS2_PLACEMENT_3D('',#877,#698,#699);
#596=AXIS2_PLACEMENT_3D('',#879,#700,#701);
#597=AXIS2_PLACEMENT_3D('',#883,#703,#704);
#598=AXIS2_PLACEMENT_3D('',#887,#706,#707);
#599=AXIS2_PLACEMENT_3D('',#891,#709,#710);
#600=AXIS2_PLACEMENT_3D('',#895,#712,#713);
#601=AXIS2_PLACEMENT_3D('',#899,#715,#716);
#602=AXIS2_PLACEMENT_3D('',#903,#718,#719);
#603=AXIS2_PLACEMENT_3D('',#907,#721,#722);
#604=AXIS2_PLACEMENT_3D('',#910,#724,#725);
#605=AXIS2_PLACEMENT_3D('',#912,#727,#728);
#606=AXIS2_PLACEMENT_3D('',#915,#731,#732);
#607=AXIS2_PLACEMENT_3D('',#917,#734,#735);
#608=AXIS2_PLACEMENT_3D('',#920,#738,#739);
#609=AXIS2_PLACEMENT_3D('',#922,#741,#742);
#610=AXIS2_PLACEMENT_3D('',#925,#745,#746);
#611=AXIS2_PLACEMENT_3D('',#927,#748,#749);
#612=AXIS2_PLACEMENT_3D('',#929,#751,#752);
#613=AXIS2_PLACEMENT_3D('',#931,#754,#755);
#614=AXIS2_PLACEMENT_3D('',#933,#757,#758);
#615=AXIS2_PLACEMENT_3D('',#934,#759,#760);
#616=AXIS2_PLACEMENT_3D('',#937,#763,#764);
#617=AXIS2_PLACEMENT_3D('',#938,#765,#766);
#618=AXIS2_PLACEMENT_3D('',#940,#768,#769);
#619=AXIS2_PLACEMENT_3D('',#942,#771,#772);
#620=AXIS2_PLACEMENT_3D('',#943,#773,#774);
#621=AXIS2_PLACEMENT_3D('',#944,#775,#776);
#622=AXIS2_PLACEMENT_3D('',#945,#777,#778);
#623=AXIS2_PLACEMENT_3D('',#948,#780,#781);
#624=AXIS2_PLACEMENT_3D('',#949,#782,#783);
#625=AXIS2_PLACEMENT_3D('',#951,#784,#785);
#626=AXIS2_PLACEMENT_3D('',#952,#786,#787);
#627=AXIS2_PLACEMENT_3D('',#955,#789,#790);
#628=AXIS2_PLACEMENT_3D('',#956,#791,#792);
#629=AXIS2_PLACEMENT_3D('',#958,#793,#794);
#630=AXIS2_PLACEMENT_3D('',#959,#795,#796);
#631=AXIS2_PLACEMENT_3D('',#961,#798,#799);
#632=AXIS2_PLACEMENT_3D('',#963,#801,#802);
#633=DIRECTION('axis',(0.,0.,1.));
#634=DIRECTION('refdir',(1.,0.,0.));
#635=DIRECTION('center_axis',(0.,-1.,0.));
#636=DIRECTION('ref_axis',(0.707106781186549,0.,-0.707106781186546));
#637=DIRECTION('center_axis',(0.,1.,0.));
#638=DIRECTION('ref_axis',(0.707106781186549,0.,-0.707106781186546));
#639=DIRECTION('',(0.,1.,0.));
#640=DIRECTION('center_axis',(0.,-1.,0.));
#641=DIRECTION('ref_axis',(0.707106781186549,0.,-0.707106781186546));
#642=DIRECTION('',(0.,-1.,0.));
#643=DIRECTION('center_axis',(0.,0.,1.));
#644=DIRECTION('ref_axis',(1.,0.,0.));
#645=DIRECTION('',(-1.,0.,0.));
#646=DIRECTION('',(0.,-1.,0.));
#647=DIRECTION('',(1.,0.,0.));
#648=DIRECTION('center_axis',(0.,0.,1.));
#649=DIRECTION('ref_axis',(1.,0.,0.));
#650=DIRECTION('center_axis',(0.,0.,1.));
#651=DIRECTION('ref_axis',(1.,0.,0.));
#652=DIRECTION('center_axis',(0.,-1.,0.));
#653=DIRECTION('ref_axis',(1.,0.,0.));
#654=DIRECTION('',(0.,0.,1.));
#655=DIRECTION('center_axis',(0.,1.,0.));
#656=DIRECTION('ref_axis',(0.707106781186549,0.,0.707106781186546));
#657=DIRECTION('',(1.,0.,0.));
#658=DIRECTION('center_axis',(0.,-1.,0.));
#659=DIRECTION('ref_axis',(-0.707106781186548,0.,-0.707106781186547));
#660=DIRECTION('',(0.,0.,1.));
#661=DIRECTION('center_axis',(0.,-1.,0.));
#662=DIRECTION('ref_axis',(-0.707106781186546,0.,0.707106781186549));
#663=DIRECTION('',(1.,0.,0.));
#664=DIRECTION('center_axis',(0.,1.,0.));
#665=DIRECTION('ref_axis',(0.707106781186548,0.,-0.707106781186548));
#666=DIRECTION('',(0.,0.,1.));
#667=DIRECTION('center_axis',(0.,1.,0.));
#668=DIRECTION('ref_axis',(0.707106781186548,0.,0.707106781186548));
#669=DIRECTION('',(-1.,0.,0.));
#670=DIRECTION('center_axis',(0.,-1.,0.));
#671=DIRECTION('ref_axis',(-0.707106781186546,0.,-0.707106781186549));
#672=DIRECTION('',(0.,0.,1.));
#673=DIRECTION('center_axis',(0.,-1.,0.));
#674=DIRECTION('ref_axis',(-0.707106781186544,0.,0.707106781186551));
#675=DIRECTION('',(-1.,0.,0.));
#676=DIRECTION('center_axis',(0.,1.,0.));
#677=DIRECTION('ref_axis',(0.707106781186544,0.,-0.707106781186551));
#678=DIRECTION('',(-1.,0.,0.));
#679=DIRECTION('center_axis',(0.,1.,0.));
#680=DIRECTION('ref_axis',(-0.707106781186546,0.,0.707106781186549));
#681=DIRECTION('',(0.,0.,1.));
#682=DIRECTION('center_axis',(0.,1.,0.));
#683=DIRECTION('ref_axis',(-0.707106781186548,0.,-0.707106781186547));
#684=DIRECTION('center_axis',(0.,1.,0.));
#685=DIRECTION('ref_axis',(0.707106781186549,0.,0.707106781186546));
#686=DIRECTION('center_axis',(0.,-1.,0.));
#687=DIRECTION('ref_axis',(0.707106781186549,0.,0.707106781186546));
#688=DIRECTION('',(0.,-1.,0.));
#689=DIRECTION('',(0.,1.,0.));
#690=DIRECTION('center_axis',(0.,0.,1.));
#691=DIRECTION('ref_axis',(1.,0.,0.));
#692=DIRECTION('',(-1.,0.,0.));
#693=DIRECTION('',(0.,1.,0.));
#694=DIRECTION('center_axis',(0.,0.,-1.));
#695=DIRECTION('ref_axis',(1.,0.,0.));
#696=DIRECTION('center_axis',(0.,0.,-1.));
#697=DIRECTION('ref_axis',(1.,0.,0.));
#698=DIRECTION('center_axis',(0.,1.,0.));
#699=DIRECTION('ref_axis',(-1.,0.,0.));
#700=DIRECTION('center_axis',(0.,-1.,0.));
#701=DIRECTION('ref_axis',(-0.707106781186548,0.,-0.707106781186547));
#702=DIRECTION('',(0.,0.,1.));
#703=DIRECTION('center_axis',(0.,-1.,0.));
#704=DIRECTION('ref_axis',(-0.707106781186546,0.,0.707106781186549));
#705=DIRECTION('',(1.,0.,0.));
#706=DIRECTION('center_axis',(0.,-1.,0.));
#707=DIRECTION('ref_axis',(0.707106781186544,0.,-0.707106781186551));
#708=DIRECTION('',(-1.,0.,0.));
#709=DIRECTION('center_axis',(0.,1.,0.));
#710=DIRECTION('ref_axis',(-0.707106781186544,0.,0.707106781186551));
#711=DIRECTION('',(0.,0.,-1.));
#712=DIRECTION('center_axis',(0.,1.,0.));
#713=DIRECTION('ref_axis',(-0.707106781186546,0.,-0.707106781186549));
#714=DIRECTION('',(1.,0.,0.));
#715=DIRECTION('center_axis',(0.,-1.,0.));
#716=DIRECTION('ref_axis',(0.707106781186548,0.,0.707106781186548));
#717=DIRECTION('',(0.,0.,-1.));
#718=DIRECTION('center_axis',(0.,-1.,0.));
#719=DIRECTION('ref_axis',(0.707106781186548,0.,-0.707106781186548));
#720=DIRECTION('',(-1.,0.,0.));
#721=DIRECTION('center_axis',(0.,1.,0.));
#722=DIRECTION('ref_axis',(-0.707106781186546,0.,0.707106781186549));
#723=DIRECTION('',(0.,0.,-1.));
#724=DIRECTION('center_axis',(0.,1.,0.));
#725=DIRECTION('ref_axis',(-0.707106781186548,0.,-0.707106781186547));
#726=DIRECTION('',(0.,0.,1.));
#727=DIRECTION('center_axis',(0.,1.,0.));
#728=DIRECTION('ref_axis',(0.707106781186548,0.,0.707106781186548));
#729=DIRECTION('',(0.,-1.,0.));
#730=DIRECTION('',(0.,1.,0.));
#731=DIRECTION('center_axis',(0.,0.,1.));
#732=DIRECTION('ref_axis',(1.,0.,0.));
#733=DIRECTION('',(0.,1.,0.));
#734=DIRECTION('center_axis',(0.,1.,0.));
#735=DIRECTION('ref_axis',(0.707106781186548,0.,-0.707106781186548));
#736=DIRECTION('',(0.,-1.,0.));
#737=DIRECTION('',(0.,1.,0.));
#738=DIRECTION('center_axis',(0.,0.,-1.));
#739=DIRECTION('ref_axis',(-1.,0.,0.));
#740=DIRECTION('',(0.,-1.,0.));
#741=DIRECTION('center_axis',(0.,1.,0.));
#742=DIRECTION('ref_axis',(0.707106781186548,0.,0.707106781186548));
#743=DIRECTION('',(0.,-1.,0.));
#744=DIRECTION('',(0.,1.,0.));
#745=DIRECTION('center_axis',(0.,0.,1.));
#746=DIRECTION('ref_axis',(1.,0.,0.));
#747=DIRECTION('',(0.,1.,0.));
#748=DIRECTION('center_axis',(0.,-1.,0.));
#749=DIRECTION('ref_axis',(-0.707106781186548,0.,-0.707106781186547));
#750=DIRECTION('',(0.,-1.,0.));
#751=DIRECTION('center_axis',(1.,0.,0.));
#752=DIRECTION('ref_axis',(0.,0.,-1.));
#753=DIRECTION('',(0.,1.,0.));
#754=DIRECTION('center_axis',(0.,1.,0.));
#755=DIRECTION('ref_axis',(-0.707106781186546,0.,-0.707106781186549));
#756=DIRECTION('',(0.,-1.,0.));
#757=DIRECTION('center_axis',(0.,-1.,0.));
#758=DIRECTION('ref_axis',(-0.707106781186546,0.,0.707106781186549));
#759=DIRECTION('center_axis',(0.,-1.,0.));
#760=DIRECTION('ref_axis',(-0.707106781186544,0.,0.707106781186551));
#761=DIRECTION('',(0.,-1.,0.));
#762=DIRECTION('',(0.,1.,0.));
#763=DIRECTION('center_axis',(0.,0.,-1.));
#764=DIRECTION('ref_axis',(-1.,0.,0.));
#765=DIRECTION('center_axis',(0.,1.,0.));
#766=DIRECTION('ref_axis',(-0.707106781186548,0.,-0.707106781186547));
#767=DIRECTION('',(0.,1.,0.));
#768=DIRECTION('center_axis',(-1.,0.,0.));
#769=DIRECTION('ref_axis',(0.,-1.,0.));
#770=DIRECTION('',(0.,-1.,0.));
#771=DIRECTION('center_axis',(0.,1.,0.));
#772=DIRECTION('ref_axis',(-0.707106781186546,0.,0.707106781186549));
#773=DIRECTION('center_axis',(1.,0.,0.));
#774=DIRECTION('ref_axis',(0.,0.,-1.));
#775=DIRECTION('center_axis',(1.,0.,0.));
#776=DIRECTION('ref_axis',(0.,0.,-1.));
#777=DIRECTION('center_axis',(0.,0.,-1.));
#778=DIRECTION('ref_axis',(1.,0.,0.));
#779=DIRECTION('',(0.,0.,-1.));
#780=DIRECTION('center_axis',(0.,0.,-1.));
#781=DIRECTION('ref_axis',(1.,0.,0.));
#782=DIRECTION('center_axis',(0.,0.,1.));
#783=DIRECTION('ref_axis',(1.,0.,0.));
#784=DIRECTION('center_axis',(0.,0.,1.));
#785=DIRECTION('ref_axis',(1.,0.,0.));
#786=DIRECTION('center_axis',(0.,0.,-1.));
#787=DIRECTION('ref_axis',(1.,0.,0.));
#788=DIRECTION('',(0.,0.,-1.));
#789=DIRECTION('center_axis',(0.,0.,-1.));
#790=DIRECTION('ref_axis',(1.,0.,0.));
#791=DIRECTION('center_axis',(0.,0.,1.));
#792=DIRECTION('ref_axis',(1.,0.,0.));
#793=DIRECTION('center_axis',(0.,0.,1.));
#794=DIRECTION('ref_axis',(1.,0.,0.));
#795=DIRECTION('center_axis',(0.,0.,-1.));
#796=DIRECTION('ref_axis',(1.,0.,0.));
#797=DIRECTION('',(0.,0.,-1.));
#798=DIRECTION('center_axis',(0.,0.,-1.));
#799=DIRECTION('ref_axis',(1.,0.,0.));
#800=DIRECTION('',(0.,0.,-1.));
#801=DIRECTION('center_axis',(1.,0.,0.));
#802=DIRECTION('ref_axis',(0.,1.,0.));
#803=CARTESIAN_POINT('',(0.,0.,0.));
#804=CARTESIAN_POINT('Origin',(59.9999995827675,22.750000551343,2.));
#805=CARTESIAN_POINT('',(61.9999995827675,8.00000055134296,2.));
#806=CARTESIAN_POINT('',(59.9999995827675,8.00000055134296,0.));
#807=CARTESIAN_POINT('Origin',(59.9999995827675,8.00000055134296,2.));
#808=CARTESIAN_POINT('',(59.9999995827675,47.000000551343,0.));
#809=CARTESIAN_POINT('',(59.9999995827675,22.750000551343,0.));
#810=CARTESIAN_POINT('',(62.000000923872,47.000000551343,2.));
#811=CARTESIAN_POINT('Origin',(59.9999995827675,47.000000551343,2.));
#812=CARTESIAN_POINT('',(61.9999995827675,22.750000551343,2.));
#813=CARTESIAN_POINT('Origin',(16.9999995827675,27.500000551343,0.));
#814=CARTESIAN_POINT('',(-26.0000004172325,8.00000055134296,0.));
#815=CARTESIAN_POINT('',(61.9999995827675,8.00000055134296,0.));
#816=CARTESIAN_POINT('',(-26.0000004172325,47.000000551343,0.));
#817=CARTESIAN_POINT('',(-26.0000004172325,32.250000551343,0.));
#818=CARTESIAN_POINT('',(-27.999999076128,47.000000551343,0.));
#819=CARTESIAN_POINT('',(-11.6500001192093,27.5000004097819,0.));
#820=CARTESIAN_POINT('Origin',(-8.00000011920929,27.5000004097819,0.));
#821=CARTESIAN_POINT('',(38.3500006258488,27.5000004097819,0.));
#822=CARTESIAN_POINT('Origin',(42.0000006258488,27.5000004097819,0.));
#823=CARTESIAN_POINT('Origin',(-28.0000004172325,8.00000055134296,0.));
#824=CARTESIAN_POINT('',(61.9999995827675,8.00000055134296,4.));
#825=CARTESIAN_POINT('',(61.9999995827675,8.00000055134296,0.));
#826=CARTESIAN_POINT('',(59.9999995827675,8.00000055134296,6.));
#827=CARTESIAN_POINT('Origin',(59.9999995827675,8.00000055134296,4.));
#828=CARTESIAN_POINT('',(-21.9999993741512,8.00000055134296,6.));
#829=CARTESIAN_POINT('',(61.9999995827675,8.00000055134296,6.));
#830=CARTESIAN_POINT('',(-23.9999993741512,8.00000055134296,8.));
#831=CARTESIAN_POINT('Origin',(-21.9999993741512,8.00000055134296,8.));
#832=CARTESIAN_POINT('',(-23.9999993741512,8.00000055134296,26.2499998658895));
#833=CARTESIAN_POINT('',(-23.9999993741512,8.00000055134296,5.99999986588955));
#834=CARTESIAN_POINT('',(-21.9999993741512,8.00000055134296,28.2499998658895));
#835=CARTESIAN_POINT('Origin',(-21.9999993741512,8.00000055134296,26.2499998658895));
#836=CARTESIAN_POINT('',(61.0000006258488,8.00000055134296,28.2499998658895));
#837=CARTESIAN_POINT('',(-23.9999993741512,8.00000055134296,28.2499998658895));
#838=CARTESIAN_POINT('',(62.0000006258488,8.00000055134296,29.2499998658895));
#839=CARTESIAN_POINT('Origin',(61.0000006258488,8.00000055134296,29.2499998658895));
#840=CARTESIAN_POINT('',(62.0000006258488,8.00000055134296,30.2499998658896));
#841=CARTESIAN_POINT('',(62.0000006258488,8.00000055134296,28.2499998658895));
#842=CARTESIAN_POINT('',(61.0000006258488,8.00000055134296,31.2499998658896));
#843=CARTESIAN_POINT('Origin',(61.0000006258488,8.00000055134296,30.2499998658896));
#844=CARTESIAN_POINT('',(-21.9999993741512,8.00000055134296,31.2499998658896));
#845=CARTESIAN_POINT('',(62.0000006258488,8.00000055134296,31.2499998658896));
#846=CARTESIAN_POINT('',(-23.9999993741512,8.00000055134296,33.2499998658896));
#847=CARTESIAN_POINT('Origin',(-21.9999993741512,8.00000055134296,33.2499998658896));
#848=CARTESIAN_POINT('',(-23.9999993741512,8.00000055134296,51.4999998658895));
#849=CARTESIAN_POINT('',(-23.9999993741512,8.00000055134296,5.99999986588955));
#850=CARTESIAN_POINT('',(-21.9999993741512,8.00000055134296,53.4999998658895));
#851=CARTESIAN_POINT('Origin',(-21.9999993741512,8.00000055134296,51.4999998658895));
#852=CARTESIAN_POINT('',(60.0000006258488,8.00000055134296,53.4999998658895));
#853=CARTESIAN_POINT('',(62.0000006258488,8.00000055134296,53.4999998658895));
#854=CARTESIAN_POINT('',(60.0000006258488,8.00000055134296,57.4999998658895));
#855=CARTESIAN_POINT('Origin',(60.0000006258488,8.00000055134296,55.4999998658895));
#856=CARTESIAN_POINT('',(-26.0000004172325,8.00000055134296,57.4999998658895));
#857=CARTESIAN_POINT('',(-23.9999993741512,8.00000055134296,57.4999998658895));
#858=CARTESIAN_POINT('',(-28.0000004172325,8.00000055134296,55.4999998658895));
#859=CARTESIAN_POINT('Origin',(-26.0000004172325,8.00000055134296,55.4999998658895));
#860=CARTESIAN_POINT('',(-28.0000004172325,8.00000055134296,2.));
#861=CARTESIAN_POINT('',(-28.0000004172325,8.00000055134296,0.));
#862=CARTESIAN_POINT('Origin',(-26.0000004172325,8.00000055134296,2.));
#863=CARTESIAN_POINT('Origin',(59.9999995827675,22.750000551343,4.));
#864=CARTESIAN_POINT('',(62.000000923872,47.000000551343,4.));
#865=CARTESIAN_POINT('',(59.9999995827675,47.000000551343,6.));
#866=CARTESIAN_POINT('Origin',(59.9999995827675,47.000000551343,4.));
#867=CARTESIAN_POINT('',(59.9999995827675,22.750000551343,6.));
#868=CARTESIAN_POINT('',(61.9999995827675,22.750000551343,4.));
#869=CARTESIAN_POINT('Origin',(16.9999995827675,27.500000551343,6.));
#870=CARTESIAN_POINT('',(-21.9999993741512,47.000000551343,6.));
#871=CARTESIAN_POINT('',(-27.999999076128,47.000000551343,6.));
#872=CARTESIAN_POINT('',(-21.9999993741512,17.750000551343,6.));
#873=CARTESIAN_POINT('',(33.1000006258488,27.5000004097819,6.));
#874=CARTESIAN_POINT('Origin',(42.0000006258488,27.5000004097819,6.));
#875=CARTESIAN_POINT('',(-16.9000001192093,27.5000004097819,6.));
#876=CARTESIAN_POINT('Origin',(-8.00000011920929,27.5000004097819,6.));
#877=CARTESIAN_POINT('Origin',(62.000000923872,47.000000551343,0.));
#878=CARTESIAN_POINT('',(-27.999999076128,47.000000551343,2.));
#879=CARTESIAN_POINT('Origin',(-26.0000004172325,47.000000551343,2.));
#880=CARTESIAN_POINT('',(-27.999999076128,47.000000551343,55.4999998658895));
#881=CARTESIAN_POINT('',(-27.999999076128,47.000000551343,0.));
#882=CARTESIAN_POINT('',(-26.0000004172325,47.000000551343,57.4999998658895));
#883=CARTESIAN_POINT('Origin',(-26.0000004172325,47.000000551343,55.4999998658895));
#884=CARTESIAN_POINT('',(60.0000006258488,47.000000551343,57.4999998658895));
#885=CARTESIAN_POINT('',(-23.9999993741512,47.000000551343,57.4999998658895));
#886=CARTESIAN_POINT('',(60.0000006258488,47.000000551343,53.4999998658895));
#887=CARTESIAN_POINT('Origin',(60.0000006258488,47.000000551343,55.4999998658895));
#888=CARTESIAN_POINT('',(-21.9999993741512,47.000000551343,53.4999998658895));
#889=CARTESIAN_POINT('',(62.0000006258488,47.000000551343,53.4999998658895));
#890=CARTESIAN_POINT('',(-23.9999993741512,47.000000551343,51.4999998658895));
#891=CARTESIAN_POINT('Origin',(-21.9999993741512,47.000000551343,51.4999998658895));
#892=CARTESIAN_POINT('',(-23.9999993741512,47.000000551343,33.2499998658896));
#893=CARTESIAN_POINT('',(-23.9999993741512,47.000000551343,5.99999986588955));
#894=CARTESIAN_POINT('',(-21.9999993741512,47.000000551343,31.2499998658896));
#895=CARTESIAN_POINT('Origin',(-21.9999993741512,47.000000551343,33.2499998658896));
#896=CARTESIAN_POINT('',(61.0000006258488,47.000000551343,31.2499998658896));
#897=CARTESIAN_POINT('',(62.0000006258488,47.000000551343,31.2499998658896));
#898=CARTESIAN_POINT('',(62.0000006258488,47.000000551343,30.2499998658896));
#899=CARTESIAN_POINT('Origin',(61.0000006258488,47.000000551343,30.2499998658896));
#900=CARTESIAN_POINT('',(62.0000006258488,47.000000551343,29.2499998658895));
#901=CARTESIAN_POINT('',(62.0000006258488,47.000000551343,28.2499998658895));
#902=CARTESIAN_POINT('',(61.0000006258488,47.000000551343,28.2499998658895));
#903=CARTESIAN_POINT('Origin',(61.0000006258488,47.000000551343,29.2499998658895));
#904=CARTESIAN_POINT('',(-21.9999993741512,47.000000551343,28.2499998658895));
#905=CARTESIAN_POINT('',(-23.9999993741512,47.000000551343,28.2499998658895));
#906=CARTESIAN_POINT('',(-23.9999993741512,47.000000551343,26.2499998658895));
#907=CARTESIAN_POINT('Origin',(-21.9999993741512,47.000000551343,26.2499998658895));
#908=CARTESIAN_POINT('',(-23.9999993741512,47.000000551343,8.));
#909=CARTESIAN_POINT('',(-23.9999993741512,47.000000551343,5.99999986588955));
#910=CARTESIAN_POINT('Origin',(-21.9999993741512,47.000000551343,8.));
#911=CARTESIAN_POINT('',(62.000000923872,47.000000551343,0.));
#912=CARTESIAN_POINT('Origin',(60.0000006258488,8.00000055134296,55.4999998658896));
#913=CARTESIAN_POINT('',(60.0000006258488,8.00000055134296,57.4999998658895));
#914=CARTESIAN_POINT('',(60.0000006258488,8.00000055134296,53.4999998658895));
#915=CARTESIAN_POINT('Origin',(-27.9999993741512,8.00000055134296,57.4999998658895));
#916=CARTESIAN_POINT('',(-26.0000004172325,22.500000551343,57.4999998658895));
#917=CARTESIAN_POINT('Origin',(61.0000006258488,8.00000055134296,29.2499998658895));
#918=CARTESIAN_POINT('',(62.0000006258488,8.00000055134296,29.2499998658895));
#919=CARTESIAN_POINT('',(61.0000006258488,8.00000055134296,28.2499998658895));
#920=CARTESIAN_POINT('Origin',(62.0000006258488,8.00000055134296,28.2499998658895));
#921=CARTESIAN_POINT('',(-21.9999993741512,8.00000055134296,28.2499998658895));
#922=CARTESIAN_POINT('Origin',(61.0000006258488,8.00000055134296,30.2499998658896));
#923=CARTESIAN_POINT('',(61.0000006258488,8.00000055134296,31.2499998658896));
#924=CARTESIAN_POINT('',(62.0000006258488,8.00000055134296,30.2499998658896));
#925=CARTESIAN_POINT('Origin',(-23.9999993741512,8.00000055134296,31.2499998658896));
#926=CARTESIAN_POINT('',(-21.9999993741512,8.00000055134296,31.2499998658896));
#927=CARTESIAN_POINT('Origin',(-21.9999993741512,17.750000551343,8.));
#928=CARTESIAN_POINT('',(-23.9999993741512,17.750000551343,8.));
#929=CARTESIAN_POINT('Origin',(-23.9999993741512,8.00000055134296,57.4999998658895));
#930=CARTESIAN_POINT('',(-23.9999993741512,8.00000055134296,26.2499998658895));
#931=CARTESIAN_POINT('Origin',(-21.9999993741512,8.00000055134296,33.2499998658896));
#932=CARTESIAN_POINT('',(-23.9999993741512,8.00000055134296,33.2499998658896));
#933=CARTESIAN_POINT('Origin',(-21.9999993741512,8.00000055134296,26.2499998658895));
#934=CARTESIAN_POINT('Origin',(-21.9999993741512,8.00000055134296,51.4999998658895));
#935=CARTESIAN_POINT('',(-21.9999993741512,8.00000055134296,53.4999998658895));
#936=CARTESIAN_POINT('',(-23.9999993741512,8.00000055134296,51.4999998658895));
#937=CARTESIAN_POINT('Origin',(62.0000006258488,8.00000055134296,53.4999998658895));
#938=CARTESIAN_POINT('Origin',(-26.0000004172325,32.250000551343,2.));
#939=CARTESIAN_POINT('',(-28.0000004172325,32.250000551343,2.));
#940=CARTESIAN_POINT('Origin',(-28.0000004172325,37.000000551343,0.));
#941=CARTESIAN_POINT('',(-28.0000004172325,22.500000551343,55.4999998658895));
#942=CARTESIAN_POINT('Origin',(-26.0000004172325,22.500000551343,55.4999998658895));
#943=CARTESIAN_POINT('Origin',(62.0000006258488,8.00000055134296,31.2499998658896));
#944=CARTESIAN_POINT('Origin',(-23.9999993741512,8.00000055134296,57.4999998658895));
#945=CARTESIAN_POINT('Origin',(42.0000006258488,27.5000004097819,6.));
#946=CARTESIAN_POINT('',(33.1000006258488,27.5000004097819,3.));
#947=CARTESIAN_POINT('',(33.1000006258488,27.5000004097819,6.));
#948=CARTESIAN_POINT('Origin',(42.0000006258488,27.5000004097819,3.));
#949=CARTESIAN_POINT('Origin',(42.0000006258488,27.5000004097819,3.));
#950=CARTESIAN_POINT('',(38.3500006258488,27.5000004097819,3.));
#951=CARTESIAN_POINT('Origin',(42.0000006258488,27.5000004097819,3.));
#952=CARTESIAN_POINT('Origin',(-8.00000011920929,27.5000004097819,6.));
#953=CARTESIAN_POINT('',(-16.9000001192093,27.5000004097819,3.));
#954=CARTESIAN_POINT('',(-16.9000001192093,27.5000004097819,6.));
#955=CARTESIAN_POINT('Origin',(-8.00000011920929,27.5000004097819,3.));
#956=CARTESIAN_POINT('Origin',(-8.00000011920929,27.5000004097819,3.));
#957=CARTESIAN_POINT('',(-11.6500001192093,27.5000004097819,3.));
#958=CARTESIAN_POINT('Origin',(-8.00000011920929,27.5000004097819,3.));
#959=CARTESIAN_POINT('Origin',(42.0000006258488,27.5000004097819,6.));
#960=CARTESIAN_POINT('',(38.3500006258488,27.5000004097819,6.));
#961=CARTESIAN_POINT('Origin',(-8.00000011920929,27.5000004097819,6.));
#962=CARTESIAN_POINT('',(-11.6500001192093,27.5000004097819,6.));
#963=CARTESIAN_POINT('Origin',(61.9999995827675,18.000000551343,0.));
#964=UNCERTAINTY_MEASURE_WITH_UNIT(LENGTH_MEASURE(0.01),#968,
'DISTANCE_ACCURACY_VALUE',
'Maximum model space distance between geometric entities at asserted c
onnectivities');
#965=UNCERTAINTY_MEASURE_WITH_UNIT(LENGTH_MEASURE(0.01),#968,
'DISTANCE_ACCURACY_VALUE',
'Maximum model space distance between geometric entities at asserted c
onnectivities');
#966=(
GEOMETRIC_REPRESENTATION_CONTEXT(3)
GLOBAL_UNCERTAINTY_ASSIGNED_CONTEXT((#964))
GLOBAL_UNIT_ASSIGNED_CONTEXT((#968,#970,#971))
REPRESENTATION_CONTEXT('','3D')
);
#967=(
GEOMETRIC_REPRESENTATION_CONTEXT(3)
GLOBAL_UNCERTAINTY_ASSIGNED_CONTEXT((#965))
GLOBAL_UNIT_ASSIGNED_CONTEXT((#968,#970,#971))
REPRESENTATION_CONTEXT('','3D')
);
#968=(
LENGTH_UNIT()
NAMED_UNIT(*)
SI_UNIT(.MILLI.,.METRE.)
);
#969=(
LENGTH_UNIT()
NAMED_UNIT(*)
SI_UNIT($,.METRE.)
);
#970=(
NAMED_UNIT(*)
PLANE_ANGLE_UNIT()
SI_UNIT($,.RADIAN.)
);
#971=(
NAMED_UNIT(*)
SI_UNIT($,.STERADIAN.)
SOLID_ANGLE_UNIT()
);
#972=SHAPE_DEFINITION_REPRESENTATION(#973,#974);
#973=PRODUCT_DEFINITION_SHAPE('',$,#976);
#974=SHAPE_REPRESENTATION('',(#572),#966);
#975=PRODUCT_DEFINITION_CONTEXT('part definition',#980,'design');
#976=PRODUCT_DEFINITION('2026-08-10-19-56-16-923','laptopMount',#977,#975);
#977=PRODUCT_DEFINITION_FORMATION('',$,#982);
#978=PRODUCT_RELATED_PRODUCT_CATEGORY('laptopMount','laptopMount',(#982));
#979=APPLICATION_PROTOCOL_DEFINITION('international standard',
'automotive_design',2009,#980);
#980=APPLICATION_CONTEXT(
'Core Data for Automotive Mechanical Design Process');
#981=PRODUCT_CONTEXT('part definition',#980,'mechanical');
#982=PRODUCT('2026-08-10-19-56-16-923','laptopMount',$,(#981));
#983=PRESENTATION_STYLE_ASSIGNMENT((#984));
#984=SURFACE_STYLE_USAGE(.BOTH.,#985);
#985=SURFACE_SIDE_STYLE('',(#986));
#986=SURFACE_STYLE_FILL_AREA(#987);
#987=FILL_AREA_STYLE('Steel - Satin',(#988));
#988=FILL_AREA_STYLE_COLOUR('Steel - Satin',#989);
#989=COLOUR_RGB('Steel - Satin',0.627450980392157,0.627450980392157,0.627450980392157);
ENDSEC;
END-ISO-10303-21;
