ISO-10303-21;
HEADER;
/* Generated by software containing ST-Developer
 * from STEP Tools, Inc. (www.steptools.com) 
 */

FILE_DESCRIPTION(
/* description */ (''),
/* implementation_level */ '2;1');

FILE_NAME(
/* name */ 'laptopStandV1.step',
/* time_stamp */ '2026-08-17T21:27:05+10:00',
/* author */ (''),
/* organization */ (''),
/* preprocessor_version */ 'ST-DEVELOPER v20.1',
/* originating_system */ 'Autodesk Translation Framework v14.24.0.0',
/* authorisation */ '');

FILE_SCHEMA (('AUTOMOTIVE_DESIGN { 1 0 10303 214 3 1 1 }'));
ENDSEC;

DATA;
#10=MECHANICAL_DESIGN_GEOMETRIC_PRESENTATION_REPRESENTATION('',(#13),#1651);
#11=SHAPE_REPRESENTATION_RELATIONSHIP('SRR','None',#1658,#12);
#12=ADVANCED_BREP_SHAPE_REPRESENTATION('',(#14),#1650);
#13=STYLED_ITEM('',(#1667),#14);
#14=MANIFOLD_SOLID_BREP('Body1',#955);
#15=FACE_BOUND('',#194,.T.);
#16=FACE_BOUND('',#198,.T.);
#17=FACE_BOUND('',#202,.T.);
#18=FACE_BOUND('',#204,.T.);
#19=FACE_BOUND('',#213,.T.);
#20=FACE_BOUND('',#215,.T.);
#21=FACE_BOUND('',#216,.T.);
#22=FACE_BOUND('',#222,.T.);
#23=FACE_BOUND('',#224,.T.);
#24=TOROIDAL_SURFACE('',#985,4.,2.);
#25=TOROIDAL_SURFACE('',#990,4.,2.);
#26=TOROIDAL_SURFACE('',#995,4.,2.);
#27=TOROIDAL_SURFACE('',#1001,4.,2.);
#28=TOROIDAL_SURFACE('',#1006,3.99999999999999,2.);
#29=TOROIDAL_SURFACE('',#1013,4.,2.);
#30=TOROIDAL_SURFACE('',#1018,4.,2.);
#31=TOROIDAL_SURFACE('',#1024,3.99999999999999,2.);
#32=CIRCLE('',#980,10.);
#33=CIRCLE('',#981,10.);
#34=CIRCLE('',#983,10.);
#35=CIRCLE('',#984,10.);
#36=CIRCLE('',#986,4.);
#37=CIRCLE('',#987,2.);
#38=CIRCLE('',#988,2.);
#39=CIRCLE('',#989,2.);
#40=CIRCLE('',#991,4.);
#41=CIRCLE('',#992,1.99999999999999);
#42=CIRCLE('',#993,2.);
#43=CIRCLE('',#994,2.);
#44=CIRCLE('',#996,4.);
#45=CIRCLE('',#997,2.);
#46=CIRCLE('',#998,2.);
#47=CIRCLE('',#999,2.);
#48=CIRCLE('',#1002,2.);
#49=CIRCLE('',#1003,2.);
#50=CIRCLE('',#1004,4.);
#51=CIRCLE('',#1005,2.);
#52=CIRCLE('',#1007,1.99999999999999);
#53=CIRCLE('',#1008,2.);
#54=CIRCLE('',#1009,3.99999999999999);
#55=CIRCLE('',#1010,2.);
#56=CIRCLE('',#1014,1.99999999999999);
#57=CIRCLE('',#1015,2.);
#58=CIRCLE('',#1016,3.99999999999999);
#59=CIRCLE('',#1017,2.);
#60=CIRCLE('',#1019,2.);
#61=CIRCLE('',#1020,2.);
#62=CIRCLE('',#1021,4.);
#63=CIRCLE('',#1022,2.);
#64=CIRCLE('',#1025,4.);
#65=CIRCLE('',#1026,1.99999999999999);
#66=CIRCLE('',#1027,1.99999999999999);
#67=CIRCLE('',#1028,2.);
#68=CIRCLE('',#1038,2.5);
#69=CIRCLE('',#1039,2.5);
#70=CIRCLE('',#1040,2.5);
#71=CIRCLE('',#1041,2.5);
#72=CIRCLE('',#1045,10.);
#73=CIRCLE('',#1046,10.);
#74=CIRCLE('',#1047,10.);
#75=CIRCLE('',#1048,10.);
#76=CIRCLE('',#1054,2.5);
#77=CIRCLE('',#1057,2.5);
#78=CIRCLE('',#1059,2.5);
#79=CIRCLE('',#1062,2.5);
#80=CIRCLE('',#1064,10.);
#81=CIRCLE('',#1066,10.);
#82=CIRCLE('',#1067,10.);
#83=CIRCLE('',#1068,10.);
#84=CYLINDRICAL_SURFACE('',#979,10.);
#85=CYLINDRICAL_SURFACE('',#982,10.);
#86=CYLINDRICAL_SURFACE('',#1000,2.);
#87=CYLINDRICAL_SURFACE('',#1011,2.);
#88=CYLINDRICAL_SURFACE('',#1012,2.);
#89=CYLINDRICAL_SURFACE('',#1023,2.);
#90=CYLINDRICAL_SURFACE('',#1029,2.);
#91=CYLINDRICAL_SURFACE('',#1030,2.);
#92=CYLINDRICAL_SURFACE('',#1031,2.);
#93=CYLINDRICAL_SURFACE('',#1032,2.);
#94=CYLINDRICAL_SURFACE('',#1033,2.);
#95=CYLINDRICAL_SURFACE('',#1034,2.);
#96=CYLINDRICAL_SURFACE('',#1035,2.);
#97=CYLINDRICAL_SURFACE('',#1036,2.);
#98=CYLINDRICAL_SURFACE('',#1053,2.5);
#99=CYLINDRICAL_SURFACE('',#1056,2.5);
#100=CYLINDRICAL_SURFACE('',#1058,2.5);
#101=CYLINDRICAL_SURFACE('',#1061,2.5);
#102=CYLINDRICAL_SURFACE('',#1063,10.);
#103=CYLINDRICAL_SURFACE('',#1070,10.);
#104=CYLINDRICAL_SURFACE('',#1071,10.);
#105=CYLINDRICAL_SURFACE('',#1073,10.);
#106=FACE_OUTER_BOUND('',#161,.T.);
#107=FACE_OUTER_BOUND('',#162,.T.);
#108=FACE_OUTER_BOUND('',#163,.T.);
#109=FACE_OUTER_BOUND('',#164,.T.);
#110=FACE_OUTER_BOUND('',#165,.T.);
#111=FACE_OUTER_BOUND('',#166,.T.);
#112=FACE_OUTER_BOUND('',#167,.T.);
#113=FACE_OUTER_BOUND('',#168,.T.);
#114=FACE_OUTER_BOUND('',#169,.T.);
#115=FACE_OUTER_BOUND('',#170,.T.);
#116=FACE_OUTER_BOUND('',#171,.T.);
#117=FACE_OUTER_BOUND('',#172,.T.);
#118=FACE_OUTER_BOUND('',#173,.T.);
#119=FACE_OUTER_BOUND('',#174,.T.);
#120=FACE_OUTER_BOUND('',#175,.T.);
#121=FACE_OUTER_BOUND('',#176,.T.);
#122=FACE_OUTER_BOUND('',#177,.T.);
#123=FACE_OUTER_BOUND('',#178,.T.);
#124=FACE_OUTER_BOUND('',#179,.T.);
#125=FACE_OUTER_BOUND('',#180,.T.);
#126=FACE_OUTER_BOUND('',#181,.T.);
#127=FACE_OUTER_BOUND('',#182,.T.);
#128=FACE_OUTER_BOUND('',#183,.T.);
#129=FACE_OUTER_BOUND('',#184,.T.);
#130=FACE_OUTER_BOUND('',#185,.T.);
#131=FACE_OUTER_BOUND('',#186,.T.);
#132=FACE_OUTER_BOUND('',#187,.T.);
#133=FACE_OUTER_BOUND('',#188,.T.);
#134=FACE_OUTER_BOUND('',#189,.T.);
#135=FACE_OUTER_BOUND('',#190,.T.);
#136=FACE_OUTER_BOUND('',#191,.T.);
#137=FACE_OUTER_BOUND('',#192,.T.);
#138=FACE_OUTER_BOUND('',#193,.T.);
#139=FACE_OUTER_BOUND('',#195,.T.);
#140=FACE_OUTER_BOUND('',#196,.T.);
#141=FACE_OUTER_BOUND('',#197,.T.);
#142=FACE_OUTER_BOUND('',#199,.T.);
#143=FACE_OUTER_BOUND('',#200,.T.);
#144=FACE_OUTER_BOUND('',#201,.T.);
#145=FACE_OUTER_BOUND('',#203,.T.);
#146=FACE_OUTER_BOUND('',#205,.T.);
#147=FACE_OUTER_BOUND('',#206,.T.);
#148=FACE_OUTER_BOUND('',#207,.T.);
#149=FACE_OUTER_BOUND('',#208,.T.);
#150=FACE_OUTER_BOUND('',#209,.T.);
#151=FACE_OUTER_BOUND('',#210,.T.);
#152=FACE_OUTER_BOUND('',#211,.T.);
#153=FACE_OUTER_BOUND('',#212,.T.);
#154=FACE_OUTER_BOUND('',#214,.T.);
#155=FACE_OUTER_BOUND('',#217,.T.);
#156=FACE_OUTER_BOUND('',#218,.T.);
#157=FACE_OUTER_BOUND('',#219,.T.);
#158=FACE_OUTER_BOUND('',#220,.T.);
#159=FACE_OUTER_BOUND('',#221,.T.);
#160=FACE_OUTER_BOUND('',#223,.T.);
#161=EDGE_LOOP('',(#607,#608,#609,#610));
#162=EDGE_LOOP('',(#611,#612,#613,#614));
#163=EDGE_LOOP('',(#615,#616,#617,#618));
#164=EDGE_LOOP('',(#619,#620,#621,#622));
#165=EDGE_LOOP('',(#623,#624,#625,#626));
#166=EDGE_LOOP('',(#627,#628,#629,#630));
#167=EDGE_LOOP('',(#631,#632,#633,#634));
#168=EDGE_LOOP('',(#635,#636,#637,#638));
#169=EDGE_LOOP('',(#639,#640,#641,#642));
#170=EDGE_LOOP('',(#643,#644,#645,#646));
#171=EDGE_LOOP('',(#647,#648,#649,#650));
#172=EDGE_LOOP('',(#651,#652,#653,#654));
#173=EDGE_LOOP('',(#655,#656,#657,#658));
#174=EDGE_LOOP('',(#659,#660,#661,#662));
#175=EDGE_LOOP('',(#663,#664,#665,#666));
#176=EDGE_LOOP('',(#667,#668,#669,#670));
#177=EDGE_LOOP('',(#671,#672,#673,#674));
#178=EDGE_LOOP('',(#675,#676,#677,#678));
#179=EDGE_LOOP('',(#679,#680,#681,#682));
#180=EDGE_LOOP('',(#683,#684,#685,#686));
#181=EDGE_LOOP('',(#687,#688,#689,#690));
#182=EDGE_LOOP('',(#691,#692,#693,#694));
#183=EDGE_LOOP('',(#695,#696,#697,#698));
#184=EDGE_LOOP('',(#699,#700,#701,#702));
#185=EDGE_LOOP('',(#703,#704,#705,#706));
#186=EDGE_LOOP('',(#707,#708,#709,#710));
#187=EDGE_LOOP('',(#711,#712,#713,#714));
#188=EDGE_LOOP('',(#715,#716,#717,#718));
#189=EDGE_LOOP('',(#719,#720,#721,#722));
#190=EDGE_LOOP('',(#723,#724,#725,#726));
#191=EDGE_LOOP('',(#727,#728,#729,#730));
#192=EDGE_LOOP('',(#731,#732,#733,#734));
#193=EDGE_LOOP('',(#735,#736,#737,#738,#739,#740,#741,#742));
#194=EDGE_LOOP('',(#743,#744,#745,#746,#747,#748,#749,#750));
#195=EDGE_LOOP('',(#751,#752,#753,#754));
#196=EDGE_LOOP('',(#755,#756,#757,#758));
#197=EDGE_LOOP('',(#759,#760,#761,#762,#763,#764,#765,#766));
#198=EDGE_LOOP('',(#767,#768,#769,#770,#771,#772,#773,#774));
#199=EDGE_LOOP('',(#775,#776,#777,#778));
#200=EDGE_LOOP('',(#779,#780,#781,#782));
#201=EDGE_LOOP('',(#783,#784,#785,#786));
#202=EDGE_LOOP('',(#787));
#203=EDGE_LOOP('',(#788,#789,#790,#791));
#204=EDGE_LOOP('',(#792));
#205=EDGE_LOOP('',(#793,#794,#795,#796));
#206=EDGE_LOOP('',(#797,#798,#799,#800));
#207=EDGE_LOOP('',(#801,#802,#803,#804));
#208=EDGE_LOOP('',(#805,#806,#807,#808));
#209=EDGE_LOOP('',(#809,#810,#811,#812));
#210=EDGE_LOOP('',(#813,#814,#815,#816));
#211=EDGE_LOOP('',(#817,#818,#819,#820));
#212=EDGE_LOOP('',(#821,#822,#823,#824,#825,#826,#827,#828));
#213=EDGE_LOOP('',(#829,#830,#831,#832,#833,#834,#835,#836));
#214=EDGE_LOOP('',(#837,#838,#839,#840));
#215=EDGE_LOOP('',(#841,#842,#843,#844));
#216=EDGE_LOOP('',(#845,#846,#847,#848));
#217=EDGE_LOOP('',(#849,#850,#851,#852));
#218=EDGE_LOOP('',(#853,#854,#855,#856));
#219=EDGE_LOOP('',(#857,#858,#859,#860));
#220=EDGE_LOOP('',(#861,#862,#863,#864));
#221=EDGE_LOOP('',(#865,#866,#867,#868));
#222=EDGE_LOOP('',(#869));
#223=EDGE_LOOP('',(#870,#871,#872,#873));
#224=EDGE_LOOP('',(#874));
#225=LINE('',#1378,#307);
#226=LINE('',#1380,#308);
#227=LINE('',#1382,#309);
#228=LINE('',#1383,#310);
#229=LINE('',#1386,#311);
#230=LINE('',#1388,#312);
#231=LINE('',#1389,#313);
#232=LINE('',#1392,#314);
#233=LINE('',#1394,#315);
#234=LINE('',#1395,#316);
#235=LINE('',#1397,#317);
#236=LINE('',#1398,#318);
#237=LINE('',#1403,#319);
#238=LINE('',#1405,#320);
#239=LINE('',#1407,#321);
#240=LINE('',#1408,#322);
#241=LINE('',#1411,#323);
#242=LINE('',#1413,#324);
#243=LINE('',#1414,#325);
#244=LINE('',#1417,#326);
#245=LINE('',#1419,#327);
#246=LINE('',#1420,#328);
#247=LINE('',#1422,#329);
#248=LINE('',#1423,#330);
#249=LINE('',#1429,#331);
#250=LINE('',#1435,#332);
#251=LINE('',#1465,#333);
#252=LINE('',#1466,#334);
#253=LINE('',#1486,#335);
#254=LINE('',#1487,#336);
#255=LINE('',#1489,#337);
#256=LINE('',#1490,#338);
#257=LINE('',#1510,#339);
#258=LINE('',#1511,#340);
#259=LINE('',#1522,#341);
#260=LINE('',#1523,#342);
#261=LINE('',#1525,#343);
#262=LINE('',#1526,#344);
#263=LINE('',#1528,#345);
#264=LINE('',#1529,#346);
#265=LINE('',#1531,#347);
#266=LINE('',#1532,#348);
#267=LINE('',#1534,#349);
#268=LINE('',#1535,#350);
#269=LINE('',#1537,#351);
#270=LINE('',#1538,#352);
#271=LINE('',#1540,#353);
#272=LINE('',#1541,#354);
#273=LINE('',#1543,#355);
#274=LINE('',#1544,#356);
#275=LINE('',#1548,#357);
#276=LINE('',#1552,#358);
#277=LINE('',#1556,#359);
#278=LINE('',#1560,#360);
#279=LINE('',#1569,#361);
#280=LINE('',#1573,#362);
#281=LINE('',#1577,#363);
#282=LINE('',#1580,#364);
#283=LINE('',#1585,#365);
#284=LINE('',#1587,#366);
#285=LINE('',#1588,#367);
#286=LINE('',#1591,#368);
#287=LINE('',#1593,#369);
#288=LINE('',#1594,#370);
#289=LINE('',#1597,#371);
#290=LINE('',#1601,#372);
#291=LINE('',#1602,#373);
#292=LINE('',#1607,#374);
#293=LINE('',#1611,#375);
#294=LINE('',#1612,#376);
#295=LINE('',#1619,#377);
#296=LINE('',#1620,#378);
#297=LINE('',#1623,#379);
#298=LINE('',#1627,#380);
#299=LINE('',#1631,#381);
#300=LINE('',#1634,#382);
#301=LINE('',#1636,#383);
#302=LINE('',#1638,#384);
#303=LINE('',#1640,#385);
#304=LINE('',#1641,#386);
#305=LINE('',#1643,#387);
#306=LINE('',#1645,#388);
#307=VECTOR('',#1080,10.);
#308=VECTOR('',#1081,10.);
#309=VECTOR('',#1082,10.);
#310=VECTOR('',#1083,10.);
#311=VECTOR('',#1086,10.);
#312=VECTOR('',#1087,10.);
#313=VECTOR('',#1088,10.);
#314=VECTOR('',#1091,10.);
#315=VECTOR('',#1092,10.);
#316=VECTOR('',#1093,10.);
#317=VECTOR('',#1096,10.);
#318=VECTOR('',#1097,10.);
#319=VECTOR('',#1102,10.);
#320=VECTOR('',#1103,10.);
#321=VECTOR('',#1104,10.);
#322=VECTOR('',#1105,10.);
#323=VECTOR('',#1108,10.);
#324=VECTOR('',#1109,10.);
#325=VECTOR('',#1110,10.);
#326=VECTOR('',#1113,10.);
#327=VECTOR('',#1114,10.);
#328=VECTOR('',#1115,10.);
#329=VECTOR('',#1118,10.);
#330=VECTOR('',#1119,10.);
#331=VECTOR('',#1126,10.);
#332=VECTOR('',#1133,10.);
#333=VECTOR('',#1168,10.);
#334=VECTOR('',#1169,10.);
#335=VECTOR('',#1192,10.);
#336=VECTOR('',#1193,10.);
#337=VECTOR('',#1196,10.);
#338=VECTOR('',#1197,10.);
#339=VECTOR('',#1220,10.);
#340=VECTOR('',#1221,10.);
#341=VECTOR('',#1234,10.);
#342=VECTOR('',#1235,10.);
#343=VECTOR('',#1238,10.);
#344=VECTOR('',#1239,10.);
#345=VECTOR('',#1242,10.);
#346=VECTOR('',#1243,10.);
#347=VECTOR('',#1246,10.);
#348=VECTOR('',#1247,10.);
#349=VECTOR('',#1250,10.);
#350=VECTOR('',#1251,10.);
#351=VECTOR('',#1254,10.);
#352=VECTOR('',#1255,10.);
#353=VECTOR('',#1258,10.);
#354=VECTOR('',#1259,10.);
#355=VECTOR('',#1262,10.);
#356=VECTOR('',#1263,10.);
#357=VECTOR('',#1266,10.);
#358=VECTOR('',#1269,10.);
#359=VECTOR('',#1272,10.);
#360=VECTOR('',#1275,10.);
#361=VECTOR('',#1286,10.);
#362=VECTOR('',#1289,10.);
#363=VECTOR('',#1292,10.);
#364=VECTOR('',#1295,10.);
#365=VECTOR('',#1302,10.);
#366=VECTOR('',#1303,10.);
#367=VECTOR('',#1304,10.);
#368=VECTOR('',#1307,10.);
#369=VECTOR('',#1308,10.);
#370=VECTOR('',#1309,10.);
#371=VECTOR('',#1312,10.);
#372=VECTOR('',#1317,10.);
#373=VECTOR('',#1318,10.);
#374=VECTOR('',#1325,10.);
#375=VECTOR('',#1330,10.);
#376=VECTOR('',#1331,10.);
#377=VECTOR('',#1340,10.);
#378=VECTOR('',#1341,10.);
#379=VECTOR('',#1344,10.);
#380=VECTOR('',#1347,10.);
#381=VECTOR('',#1350,10.);
#382=VECTOR('',#1353,10.);
#383=VECTOR('',#1356,10.);
#384=VECTOR('',#1359,10.);
#385=VECTOR('',#1362,10.);
#386=VECTOR('',#1363,10.);
#387=VECTOR('',#1366,10.);
#388=VECTOR('',#1369,10.);
#389=VERTEX_POINT('',#1376);
#390=VERTEX_POINT('',#1377);
#391=VERTEX_POINT('',#1379);
#392=VERTEX_POINT('',#1381);
#393=VERTEX_POINT('',#1385);
#394=VERTEX_POINT('',#1387);
#395=VERTEX_POINT('',#1391);
#396=VERTEX_POINT('',#1393);
#397=VERTEX_POINT('',#1401);
#398=VERTEX_POINT('',#1402);
#399=VERTEX_POINT('',#1404);
#400=VERTEX_POINT('',#1406);
#401=VERTEX_POINT('',#1410);
#402=VERTEX_POINT('',#1412);
#403=VERTEX_POINT('',#1416);
#404=VERTEX_POINT('',#1418);
#405=VERTEX_POINT('',#1426);
#406=VERTEX_POINT('',#1428);
#407=VERTEX_POINT('',#1432);
#408=VERTEX_POINT('',#1434);
#409=VERTEX_POINT('',#1438);
#410=VERTEX_POINT('',#1439);
#411=VERTEX_POINT('',#1441);
#412=VERTEX_POINT('',#1443);
#413=VERTEX_POINT('',#1447);
#414=VERTEX_POINT('',#1448);
#415=VERTEX_POINT('',#1450);
#416=VERTEX_POINT('',#1452);
#417=VERTEX_POINT('',#1456);
#418=VERTEX_POINT('',#1457);
#419=VERTEX_POINT('',#1459);
#420=VERTEX_POINT('',#1461);
#421=VERTEX_POINT('',#1468);
#422=VERTEX_POINT('',#1469);
#423=VERTEX_POINT('',#1471);
#424=VERTEX_POINT('',#1473);
#425=VERTEX_POINT('',#1477);
#426=VERTEX_POINT('',#1478);
#427=VERTEX_POINT('',#1480);
#428=VERTEX_POINT('',#1482);
#429=VERTEX_POINT('',#1492);
#430=VERTEX_POINT('',#1493);
#431=VERTEX_POINT('',#1495);
#432=VERTEX_POINT('',#1497);
#433=VERTEX_POINT('',#1501);
#434=VERTEX_POINT('',#1502);
#435=VERTEX_POINT('',#1504);
#436=VERTEX_POINT('',#1506);
#437=VERTEX_POINT('',#1513);
#438=VERTEX_POINT('',#1514);
#439=VERTEX_POINT('',#1516);
#440=VERTEX_POINT('',#1518);
#441=VERTEX_POINT('',#1546);
#442=VERTEX_POINT('',#1547);
#443=VERTEX_POINT('',#1549);
#444=VERTEX_POINT('',#1551);
#445=VERTEX_POINT('',#1553);
#446=VERTEX_POINT('',#1555);
#447=VERTEX_POINT('',#1557);
#448=VERTEX_POINT('',#1559);
#449=VERTEX_POINT('',#1565);
#450=VERTEX_POINT('',#1566);
#451=VERTEX_POINT('',#1568);
#452=VERTEX_POINT('',#1570);
#453=VERTEX_POINT('',#1572);
#454=VERTEX_POINT('',#1574);
#455=VERTEX_POINT('',#1576);
#456=VERTEX_POINT('',#1578);
#457=VERTEX_POINT('',#1584);
#458=VERTEX_POINT('',#1586);
#459=VERTEX_POINT('',#1590);
#460=VERTEX_POINT('',#1592);
#461=VERTEX_POINT('',#1596);
#462=VERTEX_POINT('',#1600);
#463=VERTEX_POINT('',#1606);
#464=VERTEX_POINT('',#1610);
#465=VERTEX_POINT('',#1616);
#466=VERTEX_POINT('',#1617);
#467=VERTEX_POINT('',#1622);
#468=VERTEX_POINT('',#1624);
#469=VERTEX_POINT('',#1626);
#470=VERTEX_POINT('',#1628);
#471=VERTEX_POINT('',#1630);
#472=VERTEX_POINT('',#1632);
#473=EDGE_CURVE('',#389,#390,#225,.T.);
#474=EDGE_CURVE('',#389,#391,#226,.T.);
#475=EDGE_CURVE('',#391,#392,#227,.T.);
#476=EDGE_CURVE('',#390,#392,#228,.T.);
#477=EDGE_CURVE('',#393,#389,#229,.T.);
#478=EDGE_CURVE('',#393,#394,#230,.T.);
#479=EDGE_CURVE('',#394,#391,#231,.T.);
#480=EDGE_CURVE('',#395,#393,#232,.T.);
#481=EDGE_CURVE('',#395,#396,#233,.T.);
#482=EDGE_CURVE('',#396,#394,#234,.T.);
#483=EDGE_CURVE('',#390,#395,#235,.T.);
#484=EDGE_CURVE('',#392,#396,#236,.T.);
#485=EDGE_CURVE('',#397,#398,#237,.T.);
#486=EDGE_CURVE('',#397,#399,#238,.T.);
#487=EDGE_CURVE('',#399,#400,#239,.T.);
#488=EDGE_CURVE('',#398,#400,#240,.T.);
#489=EDGE_CURVE('',#401,#397,#241,.T.);
#490=EDGE_CURVE('',#401,#402,#242,.T.);
#491=EDGE_CURVE('',#402,#399,#243,.T.);
#492=EDGE_CURVE('',#403,#401,#244,.T.);
#493=EDGE_CURVE('',#403,#404,#245,.T.);
#494=EDGE_CURVE('',#404,#402,#246,.T.);
#495=EDGE_CURVE('',#398,#403,#247,.T.);
#496=EDGE_CURVE('',#400,#404,#248,.T.);
#497=EDGE_CURVE('',#405,#405,#32,.T.);
#498=EDGE_CURVE('',#405,#406,#249,.T.);
#499=EDGE_CURVE('',#406,#406,#33,.T.);
#500=EDGE_CURVE('',#407,#407,#34,.T.);
#501=EDGE_CURVE('',#407,#408,#250,.T.);
#502=EDGE_CURVE('',#408,#408,#35,.T.);
#503=EDGE_CURVE('',#409,#410,#36,.T.);
#504=EDGE_CURVE('',#411,#410,#37,.T.);
#505=EDGE_CURVE('',#412,#411,#38,.F.);
#506=EDGE_CURVE('',#409,#412,#39,.T.);
#507=EDGE_CURVE('',#413,#414,#40,.T.);
#508=EDGE_CURVE('',#415,#414,#41,.T.);
#509=EDGE_CURVE('',#416,#415,#42,.F.);
#510=EDGE_CURVE('',#413,#416,#43,.T.);
#511=EDGE_CURVE('',#417,#418,#44,.T.);
#512=EDGE_CURVE('',#419,#418,#45,.T.);
#513=EDGE_CURVE('',#420,#419,#46,.F.);
#514=EDGE_CURVE('',#417,#420,#47,.T.);
#515=EDGE_CURVE('',#418,#409,#251,.T.);
#516=EDGE_CURVE('',#412,#419,#252,.T.);
#517=EDGE_CURVE('',#421,#422,#48,.F.);
#518=EDGE_CURVE('',#423,#421,#49,.T.);
#519=EDGE_CURVE('',#423,#424,#50,.T.);
#520=EDGE_CURVE('',#422,#424,#51,.T.);
#521=EDGE_CURVE('',#425,#426,#52,.F.);
#522=EDGE_CURVE('',#427,#425,#53,.T.);
#523=EDGE_CURVE('',#427,#428,#54,.T.);
#524=EDGE_CURVE('',#426,#428,#55,.T.);
#525=EDGE_CURVE('',#414,#427,#253,.T.);
#526=EDGE_CURVE('',#425,#415,#254,.T.);
#527=EDGE_CURVE('',#428,#417,#255,.T.);
#528=EDGE_CURVE('',#420,#426,#256,.T.);
#529=EDGE_CURVE('',#429,#430,#56,.F.);
#530=EDGE_CURVE('',#431,#429,#57,.T.);
#531=EDGE_CURVE('',#431,#432,#58,.T.);
#532=EDGE_CURVE('',#430,#432,#59,.T.);
#533=EDGE_CURVE('',#433,#434,#60,.F.);
#534=EDGE_CURVE('',#435,#433,#61,.T.);
#535=EDGE_CURVE('',#435,#436,#62,.T.);
#536=EDGE_CURVE('',#434,#436,#63,.T.);
#537=EDGE_CURVE('',#424,#435,#257,.T.);
#538=EDGE_CURVE('',#433,#422,#258,.T.);
#539=EDGE_CURVE('',#437,#438,#64,.T.);
#540=EDGE_CURVE('',#439,#438,#65,.T.);
#541=EDGE_CURVE('',#440,#439,#66,.F.);
#542=EDGE_CURVE('',#437,#440,#67,.T.);
#543=EDGE_CURVE('',#438,#431,#259,.T.);
#544=EDGE_CURVE('',#429,#439,#260,.T.);
#545=EDGE_CURVE('',#426,#440,#261,.T.);
#546=EDGE_CURVE('',#439,#425,#262,.T.);
#547=EDGE_CURVE('',#436,#437,#263,.T.);
#548=EDGE_CURVE('',#440,#434,#264,.T.);
#549=EDGE_CURVE('',#419,#433,#265,.T.);
#550=EDGE_CURVE('',#434,#420,#266,.T.);
#551=EDGE_CURVE('',#432,#423,#267,.T.);
#552=EDGE_CURVE('',#421,#430,#268,.T.);
#553=EDGE_CURVE('',#415,#429,#269,.T.);
#554=EDGE_CURVE('',#430,#416,#270,.T.);
#555=EDGE_CURVE('',#411,#421,#271,.T.);
#556=EDGE_CURVE('',#422,#412,#272,.T.);
#557=EDGE_CURVE('',#410,#413,#273,.T.);
#558=EDGE_CURVE('',#416,#411,#274,.T.);
#559=EDGE_CURVE('',#441,#442,#275,.T.);
#560=EDGE_CURVE('',#443,#441,#68,.T.);
#561=EDGE_CURVE('',#444,#443,#276,.T.);
#562=EDGE_CURVE('',#445,#444,#69,.T.);
#563=EDGE_CURVE('',#446,#445,#277,.T.);
#564=EDGE_CURVE('',#447,#446,#70,.T.);
#565=EDGE_CURVE('',#448,#447,#278,.T.);
#566=EDGE_CURVE('',#442,#448,#71,.T.);
#567=EDGE_CURVE('',#449,#450,#72,.T.);
#568=EDGE_CURVE('',#449,#451,#279,.T.);
#569=EDGE_CURVE('',#452,#451,#73,.T.);
#570=EDGE_CURVE('',#452,#453,#280,.T.);
#571=EDGE_CURVE('',#454,#453,#74,.T.);
#572=EDGE_CURVE('',#454,#455,#281,.T.);
#573=EDGE_CURVE('',#456,#455,#75,.T.);
#574=EDGE_CURVE('',#456,#450,#282,.T.);
#575=EDGE_CURVE('',#443,#457,#283,.T.);
#576=EDGE_CURVE('',#458,#457,#284,.T.);
#577=EDGE_CURVE('',#458,#444,#285,.T.);
#578=EDGE_CURVE('',#447,#459,#286,.T.);
#579=EDGE_CURVE('',#460,#459,#287,.T.);
#580=EDGE_CURVE('',#460,#448,#288,.T.);
#581=EDGE_CURVE('',#442,#461,#289,.T.);
#582=EDGE_CURVE('',#461,#460,#76,.T.);
#583=EDGE_CURVE('',#462,#461,#290,.T.);
#584=EDGE_CURVE('',#462,#441,#291,.T.);
#585=EDGE_CURVE('',#457,#462,#77,.T.);
#586=EDGE_CURVE('',#463,#446,#292,.T.);
#587=EDGE_CURVE('',#459,#463,#78,.T.);
#588=EDGE_CURVE('',#445,#464,#293,.T.);
#589=EDGE_CURVE('',#463,#464,#294,.T.);
#590=EDGE_CURVE('',#464,#458,#79,.T.);
#591=EDGE_CURVE('',#465,#466,#80,.T.);
#592=EDGE_CURVE('',#466,#449,#295,.T.);
#593=EDGE_CURVE('',#450,#465,#296,.T.);
#594=EDGE_CURVE('',#465,#467,#297,.T.);
#595=EDGE_CURVE('',#468,#467,#81,.T.);
#596=EDGE_CURVE('',#468,#469,#298,.T.);
#597=EDGE_CURVE('',#470,#469,#82,.T.);
#598=EDGE_CURVE('',#470,#471,#299,.T.);
#599=EDGE_CURVE('',#472,#471,#83,.T.);
#600=EDGE_CURVE('',#472,#466,#300,.T.);
#601=EDGE_CURVE('',#467,#456,#301,.T.);
#602=EDGE_CURVE('',#455,#468,#302,.T.);
#603=EDGE_CURVE('',#471,#452,#303,.T.);
#604=EDGE_CURVE('',#451,#472,#304,.T.);
#605=EDGE_CURVE('',#453,#470,#305,.T.);
#606=EDGE_CURVE('',#469,#454,#306,.T.);
#607=ORIENTED_EDGE('',*,*,#473,.F.);
#608=ORIENTED_EDGE('',*,*,#474,.T.);
#609=ORIENTED_EDGE('',*,*,#475,.T.);
#610=ORIENTED_EDGE('',*,*,#476,.F.);
#611=ORIENTED_EDGE('',*,*,#477,.F.);
#612=ORIENTED_EDGE('',*,*,#478,.T.);
#613=ORIENTED_EDGE('',*,*,#479,.T.);
#614=ORIENTED_EDGE('',*,*,#474,.F.);
#615=ORIENTED_EDGE('',*,*,#480,.F.);
#616=ORIENTED_EDGE('',*,*,#481,.T.);
#617=ORIENTED_EDGE('',*,*,#482,.T.);
#618=ORIENTED_EDGE('',*,*,#478,.F.);
#619=ORIENTED_EDGE('',*,*,#483,.F.);
#620=ORIENTED_EDGE('',*,*,#476,.T.);
#621=ORIENTED_EDGE('',*,*,#484,.T.);
#622=ORIENTED_EDGE('',*,*,#481,.F.);
#623=ORIENTED_EDGE('',*,*,#484,.F.);
#624=ORIENTED_EDGE('',*,*,#475,.F.);
#625=ORIENTED_EDGE('',*,*,#479,.F.);
#626=ORIENTED_EDGE('',*,*,#482,.F.);
#627=ORIENTED_EDGE('',*,*,#485,.F.);
#628=ORIENTED_EDGE('',*,*,#486,.T.);
#629=ORIENTED_EDGE('',*,*,#487,.T.);
#630=ORIENTED_EDGE('',*,*,#488,.F.);
#631=ORIENTED_EDGE('',*,*,#489,.F.);
#632=ORIENTED_EDGE('',*,*,#490,.T.);
#633=ORIENTED_EDGE('',*,*,#491,.T.);
#634=ORIENTED_EDGE('',*,*,#486,.F.);
#635=ORIENTED_EDGE('',*,*,#492,.F.);
#636=ORIENTED_EDGE('',*,*,#493,.T.);
#637=ORIENTED_EDGE('',*,*,#494,.T.);
#638=ORIENTED_EDGE('',*,*,#490,.F.);
#639=ORIENTED_EDGE('',*,*,#495,.F.);
#640=ORIENTED_EDGE('',*,*,#488,.T.);
#641=ORIENTED_EDGE('',*,*,#496,.T.);
#642=ORIENTED_EDGE('',*,*,#493,.F.);
#643=ORIENTED_EDGE('',*,*,#496,.F.);
#644=ORIENTED_EDGE('',*,*,#487,.F.);
#645=ORIENTED_EDGE('',*,*,#491,.F.);
#646=ORIENTED_EDGE('',*,*,#494,.F.);
#647=ORIENTED_EDGE('',*,*,#497,.F.);
#648=ORIENTED_EDGE('',*,*,#498,.T.);
#649=ORIENTED_EDGE('',*,*,#499,.F.);
#650=ORIENTED_EDGE('',*,*,#498,.F.);
#651=ORIENTED_EDGE('',*,*,#500,.F.);
#652=ORIENTED_EDGE('',*,*,#501,.T.);
#653=ORIENTED_EDGE('',*,*,#502,.F.);
#654=ORIENTED_EDGE('',*,*,#501,.F.);
#655=ORIENTED_EDGE('',*,*,#503,.T.);
#656=ORIENTED_EDGE('',*,*,#504,.F.);
#657=ORIENTED_EDGE('',*,*,#505,.F.);
#658=ORIENTED_EDGE('',*,*,#506,.F.);
#659=ORIENTED_EDGE('',*,*,#507,.T.);
#660=ORIENTED_EDGE('',*,*,#508,.F.);
#661=ORIENTED_EDGE('',*,*,#509,.F.);
#662=ORIENTED_EDGE('',*,*,#510,.F.);
#663=ORIENTED_EDGE('',*,*,#511,.T.);
#664=ORIENTED_EDGE('',*,*,#512,.F.);
#665=ORIENTED_EDGE('',*,*,#513,.F.);
#666=ORIENTED_EDGE('',*,*,#514,.F.);
#667=ORIENTED_EDGE('',*,*,#512,.T.);
#668=ORIENTED_EDGE('',*,*,#515,.T.);
#669=ORIENTED_EDGE('',*,*,#506,.T.);
#670=ORIENTED_EDGE('',*,*,#516,.T.);
#671=ORIENTED_EDGE('',*,*,#517,.F.);
#672=ORIENTED_EDGE('',*,*,#518,.F.);
#673=ORIENTED_EDGE('',*,*,#519,.T.);
#674=ORIENTED_EDGE('',*,*,#520,.F.);
#675=ORIENTED_EDGE('',*,*,#521,.F.);
#676=ORIENTED_EDGE('',*,*,#522,.F.);
#677=ORIENTED_EDGE('',*,*,#523,.T.);
#678=ORIENTED_EDGE('',*,*,#524,.F.);
#679=ORIENTED_EDGE('',*,*,#508,.T.);
#680=ORIENTED_EDGE('',*,*,#525,.T.);
#681=ORIENTED_EDGE('',*,*,#522,.T.);
#682=ORIENTED_EDGE('',*,*,#526,.T.);
#683=ORIENTED_EDGE('',*,*,#524,.T.);
#684=ORIENTED_EDGE('',*,*,#527,.T.);
#685=ORIENTED_EDGE('',*,*,#514,.T.);
#686=ORIENTED_EDGE('',*,*,#528,.T.);
#687=ORIENTED_EDGE('',*,*,#529,.F.);
#688=ORIENTED_EDGE('',*,*,#530,.F.);
#689=ORIENTED_EDGE('',*,*,#531,.T.);
#690=ORIENTED_EDGE('',*,*,#532,.F.);
#691=ORIENTED_EDGE('',*,*,#533,.F.);
#692=ORIENTED_EDGE('',*,*,#534,.F.);
#693=ORIENTED_EDGE('',*,*,#535,.T.);
#694=ORIENTED_EDGE('',*,*,#536,.F.);
#695=ORIENTED_EDGE('',*,*,#520,.T.);
#696=ORIENTED_EDGE('',*,*,#537,.T.);
#697=ORIENTED_EDGE('',*,*,#534,.T.);
#698=ORIENTED_EDGE('',*,*,#538,.T.);
#699=ORIENTED_EDGE('',*,*,#539,.T.);
#700=ORIENTED_EDGE('',*,*,#540,.F.);
#701=ORIENTED_EDGE('',*,*,#541,.F.);
#702=ORIENTED_EDGE('',*,*,#542,.F.);
#703=ORIENTED_EDGE('',*,*,#540,.T.);
#704=ORIENTED_EDGE('',*,*,#543,.T.);
#705=ORIENTED_EDGE('',*,*,#530,.T.);
#706=ORIENTED_EDGE('',*,*,#544,.T.);
#707=ORIENTED_EDGE('',*,*,#521,.T.);
#708=ORIENTED_EDGE('',*,*,#545,.T.);
#709=ORIENTED_EDGE('',*,*,#541,.T.);
#710=ORIENTED_EDGE('',*,*,#546,.T.);
#711=ORIENTED_EDGE('',*,*,#536,.T.);
#712=ORIENTED_EDGE('',*,*,#547,.T.);
#713=ORIENTED_EDGE('',*,*,#542,.T.);
#714=ORIENTED_EDGE('',*,*,#548,.T.);
#715=ORIENTED_EDGE('',*,*,#513,.T.);
#716=ORIENTED_EDGE('',*,*,#549,.T.);
#717=ORIENTED_EDGE('',*,*,#533,.T.);
#718=ORIENTED_EDGE('',*,*,#550,.T.);
#719=ORIENTED_EDGE('',*,*,#532,.T.);
#720=ORIENTED_EDGE('',*,*,#551,.T.);
#721=ORIENTED_EDGE('',*,*,#518,.T.);
#722=ORIENTED_EDGE('',*,*,#552,.T.);
#723=ORIENTED_EDGE('',*,*,#509,.T.);
#724=ORIENTED_EDGE('',*,*,#553,.T.);
#725=ORIENTED_EDGE('',*,*,#529,.T.);
#726=ORIENTED_EDGE('',*,*,#554,.T.);
#727=ORIENTED_EDGE('',*,*,#505,.T.);
#728=ORIENTED_EDGE('',*,*,#555,.T.);
#729=ORIENTED_EDGE('',*,*,#517,.T.);
#730=ORIENTED_EDGE('',*,*,#556,.T.);
#731=ORIENTED_EDGE('',*,*,#504,.T.);
#732=ORIENTED_EDGE('',*,*,#557,.T.);
#733=ORIENTED_EDGE('',*,*,#510,.T.);
#734=ORIENTED_EDGE('',*,*,#558,.T.);
#735=ORIENTED_EDGE('',*,*,#559,.F.);
#736=ORIENTED_EDGE('',*,*,#560,.F.);
#737=ORIENTED_EDGE('',*,*,#561,.F.);
#738=ORIENTED_EDGE('',*,*,#562,.F.);
#739=ORIENTED_EDGE('',*,*,#563,.F.);
#740=ORIENTED_EDGE('',*,*,#564,.F.);
#741=ORIENTED_EDGE('',*,*,#565,.F.);
#742=ORIENTED_EDGE('',*,*,#566,.F.);
#743=ORIENTED_EDGE('',*,*,#523,.F.);
#744=ORIENTED_EDGE('',*,*,#525,.F.);
#745=ORIENTED_EDGE('',*,*,#507,.F.);
#746=ORIENTED_EDGE('',*,*,#557,.F.);
#747=ORIENTED_EDGE('',*,*,#503,.F.);
#748=ORIENTED_EDGE('',*,*,#515,.F.);
#749=ORIENTED_EDGE('',*,*,#511,.F.);
#750=ORIENTED_EDGE('',*,*,#527,.F.);
#751=ORIENTED_EDGE('',*,*,#528,.F.);
#752=ORIENTED_EDGE('',*,*,#550,.F.);
#753=ORIENTED_EDGE('',*,*,#548,.F.);
#754=ORIENTED_EDGE('',*,*,#545,.F.);
#755=ORIENTED_EDGE('',*,*,#538,.F.);
#756=ORIENTED_EDGE('',*,*,#549,.F.);
#757=ORIENTED_EDGE('',*,*,#516,.F.);
#758=ORIENTED_EDGE('',*,*,#556,.F.);
#759=ORIENTED_EDGE('',*,*,#567,.F.);
#760=ORIENTED_EDGE('',*,*,#568,.T.);
#761=ORIENTED_EDGE('',*,*,#569,.F.);
#762=ORIENTED_EDGE('',*,*,#570,.T.);
#763=ORIENTED_EDGE('',*,*,#571,.F.);
#764=ORIENTED_EDGE('',*,*,#572,.T.);
#765=ORIENTED_EDGE('',*,*,#573,.F.);
#766=ORIENTED_EDGE('',*,*,#574,.T.);
#767=ORIENTED_EDGE('',*,*,#539,.F.);
#768=ORIENTED_EDGE('',*,*,#547,.F.);
#769=ORIENTED_EDGE('',*,*,#535,.F.);
#770=ORIENTED_EDGE('',*,*,#537,.F.);
#771=ORIENTED_EDGE('',*,*,#519,.F.);
#772=ORIENTED_EDGE('',*,*,#551,.F.);
#773=ORIENTED_EDGE('',*,*,#531,.F.);
#774=ORIENTED_EDGE('',*,*,#543,.F.);
#775=ORIENTED_EDGE('',*,*,#544,.F.);
#776=ORIENTED_EDGE('',*,*,#553,.F.);
#777=ORIENTED_EDGE('',*,*,#526,.F.);
#778=ORIENTED_EDGE('',*,*,#546,.F.);
#779=ORIENTED_EDGE('',*,*,#552,.F.);
#780=ORIENTED_EDGE('',*,*,#555,.F.);
#781=ORIENTED_EDGE('',*,*,#558,.F.);
#782=ORIENTED_EDGE('',*,*,#554,.F.);
#783=ORIENTED_EDGE('',*,*,#561,.T.);
#784=ORIENTED_EDGE('',*,*,#575,.T.);
#785=ORIENTED_EDGE('',*,*,#576,.F.);
#786=ORIENTED_EDGE('',*,*,#577,.T.);
#787=ORIENTED_EDGE('',*,*,#500,.T.);
#788=ORIENTED_EDGE('',*,*,#565,.T.);
#789=ORIENTED_EDGE('',*,*,#578,.T.);
#790=ORIENTED_EDGE('',*,*,#579,.F.);
#791=ORIENTED_EDGE('',*,*,#580,.T.);
#792=ORIENTED_EDGE('',*,*,#499,.T.);
#793=ORIENTED_EDGE('',*,*,#581,.F.);
#794=ORIENTED_EDGE('',*,*,#566,.T.);
#795=ORIENTED_EDGE('',*,*,#580,.F.);
#796=ORIENTED_EDGE('',*,*,#582,.F.);
#797=ORIENTED_EDGE('',*,*,#583,.F.);
#798=ORIENTED_EDGE('',*,*,#584,.T.);
#799=ORIENTED_EDGE('',*,*,#559,.T.);
#800=ORIENTED_EDGE('',*,*,#581,.T.);
#801=ORIENTED_EDGE('',*,*,#584,.F.);
#802=ORIENTED_EDGE('',*,*,#585,.F.);
#803=ORIENTED_EDGE('',*,*,#575,.F.);
#804=ORIENTED_EDGE('',*,*,#560,.T.);
#805=ORIENTED_EDGE('',*,*,#586,.F.);
#806=ORIENTED_EDGE('',*,*,#587,.F.);
#807=ORIENTED_EDGE('',*,*,#578,.F.);
#808=ORIENTED_EDGE('',*,*,#564,.T.);
#809=ORIENTED_EDGE('',*,*,#563,.T.);
#810=ORIENTED_EDGE('',*,*,#588,.T.);
#811=ORIENTED_EDGE('',*,*,#589,.F.);
#812=ORIENTED_EDGE('',*,*,#586,.T.);
#813=ORIENTED_EDGE('',*,*,#577,.F.);
#814=ORIENTED_EDGE('',*,*,#590,.F.);
#815=ORIENTED_EDGE('',*,*,#588,.F.);
#816=ORIENTED_EDGE('',*,*,#562,.T.);
#817=ORIENTED_EDGE('',*,*,#591,.T.);
#818=ORIENTED_EDGE('',*,*,#592,.T.);
#819=ORIENTED_EDGE('',*,*,#567,.T.);
#820=ORIENTED_EDGE('',*,*,#593,.T.);
#821=ORIENTED_EDGE('',*,*,#591,.F.);
#822=ORIENTED_EDGE('',*,*,#594,.T.);
#823=ORIENTED_EDGE('',*,*,#595,.F.);
#824=ORIENTED_EDGE('',*,*,#596,.T.);
#825=ORIENTED_EDGE('',*,*,#597,.F.);
#826=ORIENTED_EDGE('',*,*,#598,.T.);
#827=ORIENTED_EDGE('',*,*,#599,.F.);
#828=ORIENTED_EDGE('',*,*,#600,.T.);
#829=ORIENTED_EDGE('',*,*,#576,.T.);
#830=ORIENTED_EDGE('',*,*,#585,.T.);
#831=ORIENTED_EDGE('',*,*,#583,.T.);
#832=ORIENTED_EDGE('',*,*,#582,.T.);
#833=ORIENTED_EDGE('',*,*,#579,.T.);
#834=ORIENTED_EDGE('',*,*,#587,.T.);
#835=ORIENTED_EDGE('',*,*,#589,.T.);
#836=ORIENTED_EDGE('',*,*,#590,.T.);
#837=ORIENTED_EDGE('',*,*,#593,.F.);
#838=ORIENTED_EDGE('',*,*,#574,.F.);
#839=ORIENTED_EDGE('',*,*,#601,.F.);
#840=ORIENTED_EDGE('',*,*,#594,.F.);
#841=ORIENTED_EDGE('',*,*,#473,.T.);
#842=ORIENTED_EDGE('',*,*,#483,.T.);
#843=ORIENTED_EDGE('',*,*,#480,.T.);
#844=ORIENTED_EDGE('',*,*,#477,.T.);
#845=ORIENTED_EDGE('',*,*,#485,.T.);
#846=ORIENTED_EDGE('',*,*,#495,.T.);
#847=ORIENTED_EDGE('',*,*,#492,.T.);
#848=ORIENTED_EDGE('',*,*,#489,.T.);
#849=ORIENTED_EDGE('',*,*,#595,.T.);
#850=ORIENTED_EDGE('',*,*,#601,.T.);
#851=ORIENTED_EDGE('',*,*,#573,.T.);
#852=ORIENTED_EDGE('',*,*,#602,.T.);
#853=ORIENTED_EDGE('',*,*,#599,.T.);
#854=ORIENTED_EDGE('',*,*,#603,.T.);
#855=ORIENTED_EDGE('',*,*,#569,.T.);
#856=ORIENTED_EDGE('',*,*,#604,.T.);
#857=ORIENTED_EDGE('',*,*,#603,.F.);
#858=ORIENTED_EDGE('',*,*,#598,.F.);
#859=ORIENTED_EDGE('',*,*,#605,.F.);
#860=ORIENTED_EDGE('',*,*,#570,.F.);
#861=ORIENTED_EDGE('',*,*,#597,.T.);
#862=ORIENTED_EDGE('',*,*,#606,.T.);
#863=ORIENTED_EDGE('',*,*,#571,.T.);
#864=ORIENTED_EDGE('',*,*,#605,.T.);
#865=ORIENTED_EDGE('',*,*,#602,.F.);
#866=ORIENTED_EDGE('',*,*,#572,.F.);
#867=ORIENTED_EDGE('',*,*,#606,.F.);
#868=ORIENTED_EDGE('',*,*,#596,.F.);
#869=ORIENTED_EDGE('',*,*,#497,.T.);
#870=ORIENTED_EDGE('',*,*,#592,.F.);
#871=ORIENTED_EDGE('',*,*,#600,.F.);
#872=ORIENTED_EDGE('',*,*,#604,.F.);
#873=ORIENTED_EDGE('',*,*,#568,.F.);
#874=ORIENTED_EDGE('',*,*,#502,.T.);
#875=PLANE('',#969);
#876=PLANE('',#970);
#877=PLANE('',#971);
#878=PLANE('',#972);
#879=PLANE('',#973);
#880=PLANE('',#974);
#881=PLANE('',#975);
#882=PLANE('',#976);
#883=PLANE('',#977);
#884=PLANE('',#978);
#885=PLANE('',#1037);
#886=PLANE('',#1042);
#887=PLANE('',#1043);
#888=PLANE('',#1044);
#889=PLANE('',#1049);
#890=PLANE('',#1050);
#891=PLANE('',#1051);
#892=PLANE('',#1052);
#893=PLANE('',#1055);
#894=PLANE('',#1060);
#895=PLANE('',#1065);
#896=PLANE('',#1069);
#897=PLANE('',#1072);
#898=PLANE('',#1074);
#899=PLANE('',#1075);
#900=ADVANCED_FACE('',(#106),#875,.F.);
#901=ADVANCED_FACE('',(#107),#876,.F.);
#902=ADVANCED_FACE('',(#108),#877,.F.);
#903=ADVANCED_FACE('',(#109),#878,.F.);
#904=ADVANCED_FACE('',(#110),#879,.F.);
#905=ADVANCED_FACE('',(#111),#880,.F.);
#906=ADVANCED_FACE('',(#112),#881,.F.);
#907=ADVANCED_FACE('',(#113),#882,.F.);
#908=ADVANCED_FACE('',(#114),#883,.F.);
#909=ADVANCED_FACE('',(#115),#884,.F.);
#910=ADVANCED_FACE('',(#116),#84,.F.);
#911=ADVANCED_FACE('',(#117),#85,.F.);
#912=ADVANCED_FACE('',(#118),#24,.T.);
#913=ADVANCED_FACE('',(#119),#25,.T.);
#914=ADVANCED_FACE('',(#120),#26,.T.);
#915=ADVANCED_FACE('',(#121),#86,.T.);
#916=ADVANCED_FACE('',(#122),#27,.T.);
#917=ADVANCED_FACE('',(#123),#28,.T.);
#918=ADVANCED_FACE('',(#124),#87,.T.);
#919=ADVANCED_FACE('',(#125),#88,.T.);
#920=ADVANCED_FACE('',(#126),#29,.T.);
#921=ADVANCED_FACE('',(#127),#30,.T.);
#922=ADVANCED_FACE('',(#128),#89,.T.);
#923=ADVANCED_FACE('',(#129),#31,.T.);
#924=ADVANCED_FACE('',(#130),#90,.T.);
#925=ADVANCED_FACE('',(#131),#91,.F.);
#926=ADVANCED_FACE('',(#132),#92,.T.);
#927=ADVANCED_FACE('',(#133),#93,.F.);
#928=ADVANCED_FACE('',(#134),#94,.T.);
#929=ADVANCED_FACE('',(#135),#95,.F.);
#930=ADVANCED_FACE('',(#136),#96,.F.);
#931=ADVANCED_FACE('',(#137),#97,.T.);
#932=ADVANCED_FACE('',(#138,#15),#885,.T.);
#933=ADVANCED_FACE('',(#139),#886,.F.);
#934=ADVANCED_FACE('',(#140),#887,.F.);
#935=ADVANCED_FACE('',(#141,#16),#888,.F.);
#936=ADVANCED_FACE('',(#142),#889,.F.);
#937=ADVANCED_FACE('',(#143),#890,.F.);
#938=ADVANCED_FACE('',(#144,#17),#891,.F.);
#939=ADVANCED_FACE('',(#145,#18),#892,.F.);
#940=ADVANCED_FACE('',(#146),#98,.F.);
#941=ADVANCED_FACE('',(#147),#893,.F.);
#942=ADVANCED_FACE('',(#148),#99,.F.);
#943=ADVANCED_FACE('',(#149),#100,.F.);
#944=ADVANCED_FACE('',(#150),#894,.F.);
#945=ADVANCED_FACE('',(#151),#101,.F.);
#946=ADVANCED_FACE('',(#152),#102,.T.);
#947=ADVANCED_FACE('',(#153,#19),#895,.T.);
#948=ADVANCED_FACE('',(#154,#20,#21),#896,.T.);
#949=ADVANCED_FACE('',(#155),#103,.T.);
#950=ADVANCED_FACE('',(#156),#104,.T.);
#951=ADVANCED_FACE('',(#157),#897,.T.);
#952=ADVANCED_FACE('',(#158),#105,.T.);
#953=ADVANCED_FACE('',(#159,#22),#898,.T.);
#954=ADVANCED_FACE('',(#160,#23),#899,.T.);
#955=CLOSED_SHELL('',(#900,#901,#902,#903,#904,#905,#906,#907,#908,#909,
#910,#911,#912,#913,#914,#915,#916,#917,#918,#919,#920,#921,#922,#923,#924,
#925,#926,#927,#928,#929,#930,#931,#932,#933,#934,#935,#936,#937,#938,#939,
#940,#941,#942,#943,#944,#945,#946,#947,#948,#949,#950,#951,#952,#953,#954));
#956=DERIVED_UNIT_ELEMENT(#958,1.);
#957=DERIVED_UNIT_ELEMENT(#1653,-3.);
#958=(
MASS_UNIT()
NAMED_UNIT(*)
SI_UNIT(.KILO.,.GRAM.)
);
#959=DERIVED_UNIT((#956,#957));
#960=MEASURE_REPRESENTATION_ITEM('density measure',
POSITIVE_RATIO_MEASURE(7850.),#959);
#961=PROPERTY_DEFINITION_REPRESENTATION(#966,#963);
#962=PROPERTY_DEFINITION_REPRESENTATION(#967,#964);
#963=REPRESENTATION('material name',(#965),#1650);
#964=REPRESENTATION('density',(#960),#1650);
#965=DESCRIPTIVE_REPRESENTATION_ITEM('Steel','Steel');
#966=PROPERTY_DEFINITION('material property','material name',#1660);
#967=PROPERTY_DEFINITION('material property','density of part',#1660);
#968=AXIS2_PLACEMENT_3D('',#1374,#1076,#1077);
#969=AXIS2_PLACEMENT_3D('',#1375,#1078,#1079);
#970=AXIS2_PLACEMENT_3D('',#1384,#1084,#1085);
#971=AXIS2_PLACEMENT_3D('',#1390,#1089,#1090);
#972=AXIS2_PLACEMENT_3D('',#1396,#1094,#1095);
#973=AXIS2_PLACEMENT_3D('',#1399,#1098,#1099);
#974=AXIS2_PLACEMENT_3D('',#1400,#1100,#1101);
#975=AXIS2_PLACEMENT_3D('',#1409,#1106,#1107);
#976=AXIS2_PLACEMENT_3D('',#1415,#1111,#1112);
#977=AXIS2_PLACEMENT_3D('',#1421,#1116,#1117);
#978=AXIS2_PLACEMENT_3D('',#1424,#1120,#1121);
#979=AXIS2_PLACEMENT_3D('',#1425,#1122,#1123);
#980=AXIS2_PLACEMENT_3D('',#1427,#1124,#1125);
#981=AXIS2_PLACEMENT_3D('',#1430,#1127,#1128);
#982=AXIS2_PLACEMENT_3D('',#1431,#1129,#1130);
#983=AXIS2_PLACEMENT_3D('',#1433,#1131,#1132);
#984=AXIS2_PLACEMENT_3D('',#1436,#1134,#1135);
#985=AXIS2_PLACEMENT_3D('',#1437,#1136,#1137);
#986=AXIS2_PLACEMENT_3D('',#1440,#1138,#1139);
#987=AXIS2_PLACEMENT_3D('',#1442,#1140,#1141);
#988=AXIS2_PLACEMENT_3D('',#1444,#1142,#1143);
#989=AXIS2_PLACEMENT_3D('',#1445,#1144,#1145);
#990=AXIS2_PLACEMENT_3D('',#1446,#1146,#1147);
#991=AXIS2_PLACEMENT_3D('',#1449,#1148,#1149);
#992=AXIS2_PLACEMENT_3D('',#1451,#1150,#1151);
#993=AXIS2_PLACEMENT_3D('',#1453,#1152,#1153);
#994=AXIS2_PLACEMENT_3D('',#1454,#1154,#1155);
#995=AXIS2_PLACEMENT_3D('',#1455,#1156,#1157);
#996=AXIS2_PLACEMENT_3D('',#1458,#1158,#1159);
#997=AXIS2_PLACEMENT_3D('',#1460,#1160,#1161);
#998=AXIS2_PLACEMENT_3D('',#1462,#1162,#1163);
#999=AXIS2_PLACEMENT_3D('',#1463,#1164,#1165);
#1000=AXIS2_PLACEMENT_3D('',#1464,#1166,#1167);
#1001=AXIS2_PLACEMENT_3D('',#1467,#1170,#1171);
#1002=AXIS2_PLACEMENT_3D('',#1470,#1172,#1173);
#1003=AXIS2_PLACEMENT_3D('',#1472,#1174,#1175);
#1004=AXIS2_PLACEMENT_3D('',#1474,#1176,#1177);
#1005=AXIS2_PLACEMENT_3D('',#1475,#1178,#1179);
#1006=AXIS2_PLACEMENT_3D('',#1476,#1180,#1181);
#1007=AXIS2_PLACEMENT_3D('',#1479,#1182,#1183);
#1008=AXIS2_PLACEMENT_3D('',#1481,#1184,#1185);
#1009=AXIS2_PLACEMENT_3D('',#1483,#1186,#1187);
#1010=AXIS2_PLACEMENT_3D('',#1484,#1188,#1189);
#1011=AXIS2_PLACEMENT_3D('',#1485,#1190,#1191);
#1012=AXIS2_PLACEMENT_3D('',#1488,#1194,#1195);
#1013=AXIS2_PLACEMENT_3D('',#1491,#1198,#1199);
#1014=AXIS2_PLACEMENT_3D('',#1494,#1200,#1201);
#1015=AXIS2_PLACEMENT_3D('',#1496,#1202,#1203);
#1016=AXIS2_PLACEMENT_3D('',#1498,#1204,#1205);
#1017=AXIS2_PLACEMENT_3D('',#1499,#1206,#1207);
#1018=AXIS2_PLACEMENT_3D('',#1500,#1208,#1209);
#1019=AXIS2_PLACEMENT_3D('',#1503,#1210,#1211);
#1020=AXIS2_PLACEMENT_3D('',#1505,#1212,#1213);
#1021=AXIS2_PLACEMENT_3D('',#1507,#1214,#1215);
#1022=AXIS2_PLACEMENT_3D('',#1508,#1216,#1217);
#1023=AXIS2_PLACEMENT_3D('',#1509,#1218,#1219);
#1024=AXIS2_PLACEMENT_3D('',#1512,#1222,#1223);
#1025=AXIS2_PLACEMENT_3D('',#1515,#1224,#1225);
#1026=AXIS2_PLACEMENT_3D('',#1517,#1226,#1227);
#1027=AXIS2_PLACEMENT_3D('',#1519,#1228,#1229);
#1028=AXIS2_PLACEMENT_3D('',#1520,#1230,#1231);
#1029=AXIS2_PLACEMENT_3D('',#1521,#1232,#1233);
#1030=AXIS2_PLACEMENT_3D('',#1524,#1236,#1237);
#1031=AXIS2_PLACEMENT_3D('',#1527,#1240,#1241);
#1032=AXIS2_PLACEMENT_3D('',#1530,#1244,#1245);
#1033=AXIS2_PLACEMENT_3D('',#1533,#1248,#1249);
#1034=AXIS2_PLACEMENT_3D('',#1536,#1252,#1253);
#1035=AXIS2_PLACEMENT_3D('',#1539,#1256,#1257);
#1036=AXIS2_PLACEMENT_3D('',#1542,#1260,#1261);
#1037=AXIS2_PLACEMENT_3D('',#1545,#1264,#1265);
#1038=AXIS2_PLACEMENT_3D('',#1550,#1267,#1268);
#1039=AXIS2_PLACEMENT_3D('',#1554,#1270,#1271);
#1040=AXIS2_PLACEMENT_3D('',#1558,#1273,#1274);
#1041=AXIS2_PLACEMENT_3D('',#1561,#1276,#1277);
#1042=AXIS2_PLACEMENT_3D('',#1562,#1278,#1279);
#1043=AXIS2_PLACEMENT_3D('',#1563,#1280,#1281);
#1044=AXIS2_PLACEMENT_3D('',#1564,#1282,#1283);
#1045=AXIS2_PLACEMENT_3D('',#1567,#1284,#1285);
#1046=AXIS2_PLACEMENT_3D('',#1571,#1287,#1288);
#1047=AXIS2_PLACEMENT_3D('',#1575,#1290,#1291);
#1048=AXIS2_PLACEMENT_3D('',#1579,#1293,#1294);
#1049=AXIS2_PLACEMENT_3D('',#1581,#1296,#1297);
#1050=AXIS2_PLACEMENT_3D('',#1582,#1298,#1299);
#1051=AXIS2_PLACEMENT_3D('',#1583,#1300,#1301);
#1052=AXIS2_PLACEMENT_3D('',#1589,#1305,#1306);
#1053=AXIS2_PLACEMENT_3D('',#1595,#1310,#1311);
#1054=AXIS2_PLACEMENT_3D('',#1598,#1313,#1314);
#1055=AXIS2_PLACEMENT_3D('',#1599,#1315,#1316);
#1056=AXIS2_PLACEMENT_3D('',#1603,#1319,#1320);
#1057=AXIS2_PLACEMENT_3D('',#1604,#1321,#1322);
#1058=AXIS2_PLACEMENT_3D('',#1605,#1323,#1324);
#1059=AXIS2_PLACEMENT_3D('',#1608,#1326,#1327);
#1060=AXIS2_PLACEMENT_3D('',#1609,#1328,#1329);
#1061=AXIS2_PLACEMENT_3D('',#1613,#1332,#1333);
#1062=AXIS2_PLACEMENT_3D('',#1614,#1334,#1335);
#1063=AXIS2_PLACEMENT_3D('',#1615,#1336,#1337);
#1064=AXIS2_PLACEMENT_3D('',#1618,#1338,#1339);
#1065=AXIS2_PLACEMENT_3D('',#1621,#1342,#1343);
#1066=AXIS2_PLACEMENT_3D('',#1625,#1345,#1346);
#1067=AXIS2_PLACEMENT_3D('',#1629,#1348,#1349);
#1068=AXIS2_PLACEMENT_3D('',#1633,#1351,#1352);
#1069=AXIS2_PLACEMENT_3D('',#1635,#1354,#1355);
#1070=AXIS2_PLACEMENT_3D('',#1637,#1357,#1358);
#1071=AXIS2_PLACEMENT_3D('',#1639,#1360,#1361);
#1072=AXIS2_PLACEMENT_3D('',#1642,#1364,#1365);
#1073=AXIS2_PLACEMENT_3D('',#1644,#1367,#1368);
#1074=AXIS2_PLACEMENT_3D('',#1646,#1370,#1371);
#1075=AXIS2_PLACEMENT_3D('',#1647,#1372,#1373);
#1076=DIRECTION('axis',(0.,0.,1.));
#1077=DIRECTION('refdir',(1.,0.,0.));
#1078=DIRECTION('center_axis',(0.,0.,-1.));
#1079=DIRECTION('ref_axis',(1.,0.,0.));
#1080=DIRECTION('',(1.,0.,0.));
#1081=DIRECTION('',(0.,-1.,0.));
#1082=DIRECTION('',(1.,0.,0.));
#1083=DIRECTION('',(0.,-1.,0.));
#1084=DIRECTION('center_axis',(-1.,0.,0.));
#1085=DIRECTION('ref_axis',(0.,0.,-1.));
#1086=DIRECTION('',(0.,0.,-1.));
#1087=DIRECTION('',(0.,-1.,0.));
#1088=DIRECTION('',(0.,0.,-1.));
#1089=DIRECTION('center_axis',(0.,0.,1.));
#1090=DIRECTION('ref_axis',(-1.,0.,0.));
#1091=DIRECTION('',(-1.,0.,0.));
#1092=DIRECTION('',(0.,-1.,0.));
#1093=DIRECTION('',(-1.,0.,0.));
#1094=DIRECTION('center_axis',(1.,0.,0.));
#1095=DIRECTION('ref_axis',(0.,0.,1.));
#1096=DIRECTION('',(0.,0.,1.));
#1097=DIRECTION('',(0.,0.,1.));
#1098=DIRECTION('center_axis',(0.,-1.,0.));
#1099=DIRECTION('ref_axis',(0.,0.,-1.));
#1100=DIRECTION('center_axis',(0.,0.,-1.));
#1101=DIRECTION('ref_axis',(1.,0.,0.));
#1102=DIRECTION('',(1.,0.,0.));
#1103=DIRECTION('',(0.,-1.,0.));
#1104=DIRECTION('',(1.,0.,0.));
#1105=DIRECTION('',(0.,-1.,0.));
#1106=DIRECTION('center_axis',(-1.,0.,0.));
#1107=DIRECTION('ref_axis',(0.,0.,-1.));
#1108=DIRECTION('',(0.,0.,-1.));
#1109=DIRECTION('',(0.,-1.,0.));
#1110=DIRECTION('',(0.,0.,-1.));
#1111=DIRECTION('center_axis',(0.,0.,1.));
#1112=DIRECTION('ref_axis',(-1.,0.,0.));
#1113=DIRECTION('',(-1.,0.,0.));
#1114=DIRECTION('',(0.,-1.,0.));
#1115=DIRECTION('',(-1.,0.,0.));
#1116=DIRECTION('center_axis',(1.,0.,0.));
#1117=DIRECTION('ref_axis',(0.,0.,1.));
#1118=DIRECTION('',(0.,0.,1.));
#1119=DIRECTION('',(0.,0.,1.));
#1120=DIRECTION('center_axis',(0.,-1.,0.));
#1121=DIRECTION('ref_axis',(0.,0.,-1.));
#1122=DIRECTION('center_axis',(1.,0.,0.));
#1123=DIRECTION('ref_axis',(0.,-1.,0.));
#1124=DIRECTION('center_axis',(1.,0.,0.));
#1125=DIRECTION('ref_axis',(0.,-1.,0.));
#1126=DIRECTION('',(1.,0.,0.));
#1127=DIRECTION('center_axis',(-1.,0.,0.));
#1128=DIRECTION('ref_axis',(0.,-1.,0.));
#1129=DIRECTION('center_axis',(1.,0.,0.));
#1130=DIRECTION('ref_axis',(0.,-1.,0.));
#1131=DIRECTION('center_axis',(1.,2.03012210217171E-15,0.));
#1132=DIRECTION('ref_axis',(0.,-1.,0.));
#1133=DIRECTION('',(1.,0.,0.));
#1134=DIRECTION('center_axis',(-1.,-2.03012210217171E-15,0.));
#1135=DIRECTION('ref_axis',(0.,-1.,0.));
#1136=DIRECTION('center_axis',(0.,0.,1.));
#1137=DIRECTION('ref_axis',(1.,0.,0.));
#1138=DIRECTION('center_axis',(0.,0.,1.));
#1139=DIRECTION('ref_axis',(-0.707106781186547,-0.707106781186547,0.));
#1140=DIRECTION('center_axis',(1.,0.,0.));
#1141=DIRECTION('ref_axis',(0.,1.,0.));
#1142=DIRECTION('center_axis',(0.,0.,-1.));
#1143=DIRECTION('ref_axis',(-1.,0.,0.));
#1144=DIRECTION('center_axis',(0.,1.,0.));
#1145=DIRECTION('ref_axis',(0.,0.,1.));
#1146=DIRECTION('center_axis',(0.,0.,1.));
#1147=DIRECTION('ref_axis',(1.,0.,0.));
#1148=DIRECTION('center_axis',(0.,0.,1.));
#1149=DIRECTION('ref_axis',(0.707106781186546,-0.707106781186549,0.));
#1150=DIRECTION('center_axis',(0.,1.,0.));
#1151=DIRECTION('ref_axis',(-1.,0.,0.));
#1152=DIRECTION('center_axis',(0.,0.,-1.));
#1153=DIRECTION('ref_axis',(0.,-1.,0.));
#1154=DIRECTION('center_axis',(-1.,0.,0.));
#1155=DIRECTION('ref_axis',(0.,0.,1.));
#1156=DIRECTION('center_axis',(0.,0.,1.));
#1157=DIRECTION('ref_axis',(1.,0.,0.));
#1158=DIRECTION('center_axis',(0.,0.,1.));
#1159=DIRECTION('ref_axis',(-0.707106781186547,0.707106781186547,0.));
#1160=DIRECTION('center_axis',(0.,-1.,0.));
#1161=DIRECTION('ref_axis',(1.,0.,0.));
#1162=DIRECTION('center_axis',(0.,0.,-1.));
#1163=DIRECTION('ref_axis',(0.,1.,0.));
#1164=DIRECTION('center_axis',(1.,0.,0.));
#1165=DIRECTION('ref_axis',(0.,0.,1.));
#1166=DIRECTION('center_axis',(0.,1.,0.));
#1167=DIRECTION('ref_axis',(0.707106781186546,0.,0.707106781186549));
#1168=DIRECTION('',(0.,-1.,0.));
#1169=DIRECTION('',(0.,1.,0.));
#1170=DIRECTION('center_axis',(0.,0.,1.));
#1171=DIRECTION('ref_axis',(1.,0.,0.));
#1172=DIRECTION('center_axis',(0.,0.,1.));
#1173=DIRECTION('ref_axis',(0.,-1.,0.));
#1174=DIRECTION('center_axis',(1.,0.,0.));
#1175=DIRECTION('ref_axis',(0.,0.,-1.));
#1176=DIRECTION('center_axis',(0.,0.,-1.));
#1177=DIRECTION('ref_axis',(-0.707106781186547,-0.707106781186547,0.));
#1178=DIRECTION('center_axis',(0.,1.,0.));
#1179=DIRECTION('ref_axis',(1.,0.,0.));
#1180=DIRECTION('center_axis',(0.,0.,-1.));
#1181=DIRECTION('ref_axis',(-1.,0.,0.));
#1182=DIRECTION('center_axis',(0.,0.,-1.));
#1183=DIRECTION('ref_axis',(1.,0.,0.));
#1184=DIRECTION('center_axis',(0.,-1.,0.));
#1185=DIRECTION('ref_axis',(0.,0.,1.));
#1186=DIRECTION('center_axis',(0.,0.,1.));
#1187=DIRECTION('ref_axis',(0.707106781186548,0.707106781186548,0.));
#1188=DIRECTION('center_axis',(-1.,0.,0.));
#1189=DIRECTION('ref_axis',(0.,-1.,0.));
#1190=DIRECTION('center_axis',(0.,-1.,0.));
#1191=DIRECTION('ref_axis',(-0.70710678118654,0.,0.707106781186555));
#1192=DIRECTION('',(0.,1.,0.));
#1193=DIRECTION('',(0.,-1.,0.));
#1194=DIRECTION('center_axis',(1.,8.64548965430031E-17,0.));
#1195=DIRECTION('ref_axis',(0.,-0.707106781186549,0.707106781186546));
#1196=DIRECTION('',(-1.,-8.64548965430031E-17,0.));
#1197=DIRECTION('',(1.,8.64548965430031E-17,0.));
#1198=DIRECTION('center_axis',(0.,0.,1.));
#1199=DIRECTION('ref_axis',(1.,0.,0.));
#1200=DIRECTION('center_axis',(0.,0.,1.));
#1201=DIRECTION('ref_axis',(1.,0.,0.));
#1202=DIRECTION('center_axis',(0.,1.,0.));
#1203=DIRECTION('ref_axis',(0.,0.,-1.));
#1204=DIRECTION('center_axis',(0.,0.,-1.));
#1205=DIRECTION('ref_axis',(0.707106781186546,-0.707106781186549,0.));
#1206=DIRECTION('center_axis',(-1.,0.,0.));
#1207=DIRECTION('ref_axis',(0.,1.,0.));
#1208=DIRECTION('center_axis',(0.,0.,1.));
#1209=DIRECTION('ref_axis',(1.,0.,0.));
#1210=DIRECTION('center_axis',(0.,0.,1.));
#1211=DIRECTION('ref_axis',(-1.,0.,0.));
#1212=DIRECTION('center_axis',(0.,-1.,0.));
#1213=DIRECTION('ref_axis',(0.,0.,-1.));
#1214=DIRECTION('center_axis',(0.,0.,-1.));
#1215=DIRECTION('ref_axis',(-0.707106781186547,0.707106781186547,0.));
#1216=DIRECTION('center_axis',(1.,0.,0.));
#1217=DIRECTION('ref_axis',(0.,-1.,0.));
#1218=DIRECTION('center_axis',(0.,-1.,0.));
#1219=DIRECTION('ref_axis',(0.707106781186546,0.,-0.707106781186549));
#1220=DIRECTION('',(0.,1.,0.));
#1221=DIRECTION('',(0.,-1.,0.));
#1222=DIRECTION('center_axis',(0.,0.,-1.));
#1223=DIRECTION('ref_axis',(-1.,0.,0.));
#1224=DIRECTION('center_axis',(0.,0.,-1.));
#1225=DIRECTION('ref_axis',(0.707106781186548,0.707106781186548,0.));
#1226=DIRECTION('center_axis',(0.,-1.,0.));
#1227=DIRECTION('ref_axis',(-1.,0.,0.));
#1228=DIRECTION('center_axis',(0.,0.,1.));
#1229=DIRECTION('ref_axis',(0.,1.,0.));
#1230=DIRECTION('center_axis',(-1.,0.,0.));
#1231=DIRECTION('ref_axis',(0.,0.,-1.));
#1232=DIRECTION('center_axis',(0.,1.,0.));
#1233=DIRECTION('ref_axis',(-0.70710678118654,0.,-0.707106781186555));
#1234=DIRECTION('',(0.,-1.,0.));
#1235=DIRECTION('',(0.,1.,0.));
#1236=DIRECTION('center_axis',(0.,0.,1.));
#1237=DIRECTION('ref_axis',(0.707106781186541,0.707106781186554,0.));
#1238=DIRECTION('',(0.,0.,-1.));
#1239=DIRECTION('',(0.,0.,1.));
#1240=DIRECTION('center_axis',(-1.,-8.64548965430031E-17,0.));
#1241=DIRECTION('ref_axis',(0.,-0.707106781186549,-0.707106781186546));
#1242=DIRECTION('',(1.,8.64548965430031E-17,0.));
#1243=DIRECTION('',(-1.,-8.64548965430031E-17,0.));
#1244=DIRECTION('center_axis',(0.,0.,1.));
#1245=DIRECTION('ref_axis',(-0.707106781186548,0.707106781186548,0.));
#1246=DIRECTION('',(0.,0.,-1.));
#1247=DIRECTION('',(0.,0.,1.));
#1248=DIRECTION('center_axis',(1.,8.64548965430031E-17,0.));
#1249=DIRECTION('ref_axis',(0.,0.707106781186546,-0.707106781186549));
#1250=DIRECTION('',(-1.,-8.64548965430031E-17,0.));
#1251=DIRECTION('',(1.,8.64548965430031E-17,0.));
#1252=DIRECTION('center_axis',(0.,0.,1.));
#1253=DIRECTION('ref_axis',(0.707106781186538,-0.707106781186557,0.));
#1254=DIRECTION('',(0.,0.,-1.));
#1255=DIRECTION('',(0.,0.,1.));
#1256=DIRECTION('center_axis',(0.,0.,1.));
#1257=DIRECTION('ref_axis',(-0.707106781186548,-0.707106781186548,0.));
#1258=DIRECTION('',(0.,0.,-1.));
#1259=DIRECTION('',(0.,0.,1.));
#1260=DIRECTION('center_axis',(-1.,-8.64548965430031E-17,0.));
#1261=DIRECTION('ref_axis',(0.,0.707106781186546,0.707106781186549));
#1262=DIRECTION('',(1.,8.64548965430031E-17,0.));
#1263=DIRECTION('',(-1.,-8.64548965430031E-17,0.));
#1264=DIRECTION('center_axis',(0.,0.,1.));
#1265=DIRECTION('ref_axis',(1.,0.,0.));
#1266=DIRECTION('',(-1.,0.,0.));
#1267=DIRECTION('center_axis',(0.,0.,-1.));
#1268=DIRECTION('ref_axis',(0.707106781186548,-0.707106781186547,0.));
#1269=DIRECTION('',(2.03012210217171E-15,-1.,0.));
#1270=DIRECTION('center_axis',(0.,0.,-1.));
#1271=DIRECTION('ref_axis',(0.707106781186547,0.707106781186548,0.));
#1272=DIRECTION('',(1.,0.,0.));
#1273=DIRECTION('center_axis',(0.,0.,-1.));
#1274=DIRECTION('ref_axis',(-0.707106781186548,0.707106781186548,0.));
#1275=DIRECTION('',(0.,1.,0.));
#1276=DIRECTION('center_axis',(0.,0.,-1.));
#1277=DIRECTION('ref_axis',(-0.707106781186548,-0.707106781186548,0.));
#1278=DIRECTION('center_axis',(-8.64548965430031E-17,1.,0.));
#1279=DIRECTION('ref_axis',(-1.,-8.64548965430031E-17,0.));
#1280=DIRECTION('center_axis',(-1.,0.,0.));
#1281=DIRECTION('ref_axis',(0.,-1.,0.));
#1282=DIRECTION('center_axis',(0.,0.,1.));
#1283=DIRECTION('ref_axis',(1.,0.,0.));
#1284=DIRECTION('center_axis',(0.,0.,1.));
#1285=DIRECTION('ref_axis',(0.707106781186547,0.707106781186548,0.));
#1286=DIRECTION('',(2.03012210217171E-15,-1.,0.));
#1287=DIRECTION('center_axis',(0.,0.,1.));
#1288=DIRECTION('ref_axis',(0.707106781186548,-0.707106781186547,0.));
#1289=DIRECTION('',(-1.,0.,0.));
#1290=DIRECTION('center_axis',(0.,0.,1.));
#1291=DIRECTION('ref_axis',(-0.707106781186547,-0.707106781186547,0.));
#1292=DIRECTION('',(0.,1.,0.));
#1293=DIRECTION('center_axis',(0.,0.,1.));
#1294=DIRECTION('ref_axis',(-0.707106781186547,0.707106781186547,0.));
#1295=DIRECTION('',(1.,0.,0.));
#1296=DIRECTION('center_axis',(1.,0.,0.));
#1297=DIRECTION('ref_axis',(0.,1.,0.));
#1298=DIRECTION('center_axis',(8.64548965430031E-17,-1.,0.));
#1299=DIRECTION('ref_axis',(1.,8.64548965430031E-17,0.));
#1300=DIRECTION('center_axis',(1.,2.03012210217171E-15,0.));
#1301=DIRECTION('ref_axis',(-2.03012210217171E-15,1.,0.));
#1302=DIRECTION('',(0.,0.,1.));
#1303=DIRECTION('',(2.03012210217171E-15,-1.,0.));
#1304=DIRECTION('',(0.,0.,-1.));
#1305=DIRECTION('center_axis',(-1.,0.,0.));
#1306=DIRECTION('ref_axis',(0.,-1.,0.));
#1307=DIRECTION('',(0.,0.,1.));
#1308=DIRECTION('',(0.,1.,0.));
#1309=DIRECTION('',(0.,0.,-1.));
#1310=DIRECTION('center_axis',(0.,0.,1.));
#1311=DIRECTION('ref_axis',(-0.707106781186548,-0.707106781186548,0.));
#1312=DIRECTION('',(0.,0.,1.));
#1313=DIRECTION('center_axis',(0.,0.,-1.));
#1314=DIRECTION('ref_axis',(-1.,0.,0.));
#1315=DIRECTION('center_axis',(0.,-1.,0.));
#1316=DIRECTION('ref_axis',(1.,0.,0.));
#1317=DIRECTION('',(-1.,0.,0.));
#1318=DIRECTION('',(0.,0.,-1.));
#1319=DIRECTION('center_axis',(0.,0.,1.));
#1320=DIRECTION('ref_axis',(0.707106781186548,-0.707106781186547,0.));
#1321=DIRECTION('center_axis',(0.,0.,-1.));
#1322=DIRECTION('ref_axis',(-1.,0.,0.));
#1323=DIRECTION('center_axis',(0.,0.,1.));
#1324=DIRECTION('ref_axis',(-0.707106781186548,0.707106781186548,0.));
#1325=DIRECTION('',(0.,0.,-1.));
#1326=DIRECTION('center_axis',(0.,0.,-1.));
#1327=DIRECTION('ref_axis',(-1.,0.,0.));
#1328=DIRECTION('center_axis',(0.,1.,0.));
#1329=DIRECTION('ref_axis',(-1.,0.,0.));
#1330=DIRECTION('',(0.,0.,1.));
#1331=DIRECTION('',(1.,0.,0.));
#1332=DIRECTION('center_axis',(0.,0.,1.));
#1333=DIRECTION('ref_axis',(0.707106781186547,0.707106781186548,0.));
#1334=DIRECTION('center_axis',(0.,0.,-1.));
#1335=DIRECTION('ref_axis',(-1.,0.,0.));
#1336=DIRECTION('center_axis',(0.,0.,1.));
#1337=DIRECTION('ref_axis',(0.707106781186547,0.707106781186548,0.));
#1338=DIRECTION('center_axis',(0.,0.,-1.));
#1339=DIRECTION('ref_axis',(0.707106781186547,0.707106781186548,0.));
#1340=DIRECTION('',(0.,0.,-1.));
#1341=DIRECTION('',(0.,0.,1.));
#1342=DIRECTION('center_axis',(0.,0.,1.));
#1343=DIRECTION('ref_axis',(1.,0.,0.));
#1344=DIRECTION('',(-1.,0.,0.));
#1345=DIRECTION('center_axis',(0.,0.,-1.));
#1346=DIRECTION('ref_axis',(-0.707106781186547,0.707106781186547,0.));
#1347=DIRECTION('',(0.,-1.,0.));
#1348=DIRECTION('center_axis',(0.,0.,-1.));
#1349=DIRECTION('ref_axis',(-0.707106781186547,-0.707106781186547,0.));
#1350=DIRECTION('',(1.,0.,0.));
#1351=DIRECTION('center_axis',(0.,0.,-1.));
#1352=DIRECTION('ref_axis',(0.707106781186548,-0.707106781186547,0.));
#1353=DIRECTION('',(-2.03012210217171E-15,1.,0.));
#1354=DIRECTION('center_axis',(0.,1.,0.));
#1355=DIRECTION('ref_axis',(-1.,0.,0.));
#1356=DIRECTION('',(0.,0.,-1.));
#1357=DIRECTION('center_axis',(0.,0.,1.));
#1358=DIRECTION('ref_axis',(-0.707106781186547,0.707106781186547,0.));
#1359=DIRECTION('',(0.,0.,1.));
#1360=DIRECTION('center_axis',(0.,0.,1.));
#1361=DIRECTION('ref_axis',(0.707106781186548,-0.707106781186547,0.));
#1362=DIRECTION('',(0.,0.,-1.));
#1363=DIRECTION('',(0.,0.,1.));
#1364=DIRECTION('center_axis',(0.,-1.,0.));
#1365=DIRECTION('ref_axis',(1.,0.,0.));
#1366=DIRECTION('',(0.,0.,1.));
#1367=DIRECTION('center_axis',(0.,0.,1.));
#1368=DIRECTION('ref_axis',(-0.707106781186547,-0.707106781186547,0.));
#1369=DIRECTION('',(0.,0.,-1.));
#1370=DIRECTION('center_axis',(-1.,0.,0.));
#1371=DIRECTION('ref_axis',(0.,-1.,0.));
#1372=DIRECTION('center_axis',(1.,2.03012210217171E-15,0.));
#1373=DIRECTION('ref_axis',(-2.03012210217171E-15,1.,0.));
#1374=CARTESIAN_POINT('',(0.,0.,0.));
#1375=CARTESIAN_POINT('Origin',(185.648067007051,79.1533889288729,10.));
#1376=CARTESIAN_POINT('',(185.648067007051,79.1533889288729,10.));
#1377=CARTESIAN_POINT('',(207.748067007051,79.1533889288729,10.));
#1378=CARTESIAN_POINT('',(209.198067007051,79.1533889288729,10.));
#1379=CARTESIAN_POINT('',(185.648067007051,76.153388928873,10.));
#1380=CARTESIAN_POINT('',(185.648067007051,79.1533889288729,10.));
#1381=CARTESIAN_POINT('',(207.748067007051,76.153388928873,10.));
#1382=CARTESIAN_POINT('',(207.748067007051,76.153388928873,10.));
#1383=CARTESIAN_POINT('',(207.748067007051,79.1533889288729,10.));
#1384=CARTESIAN_POINT('Origin',(185.648067007051,79.1533889288729,237.));
#1385=CARTESIAN_POINT('',(185.648067007051,79.1533889288729,237.));
#1386=CARTESIAN_POINT('',(185.648067007051,79.1533889288729,118.5));
#1387=CARTESIAN_POINT('',(185.648067007051,76.153388928873,237.));
#1388=CARTESIAN_POINT('',(185.648067007051,79.1533889288729,237.));
#1389=CARTESIAN_POINT('',(185.648067007051,76.153388928873,10.));
#1390=CARTESIAN_POINT('Origin',(207.748067007051,79.1533889288729,237.));
#1391=CARTESIAN_POINT('',(207.748067007051,79.1533889288729,237.));
#1392=CARTESIAN_POINT('',(220.248067007051,79.1533889288729,237.));
#1393=CARTESIAN_POINT('',(207.748067007051,76.153388928873,237.));
#1394=CARTESIAN_POINT('',(207.748067007051,79.1533889288729,237.));
#1395=CARTESIAN_POINT('',(185.648067007051,76.153388928873,237.));
#1396=CARTESIAN_POINT('Origin',(207.748067007051,79.1533889288729,10.));
#1397=CARTESIAN_POINT('',(207.748067007051,79.1533889288729,5.));
#1398=CARTESIAN_POINT('',(207.748067007051,76.153388928873,237.));
#1399=CARTESIAN_POINT('Origin',(196.698067007051,76.153388928873,123.5));
#1400=CARTESIAN_POINT('Origin',(47.7480670070506,79.1533889288729,10.));
#1401=CARTESIAN_POINT('',(47.7480670070506,79.1533889288729,10.));
#1402=CARTESIAN_POINT('',(69.8480670070506,79.1533889288729,10.));
#1403=CARTESIAN_POINT('',(140.248067007051,79.1533889288729,10.));
#1404=CARTESIAN_POINT('',(47.7480670070506,76.153388928873,10.));
#1405=CARTESIAN_POINT('',(47.7480670070506,79.1533889288729,10.));
#1406=CARTESIAN_POINT('',(69.8480670070506,76.153388928873,10.));
#1407=CARTESIAN_POINT('',(69.8480670070506,76.153388928873,10.));
#1408=CARTESIAN_POINT('',(69.8480670070506,79.1533889288729,10.));
#1409=CARTESIAN_POINT('Origin',(47.7480670070506,79.1533889288729,237.));
#1410=CARTESIAN_POINT('',(47.7480670070506,79.1533889288729,237.));
#1411=CARTESIAN_POINT('',(47.7480670070506,79.1533889288729,118.5));
#1412=CARTESIAN_POINT('',(47.7480670070506,76.153388928873,237.));
#1413=CARTESIAN_POINT('',(47.7480670070506,79.1533889288729,237.));
#1414=CARTESIAN_POINT('',(47.7480670070506,76.153388928873,10.));
#1415=CARTESIAN_POINT('Origin',(69.8480670070506,79.1533889288729,237.));
#1416=CARTESIAN_POINT('',(69.8480670070506,79.1533889288729,237.));
#1417=CARTESIAN_POINT('',(151.298067007051,79.1533889288729,237.));
#1418=CARTESIAN_POINT('',(69.8480670070506,76.153388928873,237.));
#1419=CARTESIAN_POINT('',(69.8480670070506,79.1533889288729,237.));
#1420=CARTESIAN_POINT('',(47.7480670070506,76.153388928873,237.));
#1421=CARTESIAN_POINT('Origin',(69.8480670070506,79.1533889288729,10.));
#1422=CARTESIAN_POINT('',(69.8480670070506,79.1533889288729,5.));
#1423=CARTESIAN_POINT('',(69.8480670070506,76.153388928873,237.));
#1424=CARTESIAN_POINT('Origin',(58.7980670070506,76.153388928873,123.5));
#1425=CARTESIAN_POINT('Origin',(172.748067007051,43.0604172322361,47.3956973029282));
#1426=CARTESIAN_POINT('',(22.7480670070506,53.0604172322361,47.3956973029282));
#1427=CARTESIAN_POINT('Origin',(22.7480670070506,43.0604172322361,47.3956973029282));
#1428=CARTESIAN_POINT('',(30.2480670070506,53.0604172322361,47.3956973029282));
#1429=CARTESIAN_POINT('',(172.748067007051,53.0604172322361,47.3956973029282));
#1430=CARTESIAN_POINT('Origin',(30.2480670070506,43.0604172322361,47.3956973029282));
#1431=CARTESIAN_POINT('Origin',(172.748067007051,43.0604172322361,47.3956973029282));
#1432=CARTESIAN_POINT('',(225.248067007051,53.0604172322361,47.3956973029282));
#1433=CARTESIAN_POINT('Origin',(225.248067007051,43.0604172322361,47.3956973029282));
#1434=CARTESIAN_POINT('',(232.748067007051,53.0604172322361,47.3956973029282));
#1435=CARTESIAN_POINT('',(172.748067007051,53.0604172322361,47.3956973029282));
#1436=CARTESIAN_POINT('Origin',(232.748067007051,43.0604172322361,47.3956973029282));
#1437=CARTESIAN_POINT('Origin',(79.6972651430443,52.4407866187253,5.5));
#1438=CARTESIAN_POINT('',(75.6972651430443,52.4407866187253,7.5));
#1439=CARTESIAN_POINT('',(79.6972651430443,48.4407866187253,7.5));
#1440=CARTESIAN_POINT('Origin',(79.6972651430443,52.4407866187253,7.5));
#1441=CARTESIAN_POINT('',(79.6972651430443,50.4407866187253,5.5));
#1442=CARTESIAN_POINT('Origin',(79.6972651430443,48.4407866187253,5.5));
#1443=CARTESIAN_POINT('',(77.6972651430443,52.4407866187253,5.5));
#1444=CARTESIAN_POINT('Origin',(79.6972651430443,52.4407866187253,5.5));
#1445=CARTESIAN_POINT('Origin',(75.6972651430443,52.4407866187253,5.5));
#1446=CARTESIAN_POINT('Origin',(178.430419101345,52.4407866187253,5.5));
#1447=CARTESIAN_POINT('',(178.430419101345,48.4407866187253,7.5));
#1448=CARTESIAN_POINT('',(182.430419101345,52.4407866187253,7.5));
#1449=CARTESIAN_POINT('Origin',(178.430419101345,52.4407866187253,7.5));
#1450=CARTESIAN_POINT('',(180.430419101345,52.4407866187253,5.5));
#1451=CARTESIAN_POINT('Origin',(182.430419101345,52.4407866187253,5.5));
#1452=CARTESIAN_POINT('',(178.430419101345,50.4407866187253,5.5));
#1453=CARTESIAN_POINT('Origin',(178.430419101345,52.4407866187253,5.5));
#1454=CARTESIAN_POINT('Origin',(178.430419101345,48.4407866187253,5.5));
#1455=CARTESIAN_POINT('Origin',(79.6972651430443,63.4407866187253,5.5));
#1456=CARTESIAN_POINT('',(79.6972651430443,67.4407866187253,7.5));
#1457=CARTESIAN_POINT('',(75.6972651430443,63.4407866187253,7.5));
#1458=CARTESIAN_POINT('Origin',(79.6972651430443,63.4407866187253,7.5));
#1459=CARTESIAN_POINT('',(77.6972651430443,63.4407866187253,5.5));
#1460=CARTESIAN_POINT('Origin',(75.6972651430443,63.4407866187253,5.5));
#1461=CARTESIAN_POINT('',(79.6972651430443,65.4407866187253,5.5));
#1462=CARTESIAN_POINT('Origin',(79.6972651430443,63.4407866187253,5.5));
#1463=CARTESIAN_POINT('Origin',(79.6972651430443,67.4407866187253,5.5));
#1464=CARTESIAN_POINT('Origin',(75.6972651430443,54.7970877737991,5.5));
#1465=CARTESIAN_POINT('',(75.6972651430443,54.7970877737991,7.5));
#1466=CARTESIAN_POINT('',(77.6972651430443,54.7970877737991,5.5));
#1467=CARTESIAN_POINT('Origin',(79.6972651430443,52.4407866187253,2.));
#1468=CARTESIAN_POINT('',(79.6972651430443,50.4407866187253,2.));
#1469=CARTESIAN_POINT('',(77.6972651430443,52.4407866187253,2.));
#1470=CARTESIAN_POINT('Origin',(79.6972651430443,52.4407866187253,2.));
#1471=CARTESIAN_POINT('',(79.6972651430443,48.4407866187253,0.));
#1472=CARTESIAN_POINT('Origin',(79.6972651430443,48.4407866187253,2.));
#1473=CARTESIAN_POINT('',(75.6972651430443,52.4407866187253,0.));
#1474=CARTESIAN_POINT('Origin',(79.6972651430443,52.4407866187253,0.));
#1475=CARTESIAN_POINT('Origin',(75.6972651430443,52.4407866187253,2.));
#1476=CARTESIAN_POINT('Origin',(178.430419101345,63.4407866187253,5.5));
#1477=CARTESIAN_POINT('',(180.430419101345,63.4407866187253,5.5));
#1478=CARTESIAN_POINT('',(178.430419101345,65.4407866187253,5.5));
#1479=CARTESIAN_POINT('Origin',(178.430419101345,63.4407866187253,5.5));
#1480=CARTESIAN_POINT('',(182.430419101345,63.4407866187253,7.5));
#1481=CARTESIAN_POINT('Origin',(182.430419101345,63.4407866187253,5.5));
#1482=CARTESIAN_POINT('',(178.430419101345,67.4407866187253,7.5));
#1483=CARTESIAN_POINT('Origin',(178.430419101345,63.4407866187253,7.5));
#1484=CARTESIAN_POINT('Origin',(178.430419101345,67.4407866187253,5.5));
#1485=CARTESIAN_POINT('Origin',(182.430419101345,47.2970877737991,5.5));
#1486=CARTESIAN_POINT('',(182.430419101345,47.2970877737991,7.5));
#1487=CARTESIAN_POINT('',(180.430419101345,47.2970877737991,5.5));
#1488=CARTESIAN_POINT('Origin',(154.089243054198,67.4407866187253,5.5));
#1489=CARTESIAN_POINT('',(154.089243054198,67.4407866187253,7.5));
#1490=CARTESIAN_POINT('',(154.089243054198,65.4407866187253,5.5));
#1491=CARTESIAN_POINT('Origin',(178.430419101345,52.4407866187253,2.));
#1492=CARTESIAN_POINT('',(180.430419101345,52.4407866187253,2.));
#1493=CARTESIAN_POINT('',(178.430419101345,50.4407866187253,2.));
#1494=CARTESIAN_POINT('Origin',(178.430419101345,52.4407866187253,2.));
#1495=CARTESIAN_POINT('',(182.430419101345,52.4407866187253,0.));
#1496=CARTESIAN_POINT('Origin',(182.430419101345,52.4407866187253,2.));
#1497=CARTESIAN_POINT('',(178.430419101345,48.4407866187253,0.));
#1498=CARTESIAN_POINT('Origin',(178.430419101345,52.4407866187253,0.));
#1499=CARTESIAN_POINT('Origin',(178.430419101345,48.4407866187253,2.));
#1500=CARTESIAN_POINT('Origin',(79.6972651430443,63.4407866187253,2.));
#1501=CARTESIAN_POINT('',(77.6972651430443,63.4407866187253,2.));
#1502=CARTESIAN_POINT('',(79.6972651430443,65.4407866187253,2.));
#1503=CARTESIAN_POINT('Origin',(79.6972651430443,63.4407866187253,2.));
#1504=CARTESIAN_POINT('',(75.6972651430443,63.4407866187253,0.));
#1505=CARTESIAN_POINT('Origin',(75.6972651430443,63.4407866187253,2.));
#1506=CARTESIAN_POINT('',(79.6972651430443,67.4407866187253,0.));
#1507=CARTESIAN_POINT('Origin',(79.6972651430443,63.4407866187253,0.));
#1508=CARTESIAN_POINT('Origin',(79.6972651430443,67.4407866187253,2.));
#1509=CARTESIAN_POINT('Origin',(75.6972651430443,54.7970877737991,2.));
#1510=CARTESIAN_POINT('',(75.6972651430443,54.7970877737991,0.));
#1511=CARTESIAN_POINT('',(77.6972651430443,54.7970877737991,2.));
#1512=CARTESIAN_POINT('Origin',(178.430419101345,63.4407866187253,2.));
#1513=CARTESIAN_POINT('',(178.430419101345,67.4407866187253,0.));
#1514=CARTESIAN_POINT('',(182.430419101345,63.4407866187253,0.));
#1515=CARTESIAN_POINT('Origin',(178.430419101345,63.4407866187253,0.));
#1516=CARTESIAN_POINT('',(180.430419101345,63.4407866187253,2.));
#1517=CARTESIAN_POINT('Origin',(182.430419101345,63.4407866187253,2.));
#1518=CARTESIAN_POINT('',(178.430419101345,65.4407866187253,2.));
#1519=CARTESIAN_POINT('Origin',(178.430419101345,63.4407866187253,2.));
#1520=CARTESIAN_POINT('Origin',(178.430419101345,67.4407866187253,2.));
#1521=CARTESIAN_POINT('Origin',(182.430419101345,47.2970877737991,2.));
#1522=CARTESIAN_POINT('',(182.430419101345,47.2970877737991,0.));
#1523=CARTESIAN_POINT('',(180.430419101345,47.2970877737991,2.));
#1524=CARTESIAN_POINT('Origin',(178.430419101345,63.4407866187253,0.));
#1525=CARTESIAN_POINT('',(178.430419101345,65.4407866187253,0.));
#1526=CARTESIAN_POINT('',(180.430419101345,63.4407866187253,0.));
#1527=CARTESIAN_POINT('Origin',(154.089243054198,67.4407866187253,2.));
#1528=CARTESIAN_POINT('',(154.089243054198,67.4407866187253,0.));
#1529=CARTESIAN_POINT('',(154.089243054198,65.4407866187253,2.));
#1530=CARTESIAN_POINT('Origin',(79.6972651430443,63.4407866187253,0.));
#1531=CARTESIAN_POINT('',(77.6972651430443,63.4407866187253,0.));
#1532=CARTESIAN_POINT('',(79.6972651430443,65.4407866187253,0.));
#1533=CARTESIAN_POINT('Origin',(102.722666075047,48.4407866187253,2.));
#1534=CARTESIAN_POINT('',(102.722666075047,48.4407866187253,0.));
#1535=CARTESIAN_POINT('',(102.722666075047,50.4407866187253,2.));
#1536=CARTESIAN_POINT('Origin',(178.430419101345,52.4407866187253,0.));
#1537=CARTESIAN_POINT('',(180.430419101345,52.4407866187253,0.));
#1538=CARTESIAN_POINT('',(178.430419101345,50.4407866187253,0.));
#1539=CARTESIAN_POINT('Origin',(79.6972651430443,52.4407866187253,0.));
#1540=CARTESIAN_POINT('',(79.6972651430443,50.4407866187253,0.));
#1541=CARTESIAN_POINT('',(77.6972651430443,52.4407866187253,0.));
#1542=CARTESIAN_POINT('Origin',(102.722666075047,48.4407866187253,5.5));
#1543=CARTESIAN_POINT('',(102.722666075047,48.4407866187253,7.5));
#1544=CARTESIAN_POINT('',(102.722666075047,50.4407866187253,5.5));
#1545=CARTESIAN_POINT('Origin',(127.748067007051,44.1533889288729,7.5));
#1546=CARTESIAN_POINT('',(222.748067007051,16.653388928873,7.5));
#1547=CARTESIAN_POINT('',(32.7480670070506,16.653388928873,7.5));
#1548=CARTESIAN_POINT('',(75.2480670070507,16.653388928873,7.5));
#1549=CARTESIAN_POINT('',(225.248067007051,19.153388928873,7.5));
#1550=CARTESIAN_POINT('Origin',(222.748067007051,19.153388928873,7.5));
#1551=CARTESIAN_POINT('',(225.248067007051,69.1533889288729,7.5));
#1552=CARTESIAN_POINT('',(225.248067007051,26.653388928873,7.5));
#1553=CARTESIAN_POINT('',(222.748067007051,71.6533889288729,7.5));
#1554=CARTESIAN_POINT('Origin',(222.748067007051,69.1533889288729,7.5));
#1555=CARTESIAN_POINT('',(32.7480670070506,71.6533889288729,7.5));
#1556=CARTESIAN_POINT('',(180.248067007051,71.6533889288729,7.5));
#1557=CARTESIAN_POINT('',(30.2480670070506,69.1533889288729,7.5));
#1558=CARTESIAN_POINT('Origin',(32.7480670070506,69.1533889288729,7.5));
#1559=CARTESIAN_POINT('',(30.2480670070506,19.153388928873,7.5));
#1560=CARTESIAN_POINT('',(30.2480670070506,61.6533889288729,7.5));
#1561=CARTESIAN_POINT('Origin',(32.7480670070506,19.153388928873,7.5));
#1562=CARTESIAN_POINT('Origin',(180.430419101345,65.4407866187253,0.));
#1563=CARTESIAN_POINT('Origin',(77.6972651430443,65.4407866187253,0.));
#1564=CARTESIAN_POINT('Origin',(127.748067007051,44.1533889288729,0.));
#1565=CARTESIAN_POINT('',(232.748067007051,69.153388928873,0.));
#1566=CARTESIAN_POINT('',(222.748067007051,79.1533889288729,0.));
#1567=CARTESIAN_POINT('Origin',(222.748067007051,69.1533889288729,0.));
#1568=CARTESIAN_POINT('',(232.748067007051,19.153388928873,0.));
#1569=CARTESIAN_POINT('',(232.748067007051,79.1533889288729,0.));
#1570=CARTESIAN_POINT('',(222.748067007051,9.15338892887295,0.));
#1571=CARTESIAN_POINT('Origin',(222.748067007051,19.153388928873,0.));
#1572=CARTESIAN_POINT('',(32.7480670070506,9.15338892887295,0.));
#1573=CARTESIAN_POINT('',(232.748067007051,9.15338892887295,0.));
#1574=CARTESIAN_POINT('',(22.7480670070506,19.153388928873,0.));
#1575=CARTESIAN_POINT('Origin',(32.7480670070506,19.153388928873,0.));
#1576=CARTESIAN_POINT('',(22.7480670070506,69.1533889288729,0.));
#1577=CARTESIAN_POINT('',(22.7480670070506,9.15338892887295,0.));
#1578=CARTESIAN_POINT('',(32.7480670070506,79.1533889288729,0.));
#1579=CARTESIAN_POINT('Origin',(32.7480670070506,69.1533889288729,0.));
#1580=CARTESIAN_POINT('',(22.7480670070506,79.1533889288729,0.));
#1581=CARTESIAN_POINT('Origin',(180.430419101345,50.4407866187253,0.));
#1582=CARTESIAN_POINT('Origin',(77.6972651430443,50.4407866187253,0.));
#1583=CARTESIAN_POINT('Origin',(225.248067007051,9.15338892887293,0.));
#1584=CARTESIAN_POINT('',(225.248067007051,19.153388928873,250.));
#1585=CARTESIAN_POINT('',(225.248067007051,19.153388928873,0.));
#1586=CARTESIAN_POINT('',(225.248067007051,69.1533889288729,250.));
#1587=CARTESIAN_POINT('',(225.248067007051,79.1533889288729,250.));
#1588=CARTESIAN_POINT('',(225.248067007051,69.1533889288729,0.));
#1589=CARTESIAN_POINT('Origin',(30.2480670070506,79.1533889288729,0.));
#1590=CARTESIAN_POINT('',(30.2480670070506,69.1533889288729,250.));
#1591=CARTESIAN_POINT('',(30.2480670070506,69.1533889288729,0.));
#1592=CARTESIAN_POINT('',(30.2480670070506,19.153388928873,250.));
#1593=CARTESIAN_POINT('',(30.2480670070506,9.15338892887295,250.));
#1594=CARTESIAN_POINT('',(30.2480670070506,19.153388928873,0.));
#1595=CARTESIAN_POINT('Origin',(32.7480670070506,19.153388928873,0.));
#1596=CARTESIAN_POINT('',(32.7480670070506,16.653388928873,250.));
#1597=CARTESIAN_POINT('',(32.7480670070506,16.653388928873,0.));
#1598=CARTESIAN_POINT('Origin',(32.7480670070506,19.153388928873,250.));
#1599=CARTESIAN_POINT('Origin',(22.7480670070506,16.653388928873,0.));
#1600=CARTESIAN_POINT('',(222.748067007051,16.653388928873,250.));
#1601=CARTESIAN_POINT('',(232.748067007051,16.653388928873,250.));
#1602=CARTESIAN_POINT('',(222.748067007051,16.653388928873,0.));
#1603=CARTESIAN_POINT('Origin',(222.748067007051,19.153388928873,0.));
#1604=CARTESIAN_POINT('Origin',(222.748067007051,19.153388928873,250.));
#1605=CARTESIAN_POINT('Origin',(32.7480670070506,69.1533889288729,0.));
#1606=CARTESIAN_POINT('',(32.7480670070506,71.6533889288729,250.));
#1607=CARTESIAN_POINT('',(32.7480670070506,71.6533889288729,0.));
#1608=CARTESIAN_POINT('Origin',(32.7480670070506,69.1533889288729,250.));
#1609=CARTESIAN_POINT('Origin',(232.748067007051,71.6533889288729,0.));
#1610=CARTESIAN_POINT('',(222.748067007051,71.6533889288729,250.));
#1611=CARTESIAN_POINT('',(222.748067007051,71.6533889288729,0.));
#1612=CARTESIAN_POINT('',(22.7480670070506,71.6533889288729,250.));
#1613=CARTESIAN_POINT('Origin',(222.748067007051,69.1533889288729,0.));
#1614=CARTESIAN_POINT('Origin',(222.748067007051,69.1533889288729,250.));
#1615=CARTESIAN_POINT('Origin',(222.748067007051,69.1533889288729,0.));
#1616=CARTESIAN_POINT('',(222.748067007051,79.1533889288729,250.));
#1617=CARTESIAN_POINT('',(232.748067007051,69.153388928873,250.));
#1618=CARTESIAN_POINT('Origin',(222.748067007051,69.1533889288729,250.));
#1619=CARTESIAN_POINT('',(232.748067007051,69.153388928873,0.));
#1620=CARTESIAN_POINT('',(222.748067007051,79.1533889288729,0.));
#1621=CARTESIAN_POINT('Origin',(127.748067007051,44.1533889288729,250.));
#1622=CARTESIAN_POINT('',(32.7480670070506,79.1533889288729,250.));
#1623=CARTESIAN_POINT('',(22.7480670070506,79.1533889288729,250.));
#1624=CARTESIAN_POINT('',(22.7480670070506,69.1533889288729,250.));
#1625=CARTESIAN_POINT('Origin',(32.7480670070506,69.1533889288729,250.));
#1626=CARTESIAN_POINT('',(22.7480670070506,19.153388928873,250.));
#1627=CARTESIAN_POINT('',(22.7480670070506,9.15338892887295,250.));
#1628=CARTESIAN_POINT('',(32.7480670070506,9.15338892887295,250.));
#1629=CARTESIAN_POINT('Origin',(32.7480670070506,19.153388928873,250.));
#1630=CARTESIAN_POINT('',(222.748067007051,9.15338892887295,250.));
#1631=CARTESIAN_POINT('',(232.748067007051,9.15338892887295,250.));
#1632=CARTESIAN_POINT('',(232.748067007051,19.153388928873,250.));
#1633=CARTESIAN_POINT('Origin',(222.748067007051,19.153388928873,250.));
#1634=CARTESIAN_POINT('',(232.748067007051,79.1533889288729,250.));
#1635=CARTESIAN_POINT('Origin',(232.748067007051,79.1533889288729,0.));
#1636=CARTESIAN_POINT('',(32.7480670070506,79.1533889288729,0.));
#1637=CARTESIAN_POINT('Origin',(32.7480670070506,69.1533889288729,0.));
#1638=CARTESIAN_POINT('',(22.7480670070506,69.1533889288729,0.));
#1639=CARTESIAN_POINT('Origin',(222.748067007051,19.153388928873,0.));
#1640=CARTESIAN_POINT('',(222.748067007051,9.15338892887295,0.));
#1641=CARTESIAN_POINT('',(232.748067007051,19.153388928873,0.));
#1642=CARTESIAN_POINT('Origin',(22.7480670070506,9.15338892887295,0.));
#1643=CARTESIAN_POINT('',(32.7480670070506,9.15338892887295,0.));
#1644=CARTESIAN_POINT('Origin',(32.7480670070506,19.153388928873,0.));
#1645=CARTESIAN_POINT('',(22.7480670070506,19.153388928873,0.));
#1646=CARTESIAN_POINT('Origin',(22.7480670070506,79.1533889288729,0.));
#1647=CARTESIAN_POINT('Origin',(232.748067007051,9.15338892887295,0.));
#1648=UNCERTAINTY_MEASURE_WITH_UNIT(LENGTH_MEASURE(0.01),#1652,
'DISTANCE_ACCURACY_VALUE',
'Maximum model space distance between geometric entities at asserted c
onnectivities');
#1649=UNCERTAINTY_MEASURE_WITH_UNIT(LENGTH_MEASURE(0.01),#1652,
'DISTANCE_ACCURACY_VALUE',
'Maximum model space distance between geometric entities at asserted c
onnectivities');
#1650=(
GEOMETRIC_REPRESENTATION_CONTEXT(3)
GLOBAL_UNCERTAINTY_ASSIGNED_CONTEXT((#1648))
GLOBAL_UNIT_ASSIGNED_CONTEXT((#1652,#1654,#1655))
REPRESENTATION_CONTEXT('','3D')
);
#1651=(
GEOMETRIC_REPRESENTATION_CONTEXT(3)
GLOBAL_UNCERTAINTY_ASSIGNED_CONTEXT((#1649))
GLOBAL_UNIT_ASSIGNED_CONTEXT((#1652,#1654,#1655))
REPRESENTATION_CONTEXT('','3D')
);
#1652=(
LENGTH_UNIT()
NAMED_UNIT(*)
SI_UNIT(.MILLI.,.METRE.)
);
#1653=(
LENGTH_UNIT()
NAMED_UNIT(*)
SI_UNIT($,.METRE.)
);
#1654=(
NAMED_UNIT(*)
PLANE_ANGLE_UNIT()
SI_UNIT($,.RADIAN.)
);
#1655=(
NAMED_UNIT(*)
SI_UNIT($,.STERADIAN.)
SOLID_ANGLE_UNIT()
);
#1656=SHAPE_DEFINITION_REPRESENTATION(#1657,#1658);
#1657=PRODUCT_DEFINITION_SHAPE('',$,#1660);
#1658=SHAPE_REPRESENTATION('',(#968),#1650);
#1659=PRODUCT_DEFINITION_CONTEXT('part definition',#1664,'design');
#1660=PRODUCT_DEFINITION('2026-02-23-19-42-26-801','laptopStandV1',#1661,
#1659);
#1661=PRODUCT_DEFINITION_FORMATION('',$,#1666);
#1662=PRODUCT_RELATED_PRODUCT_CATEGORY('laptopStandV1','laptopStandV1',
(#1666));
#1663=APPLICATION_PROTOCOL_DEFINITION('international standard',
'automotive_design',2009,#1664);
#1664=APPLICATION_CONTEXT(
'Core Data for Automotive Mechanical Design Process');
#1665=PRODUCT_CONTEXT('part definition',#1664,'mechanical');
#1666=PRODUCT('2026-02-23-19-42-26-801','laptopStandV1',$,(#1665));
#1667=PRESENTATION_STYLE_ASSIGNMENT((#1668));
#1668=SURFACE_STYLE_USAGE(.BOTH.,#1669);
#1669=SURFACE_SIDE_STYLE('',(#1670));
#1670=SURFACE_STYLE_FILL_AREA(#1671);
#1671=FILL_AREA_STYLE('Steel - Satin',(#1672));
#1672=FILL_AREA_STYLE_COLOUR('Steel - Satin',#1673);
#1673=COLOUR_RGB('Steel - Satin',0.627450980392157,0.627450980392157,0.627450980392157);
ENDSEC;
END-ISO-10303-21;
